<?xml version="1.0" encoding="UTF-8" standalone="no"?><svg xmlns="http://www.w3.org/2000/svg" xmlns:xlink="http://www.w3.org/1999/xlink" contentScriptType="text/ecmascript" zoomAndPan="magnify" text-rendering="geometricPrecision" contentStyleType="text/css" version="1" width="36.4" shape-rendering="geometricPrecision" clip-rule="evenodd" fill="#000000" preserveAspectRatio="xMidYMid meet" viewBox="-0.0 -0.0 36.4 36.4" height="36.4" fill-rule="evenodd" image-rendering="optimizeQuality"><defs><linearGradient x1="28.33" y1="21.61" x2="28.82" gradientUnits="userSpaceOnUse" y2="21.66" xlink:type="simple" xlink:actuate="onLoad" id="a" xlink:show="other"><stop stop-color="#acce22" offset="0"/><stop stop-color="#fff9b1" offset="1"/></linearGradient><linearGradient x1="22.27" y1="20.3" xlink:href="#a" x2="22.75" gradientUnits="userSpaceOnUse" y2="20.4" xlink:type="simple" xlink:actuate="onLoad" id="e" xlink:show="other"/><linearGradient x1="17.34" y1="26.6" x2="17.24" gradientUnits="userSpaceOnUse" y2="36.39" xlink:type="simple" xlink:actuate="onLoad" id="h" xlink:show="other"><stop stop-color="#d9e483" offset="0"/><stop stop-color="#acce22" offset="0.502"/><stop stop-color="#9aa780" offset="1"/></linearGradient><linearGradient x1="20.6" y1="19.89" xlink:href="#a" x2="21.1" gradientUnits="userSpaceOnUse" y2="19.94" xlink:type="simple" xlink:actuate="onLoad" id="m" xlink:show="other"/><linearGradient x1="9.93" y1="22.41" xlink:href="#a" x2="10.42" gradientUnits="userSpaceOnUse" y2="22.46" xlink:type="simple" xlink:actuate="onLoad" id="n" xlink:show="other"/><linearGradient x1="31.94" y1="21.24" x2="25.56" gradientUnits="userSpaceOnUse" y2="20.45" xlink:type="simple" xlink:actuate="onLoad" id="b" xlink:show="other"><stop stop-color="#cb623a" offset="0"/><stop stop-color="#ef8641" offset="0.459"/><stop stop-color="#f6ae45" offset="1"/></linearGradient><linearGradient x1="2.73" y1="21.75" xlink:href="#a" x2="3.07" gradientUnits="userSpaceOnUse" y2="21.6" xlink:type="simple" xlink:actuate="onLoad" id="d" xlink:show="other"/><linearGradient x1="-0.04" y1="22.32" xlink:href="#a" x2="0.3" gradientUnits="userSpaceOnUse" y2="22.17" xlink:type="simple" xlink:actuate="onLoad" id="k" xlink:show="other"/><linearGradient x1="22.06" y1="19.07" xlink:href="#b" x2="13.89" gradientUnits="userSpaceOnUse" y2="18.11" xlink:type="simple" xlink:actuate="onLoad" id="f" xlink:show="other"/><linearGradient x1="0%" y1="40.754%" xlink:href="#a" x2="114.106%" gradientUnits="objectBoundingBox" y2="41.703%" xlink:type="simple" xlink:actuate="onLoad" id="l" xlink:show="other"/><linearGradient x1="23.76" y1="24.01" xlink:href="#a" x2="24.25" gradientUnits="userSpaceOnUse" y2="24.02" xlink:type="simple" xlink:actuate="onLoad" id="q" xlink:show="other"/><linearGradient x1="8.86" y1="26.08" xlink:href="#b" x2="4.34" gradientUnits="userSpaceOnUse" y2="25.83" xlink:type="simple" xlink:actuate="onLoad" id="i" xlink:show="other"/><linearGradient x1="19.28" y1="24.5" xlink:href="#a" x2="19.66" gradientUnits="userSpaceOnUse" y2="24.43" xlink:type="simple" xlink:actuate="onLoad" id="r" xlink:show="other"/><linearGradient x1="20.37" y1="2.68" x2="20.72" gradientUnits="userSpaceOnUse" y2="5.67" xlink:type="simple" xlink:actuate="onLoad" id="o" xlink:show="other"><stop stop-color="#ac6249" offset="0"/><stop stop-color="#566892" offset="0.459"/><stop stop-color="#645a51" offset="1"/></linearGradient><radialGradient gradientTransform="matrix(1.41037 1.81335 -1.81335 1.41038 1 -22)" gradientUnits="userSpaceOnUse" xlink:type="simple" r="3.54" xlink:actuate="onLoad" cx="11.43" id="p" cy="3.41" xlink:show="other" fx="11.43" fy="3.41"><stop stop-color="#645a51" offset="0"/><stop stop-color="#566892" offset="0.541"/><stop stop-color="#ac6249" offset="1"/></radialGradient><radialGradient gradientTransform="matrix(1.40428 .10032 -.10032 1.40429 -7 -5)" gradientUnits="userSpaceOnUse" xlink:type="simple" r="9.13" xlink:actuate="onLoad" cx="19.59" id="c" cy="7.1" xlink:show="other" fx="19.59" fy="7.1"><stop stop-color="#f6ae45" offset="0"/><stop stop-color="#ef8641" offset="0.541"/><stop stop-color="#cb623a" offset="1"/></radialGradient><radialGradient gradientTransform="matrix(.4943 -2.40838 2.40835 .49428 -55 25)" id="j" gradientUnits="userSpaceOnUse" xlink:show="other" xlink:type="simple" r="3.91" cx="5.17" fx="5.17" cy="23.96" fy="23.96" xlink:href="#c" xlink:actuate="onLoad"/><radialGradient gradientTransform="matrix(1.40737 -1.9682 1.96823 1.40739 -49 47)" id="g" gradientUnits="userSpaceOnUse" xlink:show="other" xlink:type="simple" r="5.3" cx="27.72" fx="27.72" cy="19.41" fy="19.41" xlink:href="#c" xlink:actuate="onLoad"/></defs><g><g><path fill="none" stroke-width="0.06" stroke-miterlimit="2.613" d="M13.02 21.75c0,0 -0.1,1.17 -0.06,1.52 0.04,0.35 0.01,0.88 -0.01,1.15 -0.02,0.28 -0.02,0.47 0,0.7 0.02,0.23 -0.02,0.45 -0.03,0.72 -0.01,0.26 -0.01,0.51 -0.03,0.77 -0.02,0.26 0.01,0.41 0.03,0.6 0.03,0.19 -0.14,3.73 -0.14,3.73" stroke-linecap="round" stroke="#acce22"/><g id="change1_1"><path fill="#9aa780" d="M12.91 20.79c-0.04,-0.02 -0,0.15 -0.03,0.27 -0.03,0.12 -0.06,0.13 -0.05,0.28 0.01,0.15 0.01,0.13 0.07,0.26 0.06,0.13 0.11,0.21 0.11,0.21 0,0 0.01,0.04 0.08,-0.12 0.06,-0.16 0.16,-0.14 0.09,-0.35 -0.07,-0.21 -0.14,-0.28 -0.14,-0.28l-0.13 -0.27z"/></g><path fill="none" stroke-width="0.06" stroke-miterlimit="2.613" d="M3.03 22.2c0,0 0.43,1.09 0.5,1.43 0.07,0.35 0.24,0.84 0.34,1.1 0.1,0.26 0.16,0.44 0.2,0.67 0.04,0.23 0.15,0.43 0.24,0.68 0.08,0.25 0.16,0.49 0.25,0.73 0.1,0.25 0.11,0.39 0.14,0.58 0.03,0.19 1.22,3.53 1.22,3.53" stroke-linecap="round" stroke="#acce22"/><path fill="url(#d)" d="M2.86 21.25c0.03,-0.03 0.05,0.15 0.11,0.25 0.06,0.1 0.1,0.11 0.13,0.25 0.03,0.14 0.03,0.13 0.01,0.27 -0.01,0.14 -0.05,0.23 -0.05,0.23 0,0 -0,0.05 -0.11,-0.09 -0.11,-0.13 -0.2,-0.09 -0.19,-0.31 0.01,-0.22 0.05,-0.31 0.05,-0.31l0.04 -0.3z"/><path fill="none" stroke-width="0.06" stroke-miterlimit="2.613" d="M22.33 20.84c0,0 -0.28,1.14 -0.43,1.46 -0.15,0.32 -0.29,0.83 -0.36,1.1 -0.07,0.27 -0.13,0.45 -0.23,0.66 -0.1,0.21 -0.12,0.44 -0.2,0.69 -0.08,0.25 -0.15,0.49 -0.22,0.74 -0.07,0.25 -0.14,0.39 -0.22,0.56 -0.09,0.17 -1.07,3.58 -1.07,3.58" stroke-linecap="round" stroke="#acce22"/><path fill="url(#e)" d="M22.74 19.97c0.05,-0.01 -0.05,0.15 -0.05,0.27 -0.01,0.12 0.02,0.14 -0.04,0.28 -0.06,0.13 -0.05,0.12 -0.15,0.23 -0.1,0.11 -0.17,0.16 -0.17,0.16 0,0 -0.03,0.04 -0.03,-0.13 -0.01,-0.17 -0.11,-0.19 0.02,-0.36 0.13,-0.17 0.22,-0.22 0.22,-0.22l0.21 -0.22z"/><path fill="none" stroke-width="0.06" stroke-miterlimit="2.613" d="M24.68 20.19c0,0 0.08,1.17 0.17,1.51 0.09,0.34 0.14,0.87 0.16,1.14 0.02,0.28 0.05,0.47 0.1,0.69 0.06,0.23 0.04,0.45 0.08,0.71 0.03,0.26 0.07,0.51 0.09,0.77 0.02,0.26 0.07,0.4 0.12,0.59 0.05,0.18 0.42,3.71 0.42,3.71" stroke-linecap="round" stroke="#acce22"/><g id="change1_2"><path fill="#9aa780" d="M24.43 19.26c-0.05,-0.02 0.02,0.15 0.01,0.27 -0.01,0.12 -0.04,0.14 -0.01,0.28 0.03,0.14 0.03,0.13 0.11,0.25 0.07,0.12 0.14,0.19 0.14,0.19 0,0 0.02,0.04 0.06,-0.13 0.04,-0.17 0.14,-0.17 0.04,-0.36 -0.1,-0.19 -0.18,-0.26 -0.18,-0.26l-0.17 -0.25z"/></g><path fill="none" stroke-width="0.06" stroke-miterlimit="2.613" d="M35.17 23.27c0,0 -0.51,1.05 -0.6,1.39 -0.09,0.34 -0.31,0.82 -0.42,1.07 -0.12,0.25 -0.19,0.43 -0.25,0.65 -0.06,0.23 -0.19,0.41 -0.29,0.66 -0.1,0.24 -0.19,0.47 -0.31,0.71 -0.11,0.24 -0.14,0.38 -0.19,0.57 -0.05,0.19 -1.47,3.43 -1.47,3.43" stroke-linecap="round" stroke="#acce22"/><g id="change1_3"><path fill="#9aa780" d="M35.41 22.34c-0.03,-0.04 -0.06,0.14 -0.13,0.24 -0.07,0.1 -0.1,0.1 -0.15,0.24 -0.04,0.14 -0.04,0.13 -0.03,0.27 0,0.14 0.03,0.23 0.03,0.23 0,0 -0,0.05 0.11,-0.08 0.12,-0.13 0.2,-0.07 0.21,-0.29 0.01,-0.22 -0.03,-0.31 -0.03,-0.31l-0.02 -0.3z"/></g><path fill="url(#f)" d="M15.47 12.78c0,1.07 -1,6.59 -1.38,7.53 -0.38,0.94 -0.5,1.69 -0.38,2.76 0.13,1.07 0.14,0.86 0.4,1.99 0.26,1.13 1.51,4.67 4.08,4.35 2.57,-0.33 3.03,-1.24 3.24,-1.94 0.21,-0.7 0,-1.58 -0.06,-3.33 -0.06,-1.76 0,-3.45 -0.06,-4.46 -0.06,-1 -0.19,-4.64 -0.25,-5.84 -0.06,-1.19 0,-1.69 -0.31,-2.32 -0.31,-0.63 -2.51,-0.31 -2.51,-0.31l-2.76 1.57z"/><g id="change2_1"><path fill="#b45a38" d="M19.14 21.34c0.47,0.98 0.72,1.55 1.04,2.33 0.31,0.78 0.31,1.14 0.41,2.02 0.1,0.88 0.1,2.38 0.1,2.38l-1.14 0.16c0,0 0.47,-0.88 0.57,-1.29 0.1,-0.41 0.31,-1.19 0.05,-2.02 -0.26,-0.83 -1.04,-3.57 -1.04,-3.57z"/></g><g id="change2_2"><path fill="#b45a38" d="M19.17 13.16c0.38,0.38 0.79,0.5 0.88,1.38 0.04,0.37 0.14,1.14 0.56,1.63 0.72,0.82 0.61,2.38 0.52,1.95 -0.09,-0.44 -0.25,-1.19 -0.64,-1.33 -0.42,-0.94 -0.7,-1.64 -1.11,-2.59 -0.38,-0.28 -0.77,-0.57 -1.15,-0.85 0.31,-0.06 0.63,-0.13 0.94,-0.19z"/></g><g id="change2_3"><path fill="#b45a38" d="M18.25 16.56c0.63,0.94 1.1,1.68 1.29,2.43 0.19,0.75 0.5,1.51 1,2.26 0.5,0.75 0.82,1.32 0.82,0.94 0,-0.38 -0.12,-2.82 -0.12,-2.82 0,0 -0.51,-0.82 -1.01,-1.26 -0.5,-0.44 -0.75,-0.75 -0.82,-1.57 -0.06,-0.82 -0.19,-1.26 -0.5,-1.69 -0.31,-0.44 -1.08,-1.45 -1.08,-1.45 0,0 0.39,1.32 0.45,1.95 -0.15,0.57 -0.04,1.21 -0.04,1.21z"/></g><g id="change3_1"><path fill="#b14742" d="M20.98 12.16c-0.34,0.34 -0.47,0.64 -0.68,0.88 -0.2,0.24 -0.34,0.51 -0.74,0.81 -0.41,0.3 -1.01,0.57 -1.42,0.78 -0.41,0.2 -0.71,0.24 -1.18,0.37 -0.47,0.14 -1.79,0.24 -1.79,0.24 0,0 0.17,-1.15 0.2,-1.38 0.03,-0.24 0.2,-1.05 0.2,-1.05l3.85 -0.81 1.55 0.17z"/></g><path fill="url(#c)" d="M12.08 13.22c0.06,-0.19 0.5,0.5 1.95,0.63 1.44,0.13 3.7,-0.25 4.71,-0.56 1,-0.31 2.07,-1.32 2.07,-1.32 0,0 -0.56,0.31 0.56,0.06 1.13,-0.25 2.38,-0.94 2.7,-1.19 0.31,-0.25 0.31,-0.38 0.31,-0.38 0,0 -0.25,0.38 0.56,0.13 0.82,-0.25 1.43,-0.31 1.76,-0.88 0.32,-0.56 0.2,-1.1 0,-1.95 -0.2,-0.85 -4.11,-2.6 -5.65,-2.7 -1.54,-0.09 -2.7,-0.69 -4.08,-0.38 -1.38,0.31 -2.51,0.19 -3.64,0.88 -1.13,0.69 -1.44,1 -2.13,1.44 -0.69,0.44 -1.95,1.76 -2.07,2.13 -0.13,0.38 -0.82,1.51 -0.31,2.38 0.67,1.17 1.23,1.15 1.95,1.57 0,0 1.26,0.31 1.32,0.13z"/><g id="change4_1"><path fill="#fdd100" d="M14.63 9.8c-0.15,-0.03 -0.27,0.12 -0.27,0.12 0,0 0.03,0.21 0.18,0.18 0.15,-0.03 0.24,-0.18 0.24,-0.18l-0.15 -0.12z"/></g><g id="change4_2"><path fill="#fdd100" d="M14.6 10.31c-0.03,0 -0.45,-0.09 -0.54,0.06 -0.09,0.15 -0.21,0.24 -0.03,0.3 0.18,0.06 0.21,0.09 0.36,0.06 0.15,-0.03 0.27,-0.15 0.27,-0.15 0,0 -0.03,-0.27 -0.06,-0.27z"/></g><g id="change3_2"><path fill="#b14742" d="M15.91 7.45c-0.44,0.88 -1.23,1.48 -1.48,2.04 -0.25,0.56 -0.71,1.6 -0.02,1.79 0.69,0.19 0.79,-0.37 1.36,-0.74 0.56,-0.38 1.45,-0.86 0.99,-1.36 -0.45,-0.5 -0.4,-0.28 -0.46,-0.72 -0.06,-0.44 -0.38,-1 -0.38,-1z"/></g><g id="change4_3"><path fill="#fdd100" d="M21.64 6.37c-0.17,-0.05 -0.38,-0.12 -0.42,0.05 -0.05,0.17 -0.05,0.28 0.09,0.35 0.14,0.07 0.33,0 0.33,0 0,0 0.16,-0.05 0.14,-0.16 -0.02,-0.12 -0.14,-0.24 -0.14,-0.24z"/></g><g id="change3_3"><path fill="#b14742" d="M25.65 6.78c-1.2,0.23 -1.56,0.05 -2.25,0.36 -0.69,0.31 -1.06,0.79 -1.52,0.71 -0.46,-0.08 -0.24,-0.42 -0.58,-0.69 -0.28,-0.1 -0.57,0.08 -0.69,0.09 -0.13,0.01 -0.29,0.76 -0.29,1.13 0,0.38 -0.02,0.97 -0.15,0.81 -0.13,-0.16 -0.42,-0.9 -0.55,-1.06 -0.13,-0.16 -0.8,-0.04 -0.19,-0.6 0.61,-0.56 1.43,-0.92 1.43,-0.92 0,0 -0.25,-0.19 -0.06,-0.75 0.19,-0.56 0.06,-0.69 0.06,-0.69 0,0 0.13,-0.27 1,-0.02 0.88,0.25 1,0.34 1,0.34 0,0 0.68,0.21 1.6,0.72 0.6,0.22 1.18,0.55 1.18,0.55z"/></g><g id="change4_4"><path fill="#fdd100" d="M12.9 11.48c-0.24,0.12 -0.42,0.18 -0.21,0.33 0.21,0.15 0.33,0.3 0.42,0.12 0.09,-0.18 0.03,-0.3 0.03,-0.3l-0.24 -0.15z"/></g><g id="change4_5"><path fill="#fdd100" d="M21.28 7.4c-0.21,-0.06 -0.48,-0.15 -0.54,0.06 -0.06,0.21 -0.06,0.36 0.12,0.45 0.18,0.09 0.42,0 0.42,0 0,0 0.21,-0.06 0.18,-0.21 -0.03,-0.15 -0.18,-0.3 -0.18,-0.3z"/></g><g id="change4_6"><path fill="#fdd100" d="M10.6 10.67c-0.24,0.03 -0.27,0.21 -0.27,0.21l0.33 0.15 0.15 -0.15 -0.21 -0.21z"/></g><g id="change4_7"><path fill="#fdd100" d="M13.56 8.49c-0.24,0.12 -0.18,0.33 -0.18,0.33l0.3 0 0.06 -0.18 -0.18 -0.15z"/></g><g id="change4_8"><path fill="#fdd100" d="M14.54 8.37c-0.09,0.03 -0.18,0.21 -0.18,0.21l0.27 0.09 0.06 -0.18c0,0 -0.06,-0.15 -0.15,-0.12z"/></g><g id="change4_9"><path fill="#fdd100" d="M14.12 9.83c0,0.03 -0.48,0.09 -0.33,0.21 0.15,0.12 0.3,0.18 0.3,0.18 0,0 0.03,-0.42 0.03,-0.39z"/></g><g id="change4_10"><path fill="#fdd100" d="M19.11 9.14c-0.15,-0.03 -0.3,-0.06 -0.33,0.12 -0.03,0.18 -0.09,0.27 0.06,0.36 0.15,0.09 0.3,-0.03 0.3,-0.03l0.06 -0.21 -0.09 -0.24z"/></g><g id="change4_11"><path fill="#fdd100" d="M20.19 6.28c-0.18,-0.03 -0.54,-0.03 -0.42,0.18 0.12,0.21 0.15,0.36 0.3,0.33 0.15,-0.03 0.27,-0.03 0.27,-0.18 0,-0.15 -0.15,-0.33 -0.15,-0.33z"/></g><g id="change4_12"><path fill="#fdd100" d="M21.47 11.36c0,0 -0.21,-0.24 -0.3,-0.06 -0.09,0.18 0,0.33 0,0.33l0.27 0.03 0.03 -0.3z"/></g><g id="change4_13"><path fill="#fdd100" d="M13.5 9.59c-0.15,-0.12 -0.27,-0.03 -0.27,-0.03 0,0 -0.06,0.27 0.12,0.27 0.18,0 0.3,-0.09 0.3,-0.09l-0.15 -0.15z"/></g><g id="change4_14"><path fill="#fdd100" d="M14.69 7.56c-0.15,-0.06 -0.24,0.09 -0.24,0.09l-0.18 0.24 0.33 0.06 0.15 -0.18 -0.06 -0.21z"/></g><g id="change4_15"><path fill="#fdd100" d="M25.97 13.66c0.06,0 0.34,-0.3 0.87,-0.46 0.52,-0.16 1.51,-0.48 1.51,-0.48 0,0 3.09,0.85 3.9,1.29 0.81,0.44 1.95,0.64 2.38,0.99 0.43,0.35 0.68,0.37 0.84,0.89 0.16,0.52 0.14,0.78 0.14,0.78 0,0 0.18,-0.12 -0.28,0.3 -0.45,0.42 -0.31,0.36 -0.69,0.73 -0.38,0.37 -0.22,0.28 -0.96,0.44 -0.74,0.16 -0.88,0.14 -1.83,-0.05 -0.95,-0.19 -3.41,-0.93 -3.84,-1.22 -0.43,-0.29 -1.66,-1.14 -1.66,-1.14l-0.3 -0.34 -0.15 -0.48c-0.27,-0.73 0.01,-1.26 0.07,-1.26z"/></g><path fill="url(#b)" d="M29.93 13.09c-0.74,0.47 -1.25,1.33 -1.68,2.07 -0.44,0.74 -1.34,2.68 -1.65,3.49 -0.31,0.81 -0.8,2.33 -0.84,2.97 -0.04,0.64 0.19,2.01 0.15,2.65 -0.04,0.64 0.04,2.25 0.06,3.02 0.01,0.77 -0.22,1.34 0.4,1.76 0.61,0.43 1.68,0.88 2.52,0.81 0.84,-0.07 1.83,0.25 2.32,-0.29 0.49,-0.55 0.37,-1.39 0.5,-2.41 0.13,-1.02 0.18,-3.72 0.29,-4.29 0.1,-0.57 -0.16,-3.42 -0.12,-4.06 0.04,-0.64 0.29,-2.36 0.34,-3.13 0.05,-0.77 0,-1.99 0,-1.99l-1.99 -0.97 -0.28 0.37z"/><g id="change2_4"><path fill="#b45a38" d="M29.23 15.94c0.14,0.78 -0.09,1.95 -0.45,2.63 -0.37,0.68 -1,2.32 -1.34,2.82 -0.33,0.5 -0.42,-1.23 -0.31,-1.93 0.11,-0.7 2.1,-3.52 2.1,-3.52z"/></g><g id="change3_4"><path fill="#b14742" d="M27.84 15.73c-0.09,0.27 -0.41,1.13 -0.54,1.45 -0.14,0.32 -0.63,1.36 -0.63,1.36 0,0 1.31,-0.27 1.94,-0.32 0.63,-0.05 1.4,-0.41 2.08,-0.54 0.68,-0.14 1.31,-0.45 1.31,-0.45l0.36 -0.5 -2.62 -1.04 -1.9 0.05z"/></g><path fill="url(#g)" d="M25.99 14.37c0,0 -0.32,-0.09 -0.29,-0.53 0.03,-0.45 0.14,-1.21 0.63,-1.69 0.48,-0.48 0.85,-1.16 1.65,-1.56 0.8,-0.4 1.85,-0.71 2.68,-0.66 0.83,0.06 1.79,0.18 2.47,0.55 0.68,0.37 1.79,1.08 2.01,1.61 0.22,0.53 0.67,1.46 0.84,1.92 0.16,0.46 0.44,1.12 0.28,1.63 -0.16,0.5 -0.59,1.12 -0.59,1.12 0,0 -0.57,0.86 -1.22,0.95 -0.65,0.09 -6,-1.62 -6,-1.62l-2.46 -1.71z"/><g id="change2_5"><path fill="#b45a38" d="M27.07 23.55c-0.11,0.65 -0.18,1.49 -0.05,1.94 0.14,0.45 0.18,1.36 0.27,1.67 0.09,0.32 -0.05,1.76 -0.05,1.76l0.63 0.05c0,0 0.18,-0.54 0,-1.04 -0.18,-0.5 -0.54,-2.13 -0.5,-2.4 0.05,-0.27 0,-2.13 0.14,-2.35 0.14,-0.23 -0.14,-1.45 -0.14,-1.45l-0.32 1.81z"/></g><path fill="url(#h)" d="M0.3 31.94c0.24,-0.84 3.68,-2.53 4.28,-2.87 0.6,-0.34 3.23,-0.39 3.95,-0.64 0.72,-0.25 3.57,-1.06 3.57,-1.06 0,0 1.92,-0.93 2.75,-1.01 0.84,-0.08 3.23,0.34 3.23,0.34 0,0 3.71,1.35 4.31,1.26 0.6,-0.08 2.39,-0.25 2.99,-0.25 0.6,0 3.47,0.76 3.47,0.76l3.59 1.18c0,0 0.84,1.1 1.44,1.69 0.6,0.59 1.32,1.18 1.08,1.77 -0.24,0.59 -1.92,1.69 -2.87,1.77 -0.96,0.08 -3.48,1.24 -4.93,1.39 -1.45,0.15 -4.91,0.07 -6.23,-0.02 -1.32,-0.08 -5.27,-0.33 -5.87,-0.24 -0.6,0.08 -5.04,-0.55 -5.04,-0.55 0,0 -4.75,-0.5 -5.35,-0.5 -0.6,0 -3.87,-0.37 -4.11,-0.87 -0.24,-0.51 -0.28,-2.14 -0.28,-2.14z"/><path fill="url(#i)" d="M5.76 20.84c0,0 -0.77,1.46 -1.08,2.15 -0.31,0.69 -0.62,2 -0.54,2.69 0.08,0.69 -0.15,1.31 0.08,2 0.23,0.69 1.54,3.38 2,3.38 0.46,0 1,-0.15 1.77,-0.62 0.77,-0.46 1.23,-1.31 1.23,-1.31 0,0 -0.54,-1.61 -0.62,-2.31 -0.08,-0.69 0.31,-2.54 0.31,-2.54l0.31 -3 -3.46 -0.46z"/><g id="change3_5"><path fill="#b14742" d="M9.16 22.19c-0.45,0.1 -0.83,0.38 -1.27,0.55 -0.45,0.17 -0.65,0.38 -1.03,0.62 -0.38,0.24 -0.52,0.41 -0.86,0.69 -0.34,0.28 -0.55,0.21 -0.79,0.31 -0.24,0.1 -0.72,0 -0.83,-0.03 -0.1,-0.03 0.13,-0.91 0.24,-1.17 0.11,-0.26 0.57,-1.42 0.76,-1.44 0.19,-0.03 0.52,-0.62 0.79,-0.62 0.28,0 0.96,0.1 1.34,0.17 0.38,0.07 1.24,0.38 1.24,0.38l0.41 0.55z"/></g><path fill="url(#j)" d="M4.68 21.69c0.62,0.08 1.08,-0.15 1.54,-0.08 0.46,0.08 2.23,0.46 2.84,0.46 0.62,0 1.77,0.15 2,-0.46 0.23,-0.62 0.38,-2.61 -0.15,-3.08 -0.54,-0.46 -1.08,-2 -2.46,-1.92 -1.38,0.08 -1.31,-0.26 -2.69,0.31 -1.38,0.56 -1.97,1.42 -2.15,2.31 -0.18,0.89 -0.24,1.56 0.08,1.77 0.46,0.31 1,0.69 1,0.69z"/><g id="change3_6"><path fill="#b14742" d="M7.52 24.92c-0.31,0.69 -0.54,1.38 -0.38,1.85 0.15,0.46 1.17,3.11 1.64,2.98 0.09,-0.03 0.18,-0.16 0.21,-0.23 0.16,-0.39 -0.68,-1.45 -0.81,-1.81 -0.16,-0.45 -0.6,-0.89 -0.5,-1.27 -0.08,-0.38 -0.14,-1.5 -0.14,-1.5z"/></g><g id="change2_6"><path fill="#b45a38" d="M5.91 23.76c0.1,0.09 0.33,1.11 0.23,2.15 -0.05,0.52 -0,1.79 0.24,2.86 0.23,1.01 0.97,1.93 0.88,2.03 -0.14,0.15 -0.5,0.18 -0.75,0.25 -0.2,0.05 -0.3,-0.31 -0.73,-2.09 -0.16,-0.68 -0.07,-1.57 -0.18,-2.27 0.01,-0.52 0.31,-2.92 0.31,-2.92z"/></g><g id="change4_16"><path fill="#fdd100" d="M5.61 18.99c-0.14,-0.04 -0.34,-0.08 -0.32,0.1 0.02,0.18 -0.02,0.32 0.14,0.32 0.16,0 0.2,0.04 0.24,-0.08 0.04,-0.12 -0.06,-0.34 -0.06,-0.34z"/></g><g id="change4_17"><path fill="#fdd100" d="M5.95 18.21c-0.2,0.04 -0.32,0.02 -0.26,0.16 0.06,0.14 0.22,0.22 0.22,0.22l0.12 -0.14 -0.08 -0.24z"/></g><g id="change4_18"><path fill="#fdd100" d="M7.36 17.89c-0.14,0.06 -0.28,0.12 -0.18,0.22 0.1,0.1 0.26,0.12 0.26,0.12l0.1 -0.2 -0.18 -0.14z"/></g><g id="change4_19"><path fill="#fdd100" d="M8.04 19.01c0,0 0.04,-0.16 -0.08,-0.22 -0.12,-0.06 -0.18,-0.14 -0.28,-0.02 -0.1,0.12 -0.26,0.3 -0.14,0.4 0.12,0.1 0.28,0.16 0.38,0.16 0.1,0 0.22,-0.02 0.22,-0.12 0,-0.1 -0.1,-0.2 -0.1,-0.2z"/></g><g id="change4_20"><path fill="#fdd100" d="M9.32 20.02c-0.2,0.02 -0.34,0.18 -0.22,0.26 0.12,0.08 0.26,0.14 0.36,0.08 0.1,-0.06 0.1,-0.2 0.1,-0.2l-0.24 -0.14z"/></g><path fill="none" stroke-width="0.06" stroke-miterlimit="2.613" d="M0.27 22.76c0,0 0.43,1.09 0.5,1.43 0.07,0.35 0.24,0.84 0.34,1.1 0.1,0.26 0.16,0.44 0.2,0.67 0.04,0.23 0.15,0.43 0.24,0.68 0.08,0.25 0.16,0.49 0.25,0.73 0.1,0.25 0.11,0.39 0.14,0.58 0.03,0.19 1.22,3.53 1.22,3.53" stroke-linecap="round" stroke="#acce22"/><path fill="url(#k)" d="M0.09 21.82c0.03,-0.03 0.05,0.15 0.11,0.25 0.06,0.1 0.1,0.11 0.13,0.25 0.03,0.14 0.03,0.13 0.01,0.27 -0.01,0.14 -0.05,0.23 -0.05,0.23 0,0 -0,0.05 -0.11,-0.09 -0.11,-0.13 -0.2,-0.09 -0.19,-0.31 0.01,-0.22 0.05,-0.31 0.05,-0.31l0.04 -0.3z"/><path fill="none" stroke-width="0.06" stroke-miterlimit="2.613" d="M23.35 21.11c0,0 -0.37,1.11 -0.42,1.46 -0.05,0.35 -0.2,0.85 -0.29,1.12 -0.09,0.26 -0.14,0.45 -0.17,0.68 -0.03,0.23 -0.13,0.43 -0.2,0.69 -0.07,0.25 -0.13,0.49 -0.22,0.74 -0.08,0.25 -0.09,0.4 -0.11,0.59 -0.02,0.19 -1.03,3.59 -1.03,3.59" stroke-linecap="round" stroke="#acce22"/><g id="change1_4"><path fill="#9aa780" d="M23.47 20.16c-0.04,-0.03 -0.04,0.15 -0.1,0.25 -0.06,0.11 -0.09,0.11 -0.11,0.26 -0.02,0.14 -0.02,0.13 0,0.27 0.02,0.14 0.06,0.23 0.06,0.23 0,0 0,0.05 0.1,-0.09 0.1,-0.14 0.19,-0.1 0.18,-0.32 -0.02,-0.22 -0.07,-0.31 -0.07,-0.31l-0.06 -0.3z"/></g><path fill="none" stroke-width="0.06" stroke-miterlimit="2.613" d="M30.2 21.68c0,0 -0.33,1.12 -0.37,1.47 -0.04,0.35 -0.17,0.86 -0.25,1.13 -0.08,0.27 -0.12,0.45 -0.14,0.69 -0.02,0.23 -0.12,0.44 -0.18,0.69 -0.06,0.26 -0.12,0.5 -0.19,0.75 -0.07,0.25 -0.08,0.4 -0.09,0.59 -0.01,0.19 -0.9,3.62 -0.9,3.62" stroke-linecap="round" stroke="#acce22"/><g id="change1_5"><path fill="#9aa780" d="M30.29 20.73c-0.04,-0.03 -0.03,0.15 -0.09,0.26 -0.05,0.11 -0.09,0.11 -0.11,0.26 -0.02,0.15 -0.02,0.13 0.01,0.27 0.03,0.14 0.07,0.23 0.07,0.23 0,0 0,0.05 0.1,-0.1 0.09,-0.14 0.19,-0.11 0.16,-0.32 -0.03,-0.22 -0.08,-0.3 -0.08,-0.3l-0.07 -0.29z"/></g><path fill="none" stroke-width="0.06" stroke-miterlimit="2.613" d="M11.8 20.61c0,0 -0.1,1.17 -0.06,1.52 0.04,0.35 0.01,0.88 -0.01,1.15 -0.02,0.28 -0.02,0.47 0,0.7 0.02,0.23 -0.02,0.45 -0.03,0.72 -0.01,0.26 -0.01,0.51 -0.03,0.77 -0.02,0.26 0.01,0.41 0.03,0.6 0.03,0.19 -0.14,3.73 -0.14,3.73" stroke-linecap="round" stroke="#acce22"/><g id="change1_6"><path fill="#9aa780" d="M11.69 19.65c-0.04,-0.02 -0,0.15 -0.03,0.27 -0.03,0.12 -0.06,0.13 -0.05,0.28 0.01,0.15 0.01,0.13 0.07,0.26 0.06,0.13 0.11,0.21 0.11,0.21 0,0 0.01,0.04 0.08,-0.12 0.06,-0.16 0.16,-0.14 0.09,-0.35 -0.07,-0.21 -0.14,-0.28 -0.14,-0.28l-0.13 -0.27z"/></g><path fill="none" stroke-width="0.06" stroke-miterlimit="2.613" d="M14.66 24.61c0,0 -0.06,1.17 -0.15,1.51 -0.08,0.34 -0.13,0.87 -0.15,1.14 -0.02,0.28 -0.04,0.47 -0.1,0.69 -0.06,0.23 -0.04,0.45 -0.07,0.71 -0.03,0.26 -0.06,0.51 -0.08,0.77 -0.02,0.26 -0.06,0.4 -0.11,0.59 -0.05,0.19 -0.37,3.71 -0.37,3.71" stroke-linecap="round" stroke="#acce22"/><path fill="url(#l)" d="M14.9 23.69c0.05,-0.02 -0.02,0.15 -0,0.27 0.02,0.12 0.04,0.14 0.01,0.28 -0.03,0.14 -0.03,0.13 -0.1,0.25 -0.07,0.12 -0.14,0.19 -0.14,0.19 0,0 -0.02,0.04 -0.06,-0.12 -0.04,-0.17 -0.14,-0.16 -0.05,-0.36 0.1,-0.19 0.18,-0.26 0.18,-0.26l0.16 -0.25z"/><path fill="none" stroke-width="0.06" stroke-miterlimit="2.613" d="M18.1 21.73c0,0 -0.17,1.16 -0.16,1.51 0.01,0.35 -0.05,0.88 -0.09,1.15 -0.04,0.28 -0.06,0.46 -0.05,0.7 0.01,0.24 -0.05,0.45 -0.08,0.71 -0.02,0.26 -0.04,0.51 -0.08,0.77 -0.04,0.26 -0.02,0.41 -0.01,0.6 0.01,0.19 -0.39,3.71 -0.39,3.71" stroke-linecap="round" stroke="#acce22"/><g id="change1_7"><path fill="#9aa780" d="M18.05 20.77c-0.04,-0.03 -0.01,0.15 -0.05,0.27 -0.04,0.11 -0.07,0.13 -0.07,0.27 0,0.15 0,0.13 0.05,0.27 0.05,0.14 0.1,0.21 0.1,0.21 0,0 0.01,0.04 0.08,-0.11 0.07,-0.15 0.17,-0.13 0.12,-0.34 -0.05,-0.21 -0.12,-0.29 -0.12,-0.29l-0.11 -0.28z"/></g><path fill="none" stroke-width="0.06" stroke-miterlimit="2.613" d="M5.33 23.61c0,0 -0.1,1.17 -0.06,1.52 0.04,0.35 0.01,0.88 -0.01,1.15 -0.02,0.28 -0.02,0.47 0,0.7 0.02,0.23 -0.02,0.45 -0.03,0.72 -0.01,0.26 -0.01,0.51 -0.03,0.77 -0.02,0.26 0.01,0.41 0.03,0.6 0.03,0.19 -0.14,3.73 -0.14,3.73" stroke-linecap="round" stroke="#acce22"/><g id="change1_8"><path fill="#9aa780" d="M5.22 22.66c-0.04,-0.02 -0,0.15 -0.03,0.27 -0.03,0.12 -0.06,0.13 -0.05,0.28 0.01,0.15 0.01,0.13 0.07,0.26 0.06,0.13 0.11,0.21 0.11,0.21 0,0 0.01,0.04 0.08,-0.12 0.06,-0.16 0.16,-0.14 0.09,-0.35 -0.07,-0.21 -0.14,-0.28 -0.14,-0.28l-0.13 -0.27z"/></g><path fill="none" stroke-width="0.06" stroke-miterlimit="2.613" d="M20.73 20.43c0,0 -0.14,1.16 -0.25,1.5 -0.11,0.34 -0.19,0.86 -0.23,1.13 -0.04,0.28 -0.07,0.46 -0.14,0.69 -0.07,0.22 -0.07,0.45 -0.12,0.71 -0.05,0.26 -0.09,0.5 -0.13,0.76 -0.03,0.26 -0.09,0.4 -0.15,0.58 -0.06,0.18 -0.63,3.68 -0.63,3.68" stroke-linecap="round" stroke="#acce22"/><path fill="url(#m)" d="M21.04 19.52c0.05,-0.01 -0.03,0.15 -0.02,0.27 0.01,0.12 0.03,0.14 -0.01,0.28 -0.04,0.14 -0.04,0.13 -0.12,0.24 -0.08,0.12 -0.15,0.18 -0.15,0.18 0,0 -0.02,0.04 -0.05,-0.13 -0.03,-0.17 -0.13,-0.17 -0.02,-0.36 0.11,-0.19 0.19,-0.25 0.19,-0.25l0.18 -0.24z"/><path fill="none" stroke-width="0.06" stroke-miterlimit="2.613" d="M10.06 22.94c0,0 -0.15,1.16 -0.27,1.5 -0.11,0.34 -0.2,0.85 -0.24,1.13 -0.04,0.28 -0.08,0.46 -0.15,0.68 -0.07,0.22 -0.07,0.45 -0.12,0.7 -0.05,0.26 -0.1,0.5 -0.14,0.76 -0.04,0.26 -0.09,0.4 -0.16,0.58 -0.07,0.18 -0.66,3.67 -0.66,3.67" stroke-linecap="round" stroke="#acce22"/><path fill="url(#n)" d="M10.37 22.03c0.05,-0.01 -0.03,0.15 -0.02,0.27 0.01,0.12 0.03,0.14 -0.01,0.28 -0.04,0.14 -0.04,0.13 -0.12,0.24 -0.08,0.12 -0.15,0.18 -0.15,0.18 0,0 -0.02,0.04 -0.05,-0.13 -0.03,-0.17 -0.13,-0.17 -0.02,-0.36 0.11,-0.19 0.2,-0.24 0.2,-0.24l0.18 -0.24z"/><g id="change5_1"><path fill="#332c2b" d="M22.34 5.41c-0.5,0.06 -1.11,0.29 -1.83,0.47 -0.73,0.18 -1.49,0.32 -1.98,0.58 -0.5,0.26 -0.9,0.41 -1.25,0.82 -0.35,0.41 -0.55,0.61 -0.82,0.96 -0.26,0.35 -0.58,0.61 -1.02,0.82 -0.44,0.2 -1.16,0.26 -1.63,0.18 -0.47,-0.09 -1.28,-0.5 -1.49,-0.76 -0.2,-0.26 -0.35,-0.73 -0.41,-0.99 -0.06,-0.26 -0.06,-0.67 0.55,-0.79 0.61,-0.12 2.5,-0.55 3.15,-0.93 0.64,-0.38 1.05,-0.85 2.24,-0.91 1.19,-0.06 2.68,0 3.29,-0.06 0.61,-0.06 1.83,-0.12 1.83,-0.12l-0.64 0.73z"/></g><path fill="url(#o)" stroke-width="0.09" stroke-miterlimit="2.613" d="M17.37 2.92c0.07,0 0.75,0.09 1.1,0.02 0.35,-0.07 0.86,-0.07 1.36,-0.11 0.5,-0.04 1.47,-0.02 1.84,-0.04 0.37,-0.02 1.16,0 1.4,-0.04 0.24,-0.04 0.39,-0.02 0.5,-0.09 0.11,-0.07 0.83,-1.1 0.83,-1.1l0.77 -1.23c0,0 -0.1,-0.08 -0.01,-0.19 0.09,-0.11 0.23,-0.1 0.3,-0.07 0.07,0.02 0.19,0.15 0.08,0.28 -0.11,0.14 -0.23,0.11 -0.23,0.11 0,0 -0.75,1.32 -0.86,1.54 -0.11,0.22 -0.24,0.46 -0.2,0.64 0.04,0.18 -0.07,0.33 0.18,0.29 0.24,-0.04 3.16,-0.59 3.16,-0.59 0,0 0,-0.07 0.07,-0.14 0.07,-0.07 0.29,-0.1 0.36,0.01 0.07,0.11 0.1,0.22 0.01,0.33 -0.09,0.11 -0.41,-0.01 -0.44,0l-2.85 0.86c0,0 0,0.13 0.02,0.26 0.02,0.13 0.04,0.33 0.04,0.33l0.53 0.53c0,0 0.09,0.13 -0.02,0.13 -0.11,0 -0.48,-0.37 -0.61,-0.35 -0.13,0.02 -0.15,0 -0.24,0.15 -0.09,0.15 -0.9,0.59 -1.18,0.7 -0.29,0.11 -1.84,0.33 -2.26,0.37 -0.42,0.04 -1.67,0.15 -1.93,0.2 -0.26,0.04 -0.72,0.09 -1.14,0.22 -0.42,0.13 -1.16,0.42 -1.16,0.42l0.66 -2.19c0,0 -0.13,-1.23 -0.07,-1.23z" stroke="#332c2b"/><g id="change5_2"><path fill="#332c2b" stroke-width="0.09" stroke-miterlimit="2.613" d="M23.14 4.67c-0.44,0.22 -1.4,0.5 -1.8,0.53 -0.39,0.02 -1.87,0.04 -2.28,0.13 -0.42,0.09 -0.68,0.07 -0.99,0.22 -0.31,0.15 -0.72,0.39 -0.72,0.39 0,0 0.26,-0.68 0.35,-0.92 0.09,-0.24 0.22,-0.83 0.22,-1.08 0,-0.24 -0.02,-0.5 -0.02,-0.5 0,0 0.26,0.92 0.42,1.05 0.15,0.13 0.66,0.26 1.32,0.26 0.66,0 1.73,0.04 2.26,0 0.53,-0.04 1.25,-0.09 1.25,-0.09z" stroke="#332c2b"/></g><path fill="url(#p)" d="M17.39 2.3c-0.07,-0.02 0.35,0.39 0.5,0.7 0.15,0.31 0.13,0.99 0.09,1.32 -0.04,0.33 -0.29,0.7 -0.42,1.08 -0.13,0.37 -0.15,0.44 -0.42,0.79 -0.26,0.35 -0.53,0.68 -0.83,0.86 -0.31,0.18 -0.55,0.22 -0.55,0.22 0,0 -0.07,0.33 -0.35,0.5 -0.29,0.18 -0.53,0.29 -0.92,0.33 -0.39,0.04 -0.64,0.04 -0.64,0.04 0,0 -0.33,0 -0.68,-0.02 -0.35,-0.02 -0.81,-0.15 -0.99,-0.31 -0.18,-0.15 -0.42,-0.64 -0.5,-0.86 -0.09,-0.22 -0.31,-0.59 -0.31,-0.59l0 -0.24c0,0 -0.35,-0.48 -0.42,-0.72 -0.07,-0.24 0,-1.25 0.11,-1.51 0.11,-0.26 0.53,-1.03 0.81,-1.29 0.29,-0.26 1.45,-0.73 1.45,-0.68 0,0.05 0.42,-0.24 0.77,-0.24 0.35,0 0.68,0.04 1.1,0.09 0.42,0.04 1.16,0.37 1.16,0.37 0,0 0.26,0.07 0.44,0.07 0.18,0 0.66,0.13 0.59,0.11z"/><path fill="none" stroke-width="0.06" stroke-miterlimit="2.613" d="M13.33 1.95c-0.07,0.26 -0.11,0.87 -0.07,1.14 0.04,0.26 0.15,1.18 0.26,1.47 0.11,0.29 0.18,0.72 0.29,0.99 0.11,0.26 0.11,0.64 0.11,0.64" stroke-linecap="round" stroke="#332c2b"/><path fill="none" stroke-width="0.06" stroke-miterlimit="2.613" d="M15.31 1.8c-0.07,0.42 -0.13,0.83 -0.13,1.23 0,0.39 -0.09,1.01 -0.09,1.4 0,0.39 0.02,0.44 -0.04,1.01 -0.07,0.57 -0.2,1.12 -0.2,1.12" stroke-linecap="round" stroke="#332c2b"/><path fill="none" stroke-width="0.06" stroke-miterlimit="2.613" d="M16.78 2.21c0.09,0.37 0.11,0.86 0.13,1.47 0.02,0.61 -0.13,1.27 -0.22,1.73 -0.09,0.46 -0.18,0.61 -0.37,0.97 -0.2,0.35 -0.48,0.66 -0.48,0.66" stroke-linecap="round" stroke="#332c2b"/><path fill="none" stroke-width="0.06" stroke-miterlimit="2.613" d="M12.28 2.37c0,0.31 0.07,0.7 0.15,1.08 0.09,0.37 0.11,0.59 0.29,1.1 0.18,0.5 0.42,1.12 0.42,1.12" stroke-linecap="round" stroke="#332c2b"/><path fill="none" stroke-width="0.06" stroke-miterlimit="2.613" d="M11.5 3.24c0.02,0.35 0.14,0.69 0.36,1.08 0.22,0.39 0.07,0.48 0.29,0.72 0.22,0.24 0.43,0.61 0.43,0.61" stroke-linecap="round" stroke="#332c2b"/><path fill="none" stroke-width="0.06" stroke-miterlimit="2.613" d="M11.4 6.3c0.09,-0.13 0.04,-0.2 0.44,-0.42 0.39,-0.22 0.86,-0.24 1.18,-0.13 0.33,0.11 0.57,0.26 0.99,0.42 0.42,0.15 0.55,0.26 0.94,0.48 0.39,0.22 0.99,0.54 0.99,0.54" stroke-linecap="round" stroke="#332c2b"/><g id="change5_3"><path fill="#332c2b" d="M16.65 6.82l-0.38 0.28 -0.44 0.16c0,0 -2.47,-1.32 -2.66,-1.4 -0.2,-0.09 -0.93,-0.14 -0.93,-0.14 0,0 0.89,-0.17 1,-0.17 0.11,0 1.14,0.26 1.43,0.39 0.29,0.13 0.97,0.57 1.12,0.61 0.15,0.04 0.39,0.26 0.53,0.24 0.13,-0.02 0.35,0.02 0.35,0.02z"/></g><path fill="none" stroke-width="0.06" stroke-miterlimit="2.613" d="M14.21 8.09c-0.13,-0.18 -0.42,-0.44 -0.61,-0.5 -0.2,-0.07 -0.26,-0.11 -0.26,-0.11 0,0 -0.18,-0.29 -0.55,-0.35 -0.37,-0.07 -0.46,-0.11 -0.64,-0.04 -0.18,0.07 -0.33,0.13 -0.33,0.13" stroke-linecap="round" stroke="#332c2b"/><path fill="none" stroke-width="0.06" stroke-miterlimit="2.613" d="M12.13 7.66c0.13,-0.07 0.32,-0.08 0.49,-0.04 0.33,0.08 0.3,0.21 0.47,0.48" stroke-linecap="round" stroke="#332c2b"/><g id="change6_1"><path fill="#b2b5d5" d="M15.93 1.96c-0.22,-0.1 0.01,0.39 0.01,0.67 0,0.28 0.14,0.75 0.08,1.08 -0.06,0.33 -0.08,0.92 -0.11,1.06 -0.03,0.14 -0.08,0.86 -0.14,1.03 -0.06,0.17 -0.14,0.75 -0.14,0.75l0.31 -0.62 0.13 -0.55c0,0 0.13,-0.75 0.16,-0.89 0.03,-0.14 0.01,-1.43 0,-1.49l-0.13 -1.01 -0.18 -0.04z"/></g><path fill="none" stroke-width="0.06" stroke-miterlimit="2.613" d="M16.11 2.06c0.04,0.29 0.14,1.01 0.16,1.54 0.02,0.53 -0.02,1.08 -0.13,1.56 -0.11,0.48 -0.11,0.7 -0.31,1.03 -0.2,0.33 -0.42,0.66 -0.42,0.66" stroke-linecap="round" stroke="#332c2b"/><g id="change6_2"><path fill="#b2b5d5" d="M14.23 1.83c-0.11,0.17 -0.17,0.51 -0.17,0.72 0,0.21 0.02,0.95 0.08,1.16 0.06,0.21 0.15,0.8 0.17,0.92 0.02,0.12 0.03,0.84 0.03,0.84 0,0 0.14,-0.86 0.14,-1.09 0,-0.23 -0.08,-1.06 -0.08,-1.19 0,-0.14 0.08,-1.03 0.14,-1.1 0.06,-0.08 0.14,-0.38 0.14,-0.38 0,0 -0.09,-0.03 -0.18,-0.03 -0.09,0 -0.21,-0.02 -0.21,-0.02l-0.05 0.15z"/></g><g id="change6_3"><path fill="#b2b5d5" d="M12.39 7.04c0.21,-0.02 0.33,0.05 0.48,0.09 0.15,0.05 0.27,0.18 0.41,0.18 0.14,0 0.29,0.08 0.44,0.12 0.15,0.05 0.2,0.05 0.32,0.15 0.12,0.11 0.17,0.2 0.24,0.27 0.08,0.08 0.32,0.23 0.32,0.23l0.27 -0.06c0,0 -0.2,-0.06 -0.32,-0.14 -0.12,-0.08 -0.21,-0.3 -0.41,-0.42 -0.2,-0.12 -0.33,-0.21 -0.51,-0.23 -0.18,-0.02 -0.3,-0.05 -0.45,-0.12 -0.15,-0.08 -0.35,-0.14 -0.48,-0.15 -0.14,-0.02 -0.66,0.11 -0.66,0.11l0.36 -0.03z"/></g><g id="change5_4"><path fill="#332c2b" d="M14.26 8.12c0.18,-0.02 0.32,-0.04 0.32,-0.04 0,0 -0.15,-0.04 -0.29,-0.15 -0.13,-0.11 -0.18,-0.29 -0.37,-0.39 -0.2,-0.11 -0.24,-0.11 -0.35,-0.13 -0.11,-0.02 -0.18,-0.02 -0.35,-0.11 -0.18,-0.09 -0.46,-0.13 -0.46,-0.13l0.59 0.35c0,0 0.2,0.09 0.37,0.18 0.18,0.09 0.53,0.44 0.53,0.44z"/></g><g id="change6_4"><path fill="#b2b5d5" d="M12.68 7.59c0.14,0.02 0.23,0.12 0.23,0.12l0.17 0.27 0.05 0.14 0.15 -0.03 -0.09 -0.21c0,0 -0.24,-0.27 -0.32,-0.3 -0.08,-0.03 -0.45,-0.02 -0.45,-0.02l0.27 0.03z"/></g><g id="change6_5"><path fill="#b2b5d5" d="M17.37 2.29c0.1,0.01 0.32,0.41 0.38,0.5 0.06,0.09 0.27,0.8 0.27,0.98 0,0.18 0.05,0.53 -0.05,0.68 -0.09,0.15 -0.12,0.35 -0.21,0.53 -0.09,0.18 -0.2,0.6 -0.29,0.72 -0.09,0.12 -0.42,0.63 -0.53,0.74 -0.11,0.11 -0.35,0.33 -0.35,0.33 0,0 0.72,-1.36 0.83,-1.52 0.11,-0.17 0.26,-0.71 0.32,-0.87 0.06,-0.17 0.14,-0.65 0.14,-0.65l-0.18 -0.72 -0.63 -0.75 0.3 0.05z"/></g><g id="change6_6"><path fill="#b2b5d5" d="M12.95 4.1c0.08,0.23 0.06,0.2 0.17,0.42 0.11,0.23 0.18,0.42 0.23,0.62 0.05,0.2 0.06,0.42 0.06,0.42l0.15 0.02c0,0 -0.18,-0.83 -0.24,-0.93 -0.06,-0.11 -0.06,-0.11 -0.06,-0.11 0,0 -0.33,-0.68 -0.35,-0.83 -0.02,-0.15 0.05,0.39 0.05,0.39z"/></g><g id="change6_7"><path fill="#b2b5d5" d="M13.54 3.01c-0.02,0.19 -0.06,0.29 0,0.57 0.06,0.29 0.13,0.55 0.19,0.81 0.06,0.25 0.14,0.65 0.14,0.75 0,0.1 0.06,-0.4 0.05,-0.51 -0.02,-0.11 -0.22,-1.11 -0.22,-1.21 0,-0.1 0.09,-1.24 0.09,-1.24l-0.25 0.82z"/></g><g id="change6_8"><path fill="#b2b5d5" d="M15.11 7.09c0.02,0.19 -0.1,0.25 -0.22,0.35 -0.13,0.1 -0.4,0.21 -0.4,0.21 0,0 0.22,-0.17 0.32,-0.29 0.09,-0.11 0.28,-0.44 0.28,-0.44l0.02 0.17z"/></g><g id="change6_9"><path fill="#b2b5d5" d="M12.47 5.85c-0.17,0.06 -0.21,0.38 -0.14,0.56 0.06,0.17 0.22,0.52 0.22,0.52 0,0 -0.05,-0.55 -0.09,-0.68 -0.05,-0.13 0.19,-0.46 0.19,-0.46l-0.17 0.06z"/></g><g id="change6_10"><path fill="#b2b5d5" d="M13.88 6.36c-0.09,0.15 -0.13,0.18 -0.16,0.3 -0.03,0.12 -0.1,0.51 -0.1,0.51 0,0 0.15,-0.12 0.18,-0.24 0.03,-0.12 0.07,-0.29 0.13,-0.38 0.06,-0.09 0.07,-0.26 0.07,-0.26l-0.12 0.06z"/></g><g id="change7_1"><path fill="#008fd7" d="M18.34 3.08c0.09,-0.04 0.32,-0.07 0.43,-0.07 0.11,0 0.29,0.06 0.29,0.14 0,0.08 -0.18,0.21 -0.25,0.14 -0.07,-0.07 -0.27,-0.07 -0.27,-0.07 0,0 -0.11,0.11 -0.2,0.11 -0.09,0 -0.31,-0.04 -0.27,-0.11 0.04,-0.07 0.27,-0.14 0.27,-0.14z"/></g><g id="change7_2"><path fill="#008fd7" d="M19.5 3.21c-0.07,0.08 -0.13,0.15 -0.02,0.18 0.11,0.03 0.14,0 0.25,-0.03 0.11,-0.03 0.05,-0.14 0.05,-0.14l-0.29 -0.01z"/></g><g id="change7_3"><path fill="#008fd7" d="M19.07 3.49c-0.13,0.01 -0.2,0.12 -0.2,0.12l0.29 0.03 0.04 -0.12 -0.13 -0.03z"/></g><g id="change7_4"><path fill="#008fd7" d="M20.31 3.05c0,0 0.25,-0.1 0.4,0.01 0.14,0.11 0.27,0.18 0.36,0.18 0.09,0 0.13,0.15 0.02,0.14 -0.11,-0.01 -0.38,-0.08 -0.38,-0.08l-0.25 -0.08 -0.32 0.06 0 -0.15 0.18 -0.07z"/></g><g id="change7_5"><path fill="#008fd7" d="M21.59 2.9c-0.02,0 -0.23,0.1 -0.23,0.1 0,0 0.22,0.03 0.31,0.01 0.09,-0.01 0.32,0.01 0.32,0.01l-0.05 -0.14c0,0 -0.32,0.01 -0.34,0.01z"/></g><g id="change7_6"><path fill="#008fd7" d="M21.99 3.24c0.04,0 0.14,0.1 0.25,0.12 0.11,0.03 0.18,-0.11 0.18,-0.11l-0.16 -0.15 -0.32 0.01 -0.14 0.1c0,0 0.16,0.03 0.2,0.03z"/></g><g id="change7_7"><path fill="#008fd7" d="M22.89 2.98l-0.04 0.12 0.25 0 0.04 -0.15c0,0 -0.27,0.06 -0.25,0.03z"/></g><g id="change7_8"><path fill="#008fd7" d="M21.52 3.43c0.09,0 0.27,0.06 0.27,0.06l-0.13 0.12 -0.18 -0.07 -0.18 -0.03 0.22 -0.08z"/></g><g id="change7_9"><path fill="#008fd7" d="M21.05 2.92c-0.11,0 -0.11,0.08 -0.11,0.08l0.22 0 0 -0.1 -0.11 0.01z"/></g><g id="change7_10"><path fill="#008fd7" d="M20.18 3.39c0,0 -0.14,0.12 -0.04,0.15 0.11,0.03 0.25,-0.03 0.25,-0.03l-0.05 -0.12 -0.16 0z"/></g><g id="change8_1"><path fill="#fefefe" d="M18.57 8.49c-0.1,-0.02 -0.2,-0.04 -0.22,0.08 -0.02,0.12 -0.06,0.18 0.04,0.24 0.1,0.06 0.2,-0.02 0.2,-0.02l0.04 -0.14 -0.06 -0.16z"/></g><g id="change8_2"><path fill="#fefefe" d="M13.54 10.22c-0.1,-0.02 -0.2,-0.04 -0.22,0.08 -0.02,0.12 -0.06,0.18 0.04,0.24 0.1,0.06 0.2,-0.02 0.2,-0.02l0.04 -0.14 -0.06 -0.16z"/></g><g id="change8_3"><path fill="#fefefe" d="M19.69 6.79c-0.1,-0.02 -0.2,-0.04 -0.22,0.08 -0.02,0.12 -0.06,0.18 0.04,0.24 0.1,0.06 0.2,-0.02 0.2,-0.02l0.04 -0.14 -0.06 -0.16z"/></g><g id="change8_4"><path fill="#fefefe" d="M22.29 10.42c-0.15,-0.12 -0.31,-0.24 -0.45,-0.06 -0.14,0.19 -0.26,0.26 -0.14,0.45 0.12,0.19 0.36,0.14 0.36,0.14l0.19 -0.21 0.04 -0.33z"/></g><g id="change8_5"><path fill="#fefefe" d="M6.31 18.7c-0.2,0.04 -0.32,0.02 -0.26,0.16 0.06,0.14 0.22,0.22 0.22,0.22l0.12 -0.14 -0.08 -0.24z"/></g><g id="change8_6"><path fill="#fefefe" d="M8.09 18.13c-0.14,0.03 -0.22,0.01 -0.18,0.11 0.04,0.1 0.15,0.15 0.15,0.15l0.08 -0.1 -0.06 -0.17z"/></g><g id="change8_7"><path fill="#fefefe" d="M8.87 20.7c-0.19,0.04 -0.31,0.02 -0.25,0.16 0.06,0.14 0.21,0.21 0.21,0.21l0.12 -0.14 -0.08 -0.23z"/></g><g id="change4_21"><path fill="#fdd100" d="M28.47 11.83c-0.15,-0.03 -0.3,-0.06 -0.33,0.12 -0.03,0.18 -0.09,0.27 0.06,0.36 0.15,0.09 0.3,-0.03 0.3,-0.03l0.06 -0.21 -0.09 -0.24z"/></g><g id="change8_8"><path fill="#fefefe" d="M28.8 11.33c-0.1,-0.02 -0.2,-0.04 -0.22,0.08 -0.02,0.12 -0.06,0.18 0.04,0.24 0.1,0.06 0.2,-0.02 0.2,-0.02l0.04 -0.14 -0.06 -0.16z"/></g><g id="change4_22"><path fill="#fdd100" d="M29.2 11.78c-0.15,-0.12 -0.27,-0.03 -0.27,-0.03 0,0 -0.06,0.27 0.12,0.27 0.18,0 0.3,-0.09 0.3,-0.09l-0.15 -0.15z"/></g><g id="change4_23"><path fill="#fdd100" d="M32.27 14.32c-0.24,0.12 -0.42,0.18 -0.21,0.33 0.21,0.15 0.33,0.3 0.42,0.12 0.09,-0.18 0.03,-0.3 0.03,-0.3l-0.24 -0.15z"/></g><g id="change4_24"><path fill="#fdd100" d="M33.27 12.93c-0.21,-0.06 -0.48,-0.15 -0.54,0.06 -0.06,0.21 -0.06,0.36 0.12,0.45 0.18,0.09 0.42,0 0.42,0 0,0 0.21,-0.06 0.18,-0.21 -0.03,-0.15 -0.18,-0.3 -0.18,-0.3z"/></g><g id="change8_9"><path fill="#fefefe" d="M33.4 13.82c-0.15,-0.12 -0.31,-0.24 -0.45,-0.06 -0.14,0.19 -0.26,0.26 -0.14,0.45 0.12,0.19 0.36,0.14 0.36,0.14l0.19 -0.21 0.04 -0.33z"/></g><g id="change8_10"><path fill="#fefefe" d="M28.72 13.52c-0.1,-0.02 -0.2,-0.04 -0.22,0.08 -0.02,0.12 -0.06,0.18 0.04,0.24 0.1,0.06 0.2,-0.02 0.2,-0.02l0.04 -0.14 -0.06 -0.16z"/></g><g id="change4_25"><path fill="#fdd100" d="M31.46 11.57c0,0 0.04,-0.16 -0.08,-0.22 -0.12,-0.06 -0.18,-0.14 -0.28,-0.02 -0.1,0.12 -0.26,0.3 -0.14,0.4 0.12,0.1 0.28,0.16 0.38,0.16 0.1,0 0.22,-0.02 0.22,-0.12 0,-0.1 -0.1,-0.2 -0.1,-0.2z"/></g><path fill="none" stroke-width="0.06" stroke-miterlimit="2.613" d="M23.93 24.53c0,0 -0.06,1.17 -0.15,1.51 -0.08,0.34 -0.13,0.87 -0.15,1.14 -0.02,0.28 -0.04,0.47 -0.1,0.69 -0.06,0.23 -0.04,0.45 -0.07,0.71 -0.03,0.26 -0.06,0.51 -0.08,0.77 -0.02,0.26 -0.06,0.4 -0.11,0.59 -0.05,0.19 -0.37,3.71 -0.37,3.71" stroke-linecap="round" stroke="#acce22"/><path fill="url(#q)" d="M24.17 23.6c0.05,-0.02 -0.02,0.15 -0,0.27 0.02,0.12 0.04,0.14 0.01,0.28 -0.03,0.14 -0.03,0.13 -0.1,0.25 -0.07,0.12 -0.14,0.19 -0.14,0.19 0,0 -0.02,0.04 -0.06,-0.12 -0.04,-0.17 -0.14,-0.16 -0.05,-0.36 0.1,-0.19 0.18,-0.26 0.18,-0.26l0.16 -0.25z"/><path fill="none" stroke-width="0.06" stroke-miterlimit="2.613" d="M31.89 24.6c0,0 -0.37,1.11 -0.42,1.46 -0.05,0.35 -0.2,0.85 -0.29,1.12 -0.09,0.26 -0.14,0.45 -0.17,0.68 -0.03,0.23 -0.13,0.43 -0.2,0.69 -0.07,0.25 -0.13,0.49 -0.22,0.74 -0.08,0.25 -0.09,0.4 -0.11,0.59 -0.02,0.19 -1.03,3.59 -1.03,3.59" stroke-linecap="round" stroke="#acce22"/><g id="change1_9"><path fill="#9aa780" d="M32.01 23.65c-0.04,-0.03 -0.04,0.15 -0.1,0.25 -0.06,0.11 -0.09,0.11 -0.11,0.26 -0.02,0.14 -0.02,0.13 0,0.27 0.02,0.14 0.06,0.23 0.06,0.23 0,0 0,0.05 0.1,-0.09 0.1,-0.14 0.19,-0.1 0.18,-0.32 -0.02,-0.22 -0.07,-0.31 -0.07,-0.31l-0.06 -0.3z"/></g><path fill="none" stroke-width="0.06" stroke-miterlimit="2.613" d="M33.35 23.47c0,0 -0.37,1.11 -0.42,1.46 -0.05,0.35 -0.2,0.85 -0.29,1.12 -0.09,0.26 -0.14,0.45 -0.17,0.68 -0.03,0.23 -0.13,0.43 -0.2,0.69 -0.07,0.25 -0.13,0.49 -0.22,0.74 -0.08,0.25 -0.09,0.4 -0.11,0.59 -0.02,0.19 -1.03,3.59 -1.03,3.59" stroke-linecap="round" stroke="#acce22"/><g id="change1_10"><path fill="#9aa780" d="M33.47 22.51c-0.04,-0.03 -0.04,0.15 -0.1,0.25 -0.06,0.11 -0.09,0.11 -0.11,0.26 -0.02,0.14 -0.02,0.13 0,0.27 0.02,0.14 0.06,0.23 0.06,0.23 0,0 0,0.05 0.1,-0.09 0.1,-0.14 0.19,-0.1 0.18,-0.32 -0.02,-0.22 -0.07,-0.31 -0.07,-0.31l-0.06 -0.3z"/></g><path fill="none" stroke-width="0.06" stroke-miterlimit="2.613" d="M28.45 22.14c0,0 -0.15,1.16 -0.27,1.5 -0.11,0.34 -0.2,0.85 -0.24,1.13 -0.04,0.28 -0.08,0.46 -0.15,0.68 -0.07,0.22 -0.07,0.45 -0.12,0.7 -0.05,0.26 -0.1,0.5 -0.14,0.76 -0.04,0.26 -0.09,0.4 -0.16,0.58 -0.07,0.18 -0.66,3.67 -0.66,3.67" stroke-linecap="round" stroke="#acce22"/><path fill="url(#a)" d="M28.76 21.24c0.05,-0.01 -0.03,0.15 -0.02,0.27 0.01,0.12 0.03,0.14 -0.01,0.28 -0.04,0.14 -0.04,0.13 -0.12,0.24 -0.08,0.12 -0.15,0.18 -0.15,0.18 0,0 -0.02,0.04 -0.05,-0.13 -0.03,-0.17 -0.13,-0.17 -0.02,-0.36 0.11,-0.19 0.2,-0.24 0.2,-0.24l0.18 -0.24z"/><path fill="none" stroke-width="0.06" stroke-miterlimit="2.613" d="M15.25 21.48c0,0 -0.01,1.17 0.05,1.52 0.06,0.35 0.07,0.87 0.07,1.15 -0,0.28 0.01,0.47 0.05,0.7 0.04,0.23 0.01,0.45 0.02,0.72 0.01,0.26 0.03,0.51 0.02,0.77 -0,0.26 0.04,0.41 0.07,0.6 0.04,0.19 0.13,3.73 0.13,3.73" stroke-linecap="round" stroke="#acce22"/><g id="change1_11"><path fill="#9aa780" d="M15.07 20.54c-0.04,-0.02 0.01,0.15 -0.02,0.27 -0.02,0.12 -0.05,0.13 -0.03,0.28 0.02,0.15 0.02,0.13 0.09,0.26 0.07,0.13 0.13,0.2 0.13,0.2 0,0 0.02,0.04 0.07,-0.12 0.05,-0.16 0.15,-0.15 0.07,-0.35 -0.08,-0.2 -0.16,-0.27 -0.16,-0.27l-0.15 -0.26z"/></g><path fill="none" stroke-width="0.06" stroke-miterlimit="2.613" d="M11.24 22.91c0,0 -0.06,1.17 -0.15,1.51 -0.08,0.34 -0.13,0.87 -0.15,1.14 -0.02,0.28 -0.04,0.47 -0.1,0.69 -0.06,0.23 -0.04,0.45 -0.07,0.71 -0.03,0.26 -0.06,0.51 -0.08,0.77 -0.02,0.26 -0.06,0.4 -0.11,0.59 -0.05,0.19 -0.37,3.71 -0.37,3.71" stroke-linecap="round" stroke="#acce22"/><path fill="url(#l)" d="M11.48 21.98c0.05,-0.02 -0.02,0.15 -0,0.27 0.02,0.12 0.04,0.14 0.01,0.28 -0.03,0.14 -0.03,0.13 -0.1,0.25 -0.07,0.12 -0.14,0.19 -0.14,0.19 0,0 -0.02,0.04 -0.06,-0.12 -0.04,-0.17 -0.14,-0.16 -0.05,-0.36 0.1,-0.19 0.18,-0.26 0.18,-0.26l0.16 -0.25z"/><path fill="none" stroke-width="0.06" stroke-miterlimit="2.613" d="M19.49 25c0,0 0.16,1.16 0.14,1.51 -0.02,0.35 0.03,0.88 0.07,1.15 0.03,0.28 0.05,0.47 0.04,0.7 -0.01,0.24 0.05,0.45 0.07,0.71 0.02,0.26 0.04,0.51 0.07,0.77 0.03,0.26 0.01,0.41 -0,0.6 -0.02,0.19 0.33,3.72 0.33,3.72" stroke-linecap="round" stroke="#acce22"/><path fill="url(#r)" d="M19.55 24.04c0.04,-0.03 0.01,0.15 0.05,0.27 0.04,0.11 0.07,0.13 0.06,0.27 -0,0.15 -0.01,0.13 -0.05,0.27 -0.05,0.14 -0.1,0.21 -0.1,0.21 0,0 -0.01,0.04 -0.08,-0.11 -0.07,-0.16 -0.17,-0.13 -0.11,-0.34 0.06,-0.21 0.13,-0.29 0.13,-0.29l0.11 -0.28z"/><g id="change4_26"><path fill="#fdd100" d="M35.47 13.08c-0.08,-0.18 -0.33,0.03 -0.33,0.03 0,0 -0.06,0.27 0.12,0.27 0.18,0 0.3,-0.09 0.3,-0.09l-0.09 -0.21z"/></g><g id="change8_11"><path fill="#fefefe" d="M34.81 12.39c-0.1,-0.02 -0.2,-0.04 -0.22,0.08 -0.02,0.12 -0.06,0.18 0.04,0.24 0.1,0.06 0.2,-0.02 0.2,-0.02l0.04 -0.14 -0.06 -0.16z"/></g></g></g></svg>