<?xml version="1.0" encoding="UTF-8" standalone="no"?><svg xmlns="http://www.w3.org/2000/svg" xmlns:xlink="http://www.w3.org/1999/xlink" contentScriptType="text/ecmascript" fill="#000000" width="1520" zoomAndPan="magnify" contentStyleType="text/css" viewBox="-8.5 -5.6 1520.0 1341.0" height="1341" preserveAspectRatio="xMidYMid meet" version="1"><defs><clipPath id="a"><path d="M 837 878 L 1165 878 L 1165 1327.261719 L 837 1327.261719 Z M 837 878"/></clipPath><clipPath id="b"><path d="M 1054 1154 L 1165 1154 L 1165 1327.261719 L 1054 1327.261719 Z M 1054 1154"/></clipPath></defs><g><g id="change1_1"><path fill="#7dcb29" d="M 778.628906 632.679688 C 765.257812 576.296875 812.851562 568.902344 869.4375 556.417969 C 936.53125 541.617188 1023.371094 466.671875 1074.351562 431.039062 C 1074.351562 431.039062 1385.5 214.300781 1413.53125 221.710938 C 1441.558594 229.121094 1367.210938 401.488281 1288.890625 476.867188 C 1220.910156 542.300781 819.550781 805.199219 778.628906 632.679688"/></g><g id="change2_3"><path fill="#1c1a19" d="M 781.382812 632.023438 C 787.734375 658.804688 803.578125 676.09375 828.476562 683.410156 C 892.15625 702.125 1000.691406 655.171875 1080.53125 612.488281 C 1177.800781 560.480469 1261.199219 499.601562 1286.929688 474.828125 C 1356.429688 407.933594 1424.449219 260.96875 1416.101562 228.78125 C 1415.128906 225.058594 1413.378906 224.601562 1412.808594 224.441406 C 1407.898438 223.160156 1380.761719 230.449219 1234.988281 325.960938 C 1154.660156 378.585938 1076.738281 432.820312 1075.960938 433.359375 C 1065.058594 440.980469 1052.308594 450.558594 1038.808594 460.699219 C 987.363281 499.339844 923.335938 547.425781 870.050781 559.179688 C 867.335938 559.777344 864.644531 560.363281 861.980469 560.945312 C 826.90625 568.589844 796.613281 575.195312 784.707031 594.113281 C 778.6875 603.679688 777.597656 616.082031 781.382812 632.023438 Z M 860.507812 693.183594 C 848.273438 693.183594 836.992188 691.808594 826.882812 688.835938 C 799.894531 680.90625 782.734375 662.230469 775.878906 633.328125 C 771.726562 615.832031 773.050781 602.019531 779.917969 591.101562 C 793.089844 570.171875 824.457031 563.335938 860.777344 555.417969 C 863.4375 554.839844 866.121094 554.253906 868.828125 553.65625 C 920.917969 542.164062 984.402344 494.484375 1035.410156 456.175781 C 1048.949219 446.003906 1061.738281 436.398438 1072.730469 428.722656 C 1073.511719 428.175781 1151.480469 373.902344 1231.878906 321.230469 C 1395.519531 214.019531 1409.621094 217.75 1414.25 218.980469 C 1416.769531 219.640625 1420.089844 221.640625 1421.570312 227.359375 C 1430.421875 261.46875 1363.019531 409.441406 1290.851562 478.90625 C 1236.828125 530.90625 993.195312 693.183594 860.507812 693.183594"/></g><g id="change1_2"><path fill="#7dcb29" d="M 752.273438 625.796875 C 751.695312 567.851562 799.75 571.164062 857.695312 571.496094 C 926.398438 571.890625 1027.648438 517.992188 1085.25 494.511719 C 1085.25 494.511719 1436.609375 351.910156 1462.308594 365.332031 C 1488.011719 378.753906 1377.398438 530.425781 1284.359375 586.628906 C 1203.601562 635.414062 754.050781 803.097656 752.273438 625.796875"/></g><g id="change2_4"><path fill="#1c1a19" d="M 835.316406 574.183594 C 805.507812 574.183594 780.410156 575.824219 766.726562 589.53125 C 758.742188 597.53125 754.941406 609.382812 755.105469 625.769531 C 755.378906 653.289062 767.011719 673.652344 789.675781 686.289062 C 847.652344 718.617188 963.875 696.816406 1051.171875 672.835938 C 1157.53125 643.617188 1252.320312 602.675781 1282.898438 584.207031 C 1365.460938 534.328125 1464.28125 406.035156 1463.25 372.796875 C 1463.128906 368.949219 1461.53125 368.113281 1461 367.839844 C 1456.511719 365.480469 1428.429688 366.609375 1265.128906 427.539062 C 1175.160156 461.109375 1087.191406 496.777344 1086.308594 497.132812 C 1074 502.152344 1059.441406 508.675781 1044.03125 515.582031 C 985.597656 541.769531 912.941406 574.324219 858.460938 574.328125 C 858.195312 574.328125 857.941406 574.328125 857.679688 574.324219 C 854.902344 574.308594 852.148438 574.285156 849.421875 574.265625 C 844.625 574.222656 839.914062 574.183594 835.316406 574.183594 Z M 871.171875 708.03125 C 837.363281 708.03125 808.152344 703.070312 786.921875 691.230469 C 762.351562 677.53125 749.746094 655.527344 749.449219 625.824219 C 749.269531 607.84375 753.609375 594.664062 762.722656 585.535156 C 780.191406 568.03125 812.300781 568.296875 849.46875 568.609375 C 852.191406 568.628906 854.9375 568.652344 857.710938 568.667969 C 857.960938 568.671875 858.214844 568.671875 858.464844 568.671875 C 911.734375 568.671875 983.773438 536.386719 1041.71875 510.421875 C 1057.171875 503.492188 1071.769531 496.953125 1084.179688 491.894531 C 1085.058594 491.535156 1173.101562 455.835938 1263.148438 422.238281 C 1446.441406 353.855469 1459.371094 360.605469 1463.621094 362.824219 C 1465.929688 364.03125 1468.71875 366.710938 1468.910156 372.621094 C 1470 407.839844 1371.558594 537.253906 1285.820312 589.050781 C 1229.359375 623.152344 1011.011719 708.027344 871.171875 708.03125"/></g><g id="change1_3"><path fill="#7dcb29" d="M 646.523438 733.40625 C 598.226562 774.621094 547.53125 787.457031 509.976562 790.277344 C 457.984375 794.1875 419.941406 780.363281 418.351562 779.773438 L 428.394531 752.644531 L 423.371094 766.207031 L 428.367188 752.632812 C 428.707031 752.757812 463.027344 765.050781 509.003906 761.335938 C 569.878906 756.417969 621.769531 727.074219 663.210938 674.117188 L 685.996094 691.945312 C 673.25 708.234375 659.976562 721.925781 646.523438 733.40625"/></g><g id="change2_5"><path fill="#1c1a19" d="M 422.007812 778.039062 C 431.578125 781.152344 465.480469 790.796875 509.765625 787.460938 C 544.3125 784.863281 595.765625 773.003906 644.6875 731.253906 C 657.910156 719.96875 670.460938 706.914062 682.015625 692.425781 L 663.683594 678.082031 C 622.027344 730.289062 570.082031 759.238281 509.230469 764.15625 C 469.9375 767.332031 439.148438 759 430.101562 756.179688 Z M 491.402344 793.800781 C 448.582031 793.800781 418.78125 782.949219 417.367188 782.425781 L 414.714844 781.441406 L 426.6875 749.003906 L 429.34375 749.976562 C 429.675781 750.097656 463.582031 762.164062 508.777344 758.519531 C 568.839844 753.664062 620.050781 724.683594 660.984375 672.375 L 662.726562 670.148438 L 689.964844 691.464844 L 688.222656 693.691406 C 675.953125 709.367188 662.539062 723.453125 648.355469 735.554688 C 598.273438 778.296875 545.578125 790.441406 510.1875 793.101562 C 503.699219 793.589844 497.417969 793.800781 491.402344 793.800781"/></g><g id="change1_4"><path fill="#7dcb29" d="M 412.386719 699.390625 C 406.449219 688.207031 400.921875 665.539062 385.050781 672.4375 C 366.773438 680.378906 389.640625 711.078125 389.640625 711.078125 C 389.640625 711.078125 346.746094 684.421875 325.601562 685.691406 C 310.429688 686.605469 311.601562 704.476562 321.246094 708.453125 C 329.410156 711.820312 332.175781 711.257812 344.136719 716.648438 C 351.183594 719.824219 356.691406 722.945312 360.046875 724.984375 C 350.175781 720.472656 322.792969 711.382812 309.292969 711.605469 C 293.761719 711.859375 290.773438 732.601562 302.882812 735.652344 C 314.519531 738.585938 340.023438 741.667969 351.457031 747.480469 C 343.175781 744.648438 314.535156 739.863281 302.136719 746.820312 C 291.503906 752.785156 300.027344 768.359375 308.183594 769.726562 C 312.84375 770.511719 348.621094 768.144531 349.320312 770.644531 C 349.320312 770.644531 315.304688 774.285156 317.628906 787.140625 C 319.953125 799.996094 333.453125 798.699219 333.453125 798.699219 C 333.453125 798.699219 351.394531 792.242188 364.125 794.289062 C 376.855469 796.335938 394.292969 801.386719 407.839844 795.539062 C 421.628906 789.589844 448.054688 764.109375 436.914062 734.773438 C 433.550781 725.917969 420.371094 714.425781 412.386719 699.390625"/></g><g id="change2_6"><path fill="#1c1a19" d="M 337.832031 766.640625 C 349.929688 766.640625 351.378906 767.503906 352.046875 769.882812 L 352.941406 773.097656 L 349.621094 773.453125 C 343.289062 774.136719 325.851562 777.238281 321.285156 783.34375 C 320.476562 784.421875 320.199219 785.46875 320.410156 786.636719 C 322.089844 795.914062 330.828125 796.003906 332.875 795.90625 C 335.652344 794.945312 352.171875 789.507812 364.574219 791.496094 C 366.789062 791.851562 369.144531 792.296875 371.597656 792.761719 C 383.175781 794.957031 396.296875 797.441406 406.71875 792.941406 C 419.175781 787.566406 444.792969 763.480469 434.269531 735.777344 C 432.785156 731.871094 428.945312 727.09375 424.496094 721.566406 C 419.621094 715.507812 414.097656 708.640625 409.890625 700.714844 C 408.714844 698.503906 407.589844 695.933594 406.394531 693.214844 C 400.574219 679.949219 395.71875 670.882812 386.175781 675.03125 C 383.472656 676.203125 381.835938 678.003906 381.160156 680.523438 C 378.839844 689.222656 388.132812 704.3125 391.910156 709.390625 L 400.789062 721.339844 L 388.148438 713.484375 C 387.726562 713.222656 345.804688 687.316406 325.769531 688.515625 C 319.09375 688.914062 317.433594 692.957031 317.035156 695.328125 C 316.304688 699.695312 318.628906 704.3125 322.324219 705.839844 C 325.601562 707.1875 327.988281 707.886719 330.519531 708.625 C 334.101562 709.667969 338.160156 710.855469 345.296875 714.070312 C 352.445312 717.289062 358.0625 720.46875 361.515625 722.566406 L 358.871094 727.554688 C 348.617188 722.867188 322.441406 714.429688 309.785156 714.429688 C 309.636719 714.429688 309.488281 714.429688 309.339844 714.433594 C 302.496094 714.546875 298.878906 719.410156 298.324219 724.179688 C 297.941406 727.5 299.085938 731.777344 303.574219 732.910156 C 307.121094 733.804688 312.171875 734.746094 317.515625 735.742188 C 330.171875 738.101562 344.515625 740.777344 352.738281 744.960938 L 350.542969 750.15625 C 341.785156 747.160156 314.460938 743.152344 303.519531 749.289062 C 300.691406 750.875 299.554688 753.390625 300.140625 756.769531 C 300.960938 761.480469 305.019531 766.328125 308.652344 766.9375 C 310.125 767.183594 316.921875 767.023438 322.914062 766.875 C 329.152344 766.722656 334.019531 766.640625 337.832031 766.640625 Z M 332.148438 801.585938 C 326.285156 801.585938 316.859375 798.773438 314.84375 787.644531 C 314.355469 784.9375 315.015625 782.277344 316.757812 779.949219 C 319.21875 776.664062 323.738281 774.210938 328.636719 772.402344 C 326.644531 772.441406 324.734375 772.488281 323.054688 772.53125 C 314.539062 772.734375 309.628906 772.835938 307.714844 772.515625 C 301.710938 771.507812 295.8125 764.878906 294.566406 757.742188 C 293.570312 751.996094 295.820312 747.117188 300.753906 744.351562 C 304.203125 742.417969 308.765625 741.316406 313.785156 740.800781 C 309.367188 739.96875 305.292969 739.175781 302.191406 738.398438 C 295.679688 736.753906 291.867188 730.78125 292.707031 723.527344 C 293.515625 716.542969 299.035156 708.945312 309.246094 708.777344 C 311.574219 708.757812 314.285156 708.964844 317.246094 709.386719 C 312.898438 706.09375 310.492188 700.179688 311.457031 694.398438 C 312.585938 687.636719 317.8125 683.328125 325.429688 682.867188 C 341.03125 681.917969 367.003906 694.972656 381.195312 702.878906 C 377.445312 695.859375 373.734375 686.425781 375.695312 679.070312 C 376.824219 674.828125 379.59375 671.726562 383.921875 669.84375 C 399.371094 663.136719 406.714844 679.867188 411.574219 690.941406 C 412.722656 693.5625 413.808594 696.039062 414.886719 698.0625 C 418.839844 705.515625 424.1875 712.160156 428.902344 718.023438 C 433.652344 723.925781 437.753906 729.023438 439.558594 733.769531 C 451.210938 764.449219 424.9375 791.242188 408.960938 798.132812 C 396.949219 803.320312 382.308594 800.546875 370.546875 798.320312 C 368.144531 797.867188 365.84375 797.429688 363.675781 797.082031 C 351.804688 795.167969 334.582031 801.296875 334.410156 801.359375 L 333.722656 801.515625 C 333.238281 801.5625 332.707031 801.585938 332.148438 801.585938"/></g><g id="change3_1"><path fill="#83c927" d="M 892.625 632.902344 C 950.996094 705.441406 950.257812 802.917969 890.976562 850.621094 C 831.691406 898.324219 736.316406 878.191406 677.945312 805.652344 C 619.574219 733.113281 620.3125 635.636719 679.59375 587.933594 C 738.878906 540.230469 834.253906 560.363281 892.625 632.902344"/></g><g id="change2_7"><path fill="#1c1a19" d="M 755.664062 564.855469 C 727.757812 564.855469 702.070312 573.476562 681.367188 590.136719 C 623.394531 636.785156 622.847656 732.671875 680.148438 803.878906 C 707.972656 838.457031 745.101562 862.101562 784.703125 870.460938 C 824.09375 878.78125 861.207031 870.949219 889.203125 848.417969 C 947.175781 801.765625 947.722656 705.882812 890.421875 634.675781 C 862.601562 600.097656 825.46875 576.453125 785.867188 568.09375 C 775.605469 565.925781 765.496094 564.855469 755.664062 564.855469 Z M 814.9375 879.355469 C 804.707031 879.355469 794.199219 878.246094 783.535156 875.996094 C 742.660156 867.367188 704.378906 843.015625 675.742188 807.425781 C 616.484375 733.785156 617.421875 634.335938 677.820312 585.730469 C 707.167969 562.113281 745.953125 553.882812 787.035156 562.558594 C 827.910156 571.1875 866.191406 595.539062 894.828125 631.128906 C 954.085938 704.765625 953.152344 804.21875 892.746094 852.824219 C 871.019531 870.308594 844.117188 879.355469 814.9375 879.355469"/></g><g id="change1_5"><path fill="#7dcb29" d="M 909.550781 1118.660156 C 905.226562 1117.058594 904.113281 1111.46875 907.527344 1108.371094 C 938.996094 1079.808594 1055.191406 967.097656 1009.921875 897.914062 C 962.769531 825.851562 869.167969 1012.121094 841.429688 1106.558594 C 837.140625 1121.171875 845.296875 1136.53125 859.742188 1141.328125 L 1057.410156 1206.980469 C 1057.410156 1206.980469 1098.75 1335.351562 1140.070312 1323.699219 C 1181.390625 1312.050781 1153.269531 1177.648438 1137.421875 1165.230469 C 1121.570312 1152.808594 1083.121094 1152.691406 1065.289062 1176.128906 L 909.550781 1118.660156"/></g><g id="change2_1" clip-path="url(#a)"><path fill="#1c1a19" d="M 984.925781 884.546875 C 983.75 884.546875 982.554688 884.636719 981.335938 884.816406 C 936.191406 891.496094 868.863281 1023.191406 844.144531 1107.359375 C 840.273438 1120.550781 847.515625 1134.289062 860.632812 1138.640625 L 1059.660156 1204.75 L 1060.101562 1206.109375 C 1071.371094 1241.101562 1107.609375 1329.941406 1139.300781 1320.980469 C 1147.851562 1318.570312 1153.679688 1309.761719 1156.628906 1294.78125 C 1165.058594 1252.101562 1146.648438 1176.058594 1135.679688 1167.460938 C 1127.871094 1161.339844 1114.058594 1158.519531 1100.46875 1160.261719 C 1086.488281 1162.058594 1074.800781 1168.300781 1067.539062 1177.839844 L 1066.28125 1179.511719 L 908.570312 1121.308594 C 905.597656 1120.21875 903.460938 1117.699219 902.855469 1114.589844 C 902.257812 1111.5 903.292969 1108.390625 905.628906 1106.269531 C 920.425781 1092.851562 957.792969 1057.25 985.160156 1016.789062 C 1018.609375 967.34375 1026.140625 927.867188 1007.558594 899.464844 C 1001.011719 889.457031 993.574219 884.546875 984.925781 884.546875 Z M 1134.800781 1327.261719 C 1095.558594 1327.269531 1059.78125 1223.179688 1055.160156 1209.210938 L 858.851562 1144.011719 C 842.824219 1138.691406 833.980469 1121.890625 838.71875 1105.769531 C 860.742188 1030.769531 928.851562 886.863281 980.507812 879.222656 C 992.945312 877.378906 1003.640625 883.148438 1012.289062 896.367188 C 1058.300781 966.671875 945.191406 1078.011719 909.429688 1110.460938 C 908.558594 1111.25 908.183594 1112.371094 908.410156 1113.519531 C 908.636719 1114.691406 909.410156 1115.589844 910.53125 1116.011719 L 1064.359375 1172.769531 C 1072.578125 1162.949219 1085.058594 1156.539062 1099.75 1154.648438 C 1114.761719 1152.71875 1130.230469 1156 1139.171875 1163 C 1152.550781 1173.488281 1170.609375 1253.171875 1162.179688 1295.878906 C 1158.78125 1313.109375 1151.601562 1323.390625 1140.839844 1326.421875 C 1138.820312 1326.988281 1136.808594 1327.261719 1134.800781 1327.261719"/></g><g id="change1_6"><path fill="#7dcb29" d="M 1140.070312 1323.699219 C 1181.390625 1312.050781 1153.269531 1177.648438 1137.421875 1165.230469 C 1121.570312 1152.808594 1083.121094 1152.691406 1065.289062 1176.128906 C 1065.289062 1176.128906 1056.550781 1190.53125 1057.410156 1206.980469 C 1057.410156 1206.980469 1098.75 1335.351562 1140.070312 1323.699219"/></g><g id="change2_2" clip-path="url(#b)"><path fill="#1c1a19" d="M 1060.210938 1206.46875 C 1071.070312 1240.011719 1104.300781 1321.601562 1134.761719 1321.609375 C 1136.28125 1321.609375 1137.800781 1321.398438 1139.300781 1320.980469 C 1147.851562 1318.570312 1153.679688 1309.761719 1156.628906 1294.78125 C 1165.058594 1252.101562 1146.648438 1176.058594 1135.679688 1167.460938 C 1127.871094 1161.339844 1114.058594 1158.519531 1100.46875 1160.261719 C 1086.558594 1162.050781 1074.910156 1168.25 1067.640625 1177.710938 C 1066.851562 1179.070312 1059.589844 1192.019531 1060.210938 1206.46875 Z M 1134.800781 1327.261719 C 1093.671875 1327.261719 1056.359375 1212.941406 1054.710938 1207.851562 L 1054.601562 1207.488281 L 1054.578125 1207.128906 C 1053.691406 1190 1062.5 1175.28125 1062.871094 1174.660156 L 1063.039062 1174.421875 C 1071.21875 1163.660156 1084.261719 1156.648438 1099.75 1154.648438 C 1114.761719 1152.71875 1130.230469 1156 1139.171875 1163 C 1152.550781 1173.488281 1170.609375 1253.171875 1162.179688 1295.878906 C 1158.78125 1313.109375 1151.601562 1323.390625 1140.839844 1326.421875 C 1138.820312 1326.988281 1136.800781 1327.261719 1134.800781 1327.261719"/></g><g id="change4_1"><path fill="#f9b00b" d="M 719.488281 711.5625 C 719.488281 711.5625 801.425781 1074.320312 1205.871094 1053.421875 C 1205.871094 1053.421875 1379.800781 1036.03125 1420.261719 916.605469 C 1421.761719 912.183594 1420.320312 907.300781 1416.660156 904.410156 C 1391.359375 884.492188 1265.488281 840.808594 1134.550781 837.6875 C 983.582031 834.089844 757.855469 616.496094 719.488281 711.5625"/></g><g id="change2_8"><path fill="#1c1a19" d="M 722.453125 711.792969 C 724.773438 721.246094 747.113281 806.683594 813.355469 888.730469 C 877.757812 968.492188 998.085938 1061.328125 1205.71875 1050.601562 C 1206.019531 1050.570312 1249.351562 1046.058594 1296.980469 1027.121094 C 1340.660156 1009.75 1397.039062 976.320312 1417.578125 915.699219 C 1418.699219 912.410156 1417.621094 908.769531 1414.910156 906.632812 C 1391.628906 888.304688 1268.140625 843.703125 1134.480469 840.515625 C 1065.699219 838.875 981.5625 793.261719 907.324219 753.011719 C 838.941406 715.9375 774.347656 680.921875 741.507812 692.734375 C 732.800781 695.863281 726.5625 702.105469 722.453125 711.792969 Z M 1172.921875 1057.109375 C 1093.300781 1057.109375 1021.179688 1041.769531 958.019531 1011.371094 C 900.523438 983.695312 850.320312 943.570312 808.808594 892.101562 C 738.175781 804.523438 716.9375 713.097656 716.730469 712.183594 L 716.535156 711.320312 L 716.863281 710.503906 C 721.539062 698.921875 729.183594 691.152344 739.59375 687.410156 C 774.820312 674.75 837.476562 708.710938 910.019531 748.039062 C 983.695312 787.984375 1067.199219 833.253906 1134.621094 834.859375 C 1261.460938 837.882812 1390.441406 880.171875 1418.410156 902.1875 C 1423 905.804688 1424.820312 911.960938 1422.941406 917.515625 C 1406.121094 967.152344 1363.238281 1006.890625 1298.941406 1032.429688 C 1250.589844 1051.628906 1206.589844 1056.191406 1206.148438 1056.238281 C 1194.941406 1056.820312 1183.859375 1057.109375 1172.921875 1057.109375"/></g><g id="change5_1"><path fill="#f4f011" d="M 1360.328125 952.238281 C 1050.941406 1057.050781 853.601562 848.746094 835.105469 812.710938 C 825.425781 793.859375 775.273438 785.035156 759.625 798.507812 C 757.015625 800.75 757.019531 805.054688 758.636719 810.460938 C 768.230469 828.648438 779.921875 848.164062 794.042969 867.953125 C 796.097656 870.832031 798.183594 873.6875 800.296875 876.519531 C 800.398438 876.652344 800.496094 876.78125 800.59375 876.914062 C 809.546875 888.867188 819.058594 900.402344 829.117188 911.4375 C 829.15625 911.480469 829.199219 911.527344 829.238281 911.570312 C 831.703125 914.273438 834.203125 916.945312 836.730469 919.585938 C 836.847656 919.707031 836.964844 919.824219 837.078125 919.945312 C 839.546875 922.519531 842.046875 925.0625 844.574219 927.574219 C 844.742188 927.738281 844.914062 927.90625 845.085938 928.070312 C 847.589844 930.554688 850.125 933.007812 852.691406 935.425781 C 852.820312 935.546875 852.949219 935.664062 853.074219 935.78125 C 902.699219 982.453125 962.992188 1016.191406 1028.308594 1035.019531 C 1028.511719 1035.078125 1028.71875 1035.140625 1028.929688 1035.199219 C 1032.921875 1036.351562 1036.929688 1037.429688 1040.960938 1038.460938 C 1041.75 1038.660156 1042.550781 1038.859375 1043.351562 1039.058594 C 1045.628906 1039.640625 1047.910156 1040.191406 1050.199219 1040.730469 C 1051 1040.921875 1051.789062 1041.109375 1052.589844 1041.289062 C 1055.628906 1041.988281 1058.671875 1042.660156 1061.71875 1043.289062 C 1062.070312 1043.371094 1062.429688 1043.441406 1062.78125 1043.511719 C 1065.539062 1044.078125 1068.300781 1044.621094 1071.070312 1045.140625 C 1071.820312 1045.289062 1072.570312 1045.421875 1073.320312 1045.558594 C 1075.941406 1046.039062 1078.558594 1046.5 1081.191406 1046.941406 C 1081.710938 1047.03125 1082.21875 1047.121094 1082.75 1047.199219 C 1089.289062 1048.28125 1095.851562 1049.21875 1102.429688 1050.039062 C 1102.699219 1050.070312 1102.96875 1050.101562 1103.230469 1050.140625 C 1106.269531 1050.511719 1109.308594 1050.859375 1112.351562 1051.179688 C 1112.738281 1051.21875 1113.128906 1051.261719 1113.519531 1051.300781 C 1116.710938 1051.628906 1119.898438 1051.929688 1123.101562 1052.210938 C 1123.171875 1052.210938 1123.238281 1052.21875 1123.308594 1052.230469 C 1133.378906 1053.078125 1143.480469 1053.660156 1153.589844 1053.980469 C 1154.160156 1054 1154.730469 1054.011719 1155.300781 1054.03125 C 1157.980469 1054.109375 1160.660156 1054.171875 1163.339844 1054.210938 C 1164.148438 1054.21875 1164.949219 1054.230469 1165.75 1054.238281 C 1168.21875 1054.269531 1170.691406 1054.28125 1173.160156 1054.28125 C 1174.078125 1054.28125 1174.988281 1054.28125 1175.910156 1054.269531 C 1178.300781 1054.261719 1180.679688 1054.230469 1183.070312 1054.191406 C 1184.03125 1054.171875 1184.988281 1054.160156 1185.960938 1054.140625 C 1188.421875 1054.089844 1190.878906 1054.019531 1193.339844 1053.941406 C 1194.210938 1053.910156 1195.058594 1053.890625 1195.929688 1053.859375 C 1199.238281 1053.738281 1202.558594 1053.601562 1205.871094 1053.421875 C 1205.871094 1053.421875 1205.988281 1053.410156 1206.171875 1053.390625 C 1206.21875 1053.390625 1206.261719 1053.378906 1206.328125 1053.378906 C 1206.410156 1053.371094 1206.53125 1053.351562 1206.640625 1053.339844 C 1206.71875 1053.328125 1206.800781 1053.320312 1206.890625 1053.308594 C 1207.03125 1053.300781 1207.191406 1053.28125 1207.351562 1053.261719 C 1207.460938 1053.238281 1207.550781 1053.230469 1207.671875 1053.21875 C 1207.828125 1053.199219 1208.03125 1053.179688 1208.210938 1053.148438 C 1208.371094 1053.128906 1208.53125 1053.109375 1208.699219 1053.089844 C 1208.878906 1053.070312 1209.070312 1053.039062 1209.269531 1053.019531 C 1209.488281 1052.988281 1209.710938 1052.960938 1209.949219 1052.929688 C 1210.148438 1052.898438 1210.359375 1052.871094 1210.570312 1052.851562 C 1210.820312 1052.808594 1211.078125 1052.78125 1211.351562 1052.738281 C 1211.601562 1052.699219 1211.859375 1052.671875 1212.121094 1052.628906 C 1212.390625 1052.589844 1212.648438 1052.550781 1212.929688 1052.511719 C 1213.230469 1052.46875 1213.539062 1052.429688 1213.851562 1052.378906 C 1214.140625 1052.339844 1214.429688 1052.289062 1214.730469 1052.25 C 1215.058594 1052.199219 1215.390625 1052.148438 1215.730469 1052.101562 C 1216.050781 1052.050781 1216.378906 1051.988281 1216.710938 1051.941406 C 1217.070312 1051.878906 1217.429688 1051.828125 1217.808594 1051.769531 C 1218.148438 1051.710938 1218.5 1051.648438 1218.851562 1051.601562 C 1219.238281 1051.53125 1219.640625 1051.46875 1220.050781 1051.398438 C 1220.410156 1051.339844 1220.78125 1051.269531 1221.148438 1051.210938 C 1221.589844 1051.128906 1222.019531 1051.058594 1222.480469 1050.980469 C 1222.851562 1050.910156 1223.238281 1050.839844 1223.628906 1050.78125 C 1224.089844 1050.691406 1224.539062 1050.609375 1225.019531 1050.53125 C 1225.449219 1050.449219 1225.898438 1050.359375 1226.339844 1050.28125 C 1226.808594 1050.191406 1227.269531 1050.109375 1227.75 1050.019531 C 1228.199219 1049.929688 1228.671875 1049.839844 1229.128906 1049.75 C 1230.121094 1049.558594 1231.140625 1049.351562 1232.179688 1049.140625 C 1232.621094 1049.058594 1233.050781 1048.96875 1233.5 1048.878906 C 1234.058594 1048.761719 1234.640625 1048.640625 1235.210938 1048.519531 C 1235.691406 1048.421875 1236.148438 1048.320312 1236.640625 1048.21875 C 1237.199219 1048.101562 1237.789062 1047.96875 1238.359375 1047.839844 C 1238.871094 1047.730469 1239.378906 1047.621094 1239.898438 1047.5 C 1240.480469 1047.371094 1241.078125 1047.238281 1241.671875 1047.101562 C 1242.199219 1046.980469 1242.730469 1046.859375 1243.28125 1046.730469 C 1243.878906 1046.589844 1244.488281 1046.449219 1245.101562 1046.300781 C 1245.660156 1046.171875 1246.210938 1046.039062 1246.78125 1045.898438 C 1247.390625 1045.761719 1248.019531 1045.601562 1248.640625 1045.449219 C 1249.21875 1045.308594 1249.800781 1045.160156 1250.390625 1045.011719 C 1251.019531 1044.859375 1251.660156 1044.691406 1252.300781 1044.53125 C 1252.890625 1044.378906 1253.480469 1044.230469 1254.070312 1044.070312 C 1254.738281 1043.898438 1255.410156 1043.71875 1256.078125 1043.539062 C 1256.671875 1043.378906 1257.261719 1043.21875 1257.859375 1043.058594 C 1258.539062 1042.878906 1259.230469 1042.691406 1259.921875 1042.488281 C 1260.53125 1042.328125 1261.148438 1042.148438 1261.769531 1041.980469 C 1262.460938 1041.78125 1263.148438 1041.589844 1263.851562 1041.378906 C 1264.46875 1041.210938 1265.101562 1041.019531 1265.71875 1040.839844 C 1266.441406 1040.628906 1267.148438 1040.421875 1267.871094 1040.199219 C 1268.5 1040.011719 1269.128906 1039.820312 1269.761719 1039.628906 C 1270.488281 1039.410156 1271.21875 1039.179688 1271.960938 1038.949219 C 1272.589844 1038.761719 1273.21875 1038.550781 1273.859375 1038.351562 C 1274.609375 1038.109375 1275.359375 1037.878906 1276.109375 1037.628906 C 1276.75 1037.421875 1277.390625 1037.210938 1278.03125 1037 C 1278.789062 1036.75 1279.558594 1036.5 1280.328125 1036.238281 C 1280.949219 1036.03125 1281.578125 1035.808594 1282.199219 1035.589844 C 1283 1035.320312 1283.789062 1035.050781 1284.601562 1034.769531 C 1284.980469 1034.628906 1285.371094 1034.488281 1285.75 1034.351562 C 1287.640625 1033.679688 1289.550781 1032.980469 1291.46875 1032.269531 C 1292.011719 1032.058594 1292.550781 1031.871094 1293.089844 1031.660156 C 1293.910156 1031.351562 1294.738281 1031.03125 1295.558594 1030.699219 C 1296.199219 1030.460938 1296.828125 1030.21875 1297.46875 1029.960938 C 1298.28125 1029.640625 1299.089844 1029.308594 1299.910156 1028.980469 C 1300.558594 1028.71875 1301.21875 1028.449219 1301.878906 1028.179688 C 1302.679688 1027.851562 1303.480469 1027.511719 1304.28125 1027.179688 C 1304.960938 1026.890625 1305.648438 1026.601562 1306.328125 1026.308594 C 1307.121094 1025.96875 1307.910156 1025.621094 1308.699219 1025.28125 C 1309.390625 1024.96875 1310.089844 1024.671875 1310.78125 1024.359375 C 1311.570312 1024 1312.359375 1023.640625 1313.148438 1023.28125 C 1313.839844 1022.960938 1314.539062 1022.640625 1315.238281 1022.320312 C 1316.03125 1021.949219 1316.828125 1021.570312 1317.621094 1021.191406 C 1318.308594 1020.859375 1319 1020.53125 1319.691406 1020.199219 C 1320.488281 1019.808594 1321.289062 1019.410156 1322.078125 1019.019531 C 1322.769531 1018.679688 1323.460938 1018.328125 1324.148438 1017.980469 C 1324.949219 1017.570312 1325.738281 1017.171875 1326.539062 1016.75 C 1327.230469 1016.398438 1327.910156 1016.03125 1328.601562 1015.671875 C 1329.390625 1015.25 1330.191406 1014.828125 1330.980469 1014.398438 C 1331.660156 1014.019531 1332.351562 1013.640625 1333.03125 1013.261719 C 1333.820312 1012.828125 1334.609375 1012.390625 1335.398438 1011.941406 C 1336.078125 1011.558594 1336.761719 1011.160156 1337.441406 1010.761719 C 1338.230469 1010.308594 1339.019531 1009.859375 1339.800781 1009.390625 C 1340.46875 1008.988281 1341.140625 1008.589844 1341.800781 1008.179688 C 1342.589844 1007.699219 1343.378906 1007.230469 1344.171875 1006.738281 C 1344.820312 1006.328125 1345.46875 1005.921875 1346.121094 1005.5 C 1346.910156 1005 1347.710938 1004.5 1348.5 1003.988281 C 1349.121094 1003.578125 1349.730469 1003.171875 1350.351562 1002.761719 C 1351.160156 1002.21875 1351.96875 1001.691406 1352.78125 1001.140625 C 1353.058594 1000.949219 1353.328125 1000.75 1353.609375 1000.558594 C 1355.5 999.253906 1357.371094 997.917969 1359.230469 996.554688 C 1359.828125 996.113281 1360.429688 995.679688 1361.019531 995.234375 C 1361.761719 994.679688 1362.488281 994.105469 1363.21875 993.542969 C 1363.859375 993.050781 1364.5 992.5625 1365.140625 992.0625 C 1365.851562 991.496094 1366.558594 990.917969 1367.269531 990.34375 C 1367.898438 989.824219 1368.539062 989.3125 1369.179688 988.785156 C 1369.878906 988.203125 1370.570312 987.605469 1371.261719 987.011719 C 1371.890625 986.476562 1372.519531 985.945312 1373.128906 985.402344 C 1373.820312 984.800781 1374.5 984.1875 1375.179688 983.574219 C 1375.789062 983.019531 1376.410156 982.460938 1377.019531 981.898438 C 1377.679688 981.277344 1378.339844 980.652344 1379 980.023438 C 1379.609375 979.445312 1380.210938 978.867188 1380.808594 978.285156 C 1381.460938 977.644531 1382.101562 976.996094 1382.738281 976.347656 C 1383.328125 975.753906 1383.921875 975.15625 1384.5 974.554688 C 1385.128906 973.894531 1385.761719 973.234375 1386.378906 972.566406 C 1386.960938 971.945312 1387.53125 971.324219 1388.101562 970.699219 C 1388.710938 970.023438 1389.320312 969.34375 1389.921875 968.65625 C 1390.480469 968.019531 1391.03125 967.378906 1391.578125 966.730469 C 1392.171875 966.035156 1392.761719 965.335938 1393.339844 964.625 C 1393.890625 963.96875 1394.421875 963.300781 1394.949219 962.632812 C 1395.519531 961.917969 1396.089844 961.203125 1396.648438 960.476562 C 1397.171875 959.796875 1397.679688 959.105469 1398.199219 958.414062 C 1398.75 957.679688 1399.300781 956.945312 1399.828125 956.199219 C 1400.328125 955.5 1400.820312 954.785156 1401.308594 954.078125 C 1401.839844 953.320312 1402.371094 952.566406 1402.878906 951.796875 C 1403.371094 951.066406 1403.839844 950.320312 1404.320312 949.582031 C 1404.808594 948.8125 1405.308594 948.050781 1405.800781 947.273438 C 1406.28125 946.484375 1406.75 945.679688 1407.21875 944.882812 C 1407.671875 944.125 1408.128906 943.382812 1408.558594 942.613281 C 1409.441406 941.085938 1410.289062 939.53125 1411.109375 937.957031 C 1398.191406 940.4375 1381.449219 945.085938 1360.328125 952.238281"/></g><g id="change2_9"><path fill="#1c1a19" d="M 1205.859375 1050.578125 L 1206.441406 1053.359375 L 1206.121094 1050.550781 L 1206.359375 1050.53125 L 1206.890625 1053.308594 L 1206.589844 1050.5 L 1225.820312 1047.5 L 1228.601562 1046.96875 C 1229.570312 1046.78125 1230.578125 1046.578125 1231.621094 1046.371094 L 1249.699219 1042.269531 L 1273 1035.660156 L 1284.800781 1031.691406 C 1286.679688 1031.019531 1288.578125 1030.328125 1290.480469 1029.621094 L 1292.078125 1029.019531 C 1292.789062 1028.75 1293.5 1028.46875 1294.199219 1028.199219 L 1296.429688 1027.328125 C 1297.148438 1027.050781 1297.871094 1026.761719 1298.589844 1026.460938 L 1309.628906 1021.769531 L 1311.839844 1020.769531 C 1312.660156 1020.398438 1313.351562 1020.078125 1314.039062 1019.761719 C 1314.828125 1019.390625 1315.621094 1019.011719 1316.410156 1018.640625 L 1318.449219 1017.648438 C 1319.25 1017.269531 1320.039062 1016.878906 1320.828125 1016.480469 C 1321.5 1016.148438 1322.191406 1015.808594 1322.871094 1015.460938 C 1323.660156 1015.058594 1324.449219 1014.648438 1325.238281 1014.238281 C 1325.921875 1013.890625 1326.589844 1013.53125 1327.269531 1013.171875 C 1328.058594 1012.75 1328.839844 1012.339844 1329.628906 1011.910156 C 1330.308594 1011.539062 1330.988281 1011.171875 1331.660156 1010.789062 L 1331.96875 1010.621094 C 1332.648438 1010.238281 1333.328125 1009.871094 1334 1009.480469 C 1334.648438 1009.121094 1335.289062 1008.75 1335.929688 1008.371094 L 1336.398438 1008.101562 C 1337.050781 1007.71875 1337.699219 1007.351562 1338.351562 1006.960938 C 1338.898438 1006.628906 1339.441406 1006.300781 1339.988281 1005.96875 L 1340.808594 1005.46875 C 1341.429688 1005.101562 1342.058594 1004.71875 1342.679688 1004.339844 C 1343.148438 1004.039062 1343.621094 1003.738281 1344.101562 1003.441406 L 1345.101562 1002.800781 C 1345.71875 1002.410156 1346.339844 1002.019531 1346.949219 1001.621094 C 1347.378906 1001.339844 1347.808594 1001.050781 1348.238281 1000.769531 L 1349.449219 999.957031 C 1350.03125 999.574219 1350.609375 999.191406 1351.191406 998.800781 L 1352.011719 998.226562 C 1353.871094 996.941406 1355.71875 995.621094 1357.550781 994.273438 L 1358.148438 993.839844 C 1358.539062 993.550781 1358.929688 993.265625 1359.320312 992.972656 C 1359.859375 992.570312 1360.390625 992.160156 1360.921875 991.75 L 1362.128906 990.820312 C 1362.550781 990.496094 1362.96875 990.171875 1363.378906 989.84375 C 1363.898438 989.4375 1364.398438 989.027344 1364.910156 988.613281 L 1365.96875 987.757812 C 1366.429688 987.378906 1366.898438 986.996094 1367.371094 986.613281 C 1367.941406 986.136719 1368.511719 985.652344 1369.070312 985.164062 L 1369.769531 984.570312 C 1370.269531 984.144531 1370.769531 983.714844 1371.269531 983.277344 C 1371.890625 982.734375 1372.5 982.179688 1373.109375 981.625 L 1373.28125 981.472656 C 1373.890625 980.925781 1374.5 980.378906 1375.101562 979.824219 C 1375.75 979.21875 1376.398438 978.597656 1377.039062 977.984375 C 1377.648438 977.410156 1378.238281 976.839844 1378.828125 976.261719 C 1379.46875 975.636719 1380.101562 975 1380.730469 974.359375 C 1381.308594 973.773438 1381.890625 973.1875 1382.460938 972.589844 C 1383.078125 971.945312 1383.699219 971.296875 1384.308594 970.636719 C 1384.878906 970.027344 1385.441406 969.414062 1386 968.800781 C 1386.601562 968.136719 1387.199219 967.464844 1387.789062 966.789062 C 1388.339844 966.164062 1388.878906 965.535156 1389.421875 964.898438 C 1390.011719 964.214844 1390.589844 963.523438 1391.160156 962.828125 C 1391.691406 962.183594 1392.210938 961.53125 1392.730469 960.871094 C 1393.339844 960.113281 1393.878906 959.4375 1394.398438 958.753906 C 1394.871094 958.152344 1395.320312 957.542969 1395.769531 956.933594 L 1396.128906 956.453125 C 1396.601562 955.820312 1397.078125 955.1875 1397.539062 954.550781 C 1397.910156 954.019531 1398.28125 953.484375 1398.648438 952.949219 L 1399.371094 951.917969 C 1399.761719 951.355469 1400.148438 950.792969 1400.53125 950.226562 C 1400.878906 949.703125 1401.21875 949.167969 1401.570312 948.632812 L 1402.339844 947.429688 C 1402.691406 946.882812 1403.050781 946.339844 1403.390625 945.78125 C 1403.71875 945.246094 1404.050781 944.699219 1404.371094 944.148438 L 1405.261719 942.652344 C 1405.390625 942.429688 1405.53125 942.207031 1405.660156 941.980469 C 1393.539062 944.683594 1378.628906 949.023438 1361.238281 954.917969 C 1197.101562 1010.519531 1067.351562 976.324219 987.40625 937.839844 C 894.933594 893.324219 841.566406 831.488281 832.589844 814.003906 C 828.707031 806.445312 815.964844 799.558594 800.121094 796.464844 C 783.648438 793.246094 768.113281 794.929688 761.46875 800.648438 C 760.054688 801.867188 759.984375 804.96875 761.269531 809.390625 C 771.753906 829.238281 783.554688 848.386719 796.34375 866.308594 C 798.386719 869.171875 800.460938 872.007812 802.5625 874.824219 L 802.863281 875.230469 C 811.804688 887.164062 821.34375 898.710938 831.207031 909.53125 C 833.753906 912.324219 836.261719 915.007812 838.773438 917.632812 L 839.117188 917.984375 C 841.585938 920.558594 844.09375 923.105469 846.570312 925.566406 L 847.066406 926.054688 C 849.609375 928.570312 852.152344 931.027344 854.632812 933.367188 L 855.015625 933.722656 C 903.554688 979.378906 963.75 1013.46875 1029.089844 1032.308594 L 1029.699219 1032.480469 C 1033.511719 1033.578125 1037.421875 1034.640625 1041.660156 1035.71875 L 1044.03125 1036.320312 C 1046.300781 1036.890625 1048.570312 1037.441406 1050.851562 1037.980469 L 1053.21875 1038.53125 C 1056.238281 1039.230469 1059.261719 1039.890625 1062.289062 1040.519531 L 1063.359375 1040.738281 C 1066.101562 1041.300781 1068.839844 1041.851562 1071.601562 1042.371094 L 1073.828125 1042.78125 C 1076.441406 1043.261719 1079.039062 1043.710938 1081.648438 1044.148438 L 1083.199219 1044.410156 C 1089.648438 1045.46875 1096.238281 1046.421875 1102.78125 1047.238281 L 1103.488281 1047.320312 C 1106.601562 1047.699219 1109.621094 1048.050781 1112.648438 1048.371094 L 1113.808594 1048.488281 C 1116.980469 1048.820312 1120.160156 1049.121094 1123.339844 1049.390625 L 1123.308594 1052.230469 L 1123.550781 1049.410156 C 1133.359375 1050.238281 1143.5 1050.828125 1153.679688 1051.160156 L 1155.378906 1051.199219 C 1158.050781 1051.28125 1160.71875 1051.339844 1163.390625 1051.378906 L 1165.78125 1051.410156 C 1168.238281 1051.441406 1170.710938 1051.449219 1173.160156 1051.449219 L 1175.898438 1051.441406 C 1178.269531 1051.429688 1180.648438 1051.398438 1183.019531 1051.359375 L 1185.898438 1051.320312 C 1188.351562 1051.261719 1190.800781 1051.191406 1193.25 1051.109375 L 1195.820312 1051.03125 C 1199.128906 1050.910156 1202.429688 1050.769531 1205.71875 1050.601562 Z M 1172.640625 1057.101562 C 1170.339844 1057.101562 1168.03125 1057.089844 1165.71875 1057.070312 L 1163.300781 1057.03125 C 1160.609375 1056.988281 1157.910156 1056.941406 1155.21875 1056.859375 L 1153.511719 1056.808594 C 1143.21875 1056.480469 1132.980469 1055.890625 1123.070312 1055.039062 L 1122.859375 1055.03125 C 1119.640625 1054.75 1116.429688 1054.449219 1113.230469 1054.109375 L 1112.058594 1053.988281 C 1109 1053.671875 1105.941406 1053.320312 1102.890625 1052.949219 L 1102.078125 1052.851562 C 1095.460938 1052.019531 1088.800781 1051.058594 1082.289062 1050 L 1080.710938 1049.730469 C 1078.078125 1049.289062 1075.441406 1048.828125 1072.808594 1048.339844 L 1070.550781 1047.921875 C 1067.769531 1047.398438 1064.988281 1046.851562 1062.210938 1046.28125 L 1061.140625 1046.058594 C 1058.070312 1045.421875 1055.011719 1044.75 1051.960938 1044.050781 L 1049.550781 1043.480469 C 1047.25 1042.941406 1044.949219 1042.378906 1042.660156 1041.808594 L 1040.261719 1041.199219 C 1035.96875 1040.101562 1032.011719 1039.03125 1028.148438 1037.921875 L 1027.53125 1037.75 C 961.324219 1018.660156 900.332031 984.109375 851.136719 937.84375 L 850.753906 937.484375 C 848.238281 935.113281 845.660156 932.621094 843.09375 930.082031 L 842.578125 929.570312 C 840.074219 927.089844 837.535156 924.507812 835.039062 921.90625 L 834.695312 921.546875 C 832.144531 918.886719 829.605469 916.171875 827.148438 913.476562 C 817.039062 902.386719 807.386719 890.699219 798.328125 878.613281 L 798.027344 878.203125 C 795.902344 875.363281 793.808594 872.488281 791.742188 869.59375 C 778.75 851.394531 766.769531 831.941406 756.136719 811.78125 L 755.929688 811.273438 C 753.828125 804.242188 754.449219 799.226562 757.777344 796.363281 C 767.507812 787.992188 786.585938 788.054688 801.203125 790.914062 C 819.222656 794.433594 832.835938 802.097656 837.621094 811.417969 C 846.367188 828.457031 898.695312 888.859375 989.859375 932.746094 C 1068.851562 970.773438 1197.078125 1004.558594 1359.421875 949.5625 C 1380.039062 942.578125 1397.25 937.738281 1410.578125 935.179688 L 1416.339844 934.074219 L 1413.621094 939.273438 C 1412.78125 940.875 1411.910156 942.453125 1411.019531 944.015625 C 1410.71875 944.539062 1410.410156 945.054688 1410.101562 945.566406 L 1409.238281 947.019531 C 1408.898438 947.601562 1408.558594 948.183594 1408.199219 948.761719 C 1407.839844 949.347656 1407.460938 949.925781 1407.089844 950.503906 L 1406.328125 951.679688 C 1405.96875 952.246094 1405.609375 952.808594 1405.238281 953.367188 C 1404.828125 953.96875 1404.421875 954.558594 1404.011719 955.148438 L 1403.308594 956.164062 C 1402.921875 956.730469 1402.53125 957.292969 1402.128906 957.847656 C 1401.648438 958.515625 1401.160156 959.175781 1400.671875 959.835938 L 1400.308594 960.308594 C 1399.839844 960.945312 1399.371094 961.578125 1398.890625 962.203125 C 1398.339844 962.914062 1397.78125 963.613281 1397.230469 964.3125 C 1396.621094 965.074219 1396.078125 965.753906 1395.53125 966.421875 C 1394.929688 967.144531 1394.328125 967.855469 1393.730469 968.5625 C 1393.171875 969.21875 1392.609375 969.871094 1392.050781 970.519531 C 1391.429688 971.21875 1390.808594 971.910156 1390.191406 972.597656 C 1389.621094 973.230469 1389.039062 973.863281 1388.449219 974.492188 C 1387.820312 975.171875 1387.179688 975.84375 1386.539062 976.511719 C 1385.949219 977.128906 1385.351562 977.734375 1384.761719 978.339844 C 1384.101562 979 1383.449219 979.652344 1382.789062 980.304688 C 1382.179688 980.898438 1381.570312 981.480469 1380.960938 982.066406 C 1380.28125 982.710938 1379.609375 983.347656 1378.941406 983.972656 C 1378.320312 984.546875 1377.699219 985.113281 1377.070312 985.675781 L 1376.910156 985.820312 C 1376.269531 986.394531 1375.640625 986.96875 1375 987.527344 C 1374.480469 987.980469 1373.960938 988.425781 1373.441406 988.871094 L 1372.75 989.460938 C 1372.171875 989.964844 1371.578125 990.464844 1370.980469 990.960938 C 1370.5 991.363281 1370.011719 991.757812 1369.53125 992.152344 L 1368.480469 993.003906 C 1367.949219 993.433594 1367.421875 993.859375 1366.890625 994.28125 C 1366.449219 994.628906 1366.011719 994.964844 1365.570312 995.304688 L 1364.378906 996.222656 C 1363.828125 996.648438 1363.28125 997.074219 1362.71875 997.492188 C 1362.308594 997.804688 1361.898438 998.105469 1361.480469 998.410156 L 1360.898438 998.832031 C 1359.019531 1000.210938 1357.128906 1001.570312 1355.210938 1002.890625 L 1354.390625 1003.46875 C 1353.78125 1003.878906 1353.171875 1004.28125 1352.570312 1004.679688 L 1351.390625 1005.460938 C 1350.941406 1005.761719 1350.488281 1006.058594 1350.039062 1006.359375 C 1349.398438 1006.769531 1348.761719 1007.179688 1348.121094 1007.589844 L 1347.140625 1008.210938 C 1346.648438 1008.519531 1346.160156 1008.828125 1345.660156 1009.140625 C 1345.019531 1009.539062 1344.378906 1009.921875 1343.738281 1010.308594 L 1342.921875 1010.808594 C 1342.359375 1011.148438 1341.800781 1011.488281 1341.238281 1011.820312 C 1340.578125 1012.21875 1339.898438 1012.609375 1339.230469 1013 L 1338.859375 1013.210938 C 1338.109375 1013.648438 1337.449219 1014.03125 1336.789062 1014.398438 C 1336.101562 1014.789062 1335.410156 1015.179688 1334.71875 1015.558594 L 1334.410156 1015.738281 C 1333.710938 1016.121094 1333.019531 1016.5 1332.328125 1016.878906 C 1331.53125 1017.320312 1330.71875 1017.738281 1329.921875 1018.171875 C 1329.230469 1018.539062 1328.539062 1018.898438 1327.839844 1019.261719 C 1327.039062 1019.679688 1326.230469 1020.089844 1325.429688 1020.5 C 1324.738281 1020.851562 1324.039062 1021.199219 1323.339844 1021.550781 C 1322.539062 1021.949219 1321.730469 1022.351562 1320.929688 1022.738281 C 1320.238281 1023.078125 1319.539062 1023.410156 1318.839844 1023.738281 C 1318.039062 1024.128906 1317.230469 1024.511719 1316.429688 1024.878906 C 1315.730469 1025.210938 1315.03125 1025.53125 1314.320312 1025.851562 L 1300.71875 1031.699219 C 1299.980469 1032 1299.25 1032.300781 1298.511719 1032.589844 L 1296.261719 1033.46875 C 1295.539062 1033.75 1294.808594 1034.03125 1294.089844 1034.308594 L 1292.46875 1034.910156 C 1290.53125 1035.640625 1288.601562 1036.339844 1286.691406 1037.019531 L 1268.679688 1042.910156 L 1245.761719 1049.050781 L 1232.738281 1051.921875 C 1231.691406 1052.128906 1230.671875 1052.328125 1229.679688 1052.519531 L 1206.128906 1056.238281 C 1202.691406 1056.421875 1199.359375 1056.558594 1196.03125 1056.691406 L 1193.441406 1056.761719 C 1190.96875 1056.839844 1188.488281 1056.921875 1186.019531 1056.96875 L 1183.121094 1057.019531 C 1180.71875 1057.058594 1178.320312 1057.089844 1175.929688 1057.101562 L 1173.160156 1057.101562 C 1172.988281 1057.101562 1172.808594 1057.101562 1172.640625 1057.101562"/></g><g id="change2_10"><path fill="#1c1a19" d="M 795.738281 870.214844 L 792.347656 865.691406 C 793.070312 865.144531 865.238281 810.347656 885.761719 738.828125 L 891.199219 740.390625 C 870.144531 813.761719 796.480469 869.660156 795.738281 870.214844"/></g><g id="change2_11"><path fill="#1c1a19" d="M 854.777344 938.042969 L 851.371094 933.523438 C 852.429688 932.726562 957.339844 852.898438 968.042969 783.074219 L 973.632812 783.929688 C 962.582031 856.03125 859.175781 934.726562 854.777344 938.042969"/></g><g id="change2_12"><path fill="#1c1a19" d="M 949.625 1004.71875 L 945.542969 1000.808594 C 946.574219 999.734375 1048.46875 892.546875 1042.070312 817.332031 L 1047.699219 816.855469 C 1054.320312 894.613281 953.902344 1000.261719 949.625 1004.71875"/></g><g id="change2_13"><path fill="#1c1a19" d="M 1043.121094 1040.28125 L 1038.789062 1036.640625 C 1039.839844 1035.390625 1143.730469 911.054688 1131.761719 838.148438 L 1137.339844 837.230469 C 1149.738281 912.703125 1047.480469 1035.109375 1043.121094 1040.28125"/></g><g id="change2_14"><path fill="#1c1a19" d="M 1175.609375 1055.679688 L 1170.699219 1052.878906 C 1171.351562 1051.730469 1235.601562 937.03125 1193.308594 843.121094 L 1198.46875 840.796875 C 1221.230469 891.339844 1213.78125 947.109375 1203.519531 984.992188 C 1192.449219 1025.898438 1175.78125 1055.378906 1175.609375 1055.679688"/></g><g id="change2_15"><path fill="#1c1a19" d="M 1282.898438 1037.398438 L 1277.75 1035.070312 L 1280.328125 1036.238281 L 1277.75 1035.078125 C 1278.011719 1034.480469 1303.761719 974.582031 1260.308594 853.445312 L 1265.628906 851.53125 C 1309.960938 975.117188 1284.03125 1034.921875 1282.898438 1037.398438"/></g><g id="change2_16"><path fill="#1c1a19" d="M 1363.808594 995.703125 L 1358.230469 994.765625 C 1358.320312 994.238281 1366.488281 941.363281 1326 869.859375 L 1330.921875 867.074219 C 1372.480469 940.460938 1364.191406 993.480469 1363.808594 995.703125"/></g><g id="change1_7"><path fill="#7dcb29" d="M 681.589844 706.839844 C 688.164062 703.199219 696.386719 704.730469 701.191406 710.507812 C 730.136719 745.304688 824.671875 860.109375 819.234375 868.730469 C 812.820312 878.894531 692.734375 948.703125 692.734375 948.703125 C 692.734375 948.703125 696.648438 964.726562 675.273438 979.871094 C 675.273438 979.871094 683.972656 986.628906 664.429688 999.109375 C 644.882812 1011.589844 614.457031 1018.511719 610.589844 992.542969 C 610.589844 992.542969 596.234375 985.613281 596.574219 967.234375 C 596.574219 967.234375 584.550781 947.4375 592.4375 934.800781 C 600.320312 922.167969 632.921875 889.230469 653.152344 904.484375 C 673.386719 919.734375 677.589844 927.328125 677.589844 927.328125 L 779.105469 861.804688 C 782.664062 859.507812 783.378906 854.601562 780.625 851.386719 L 677.285156 730.710938 C 670.84375 723.183594 672.925781 711.640625 681.589844 706.839844"/></g><g id="change2_17"><path fill="#1c1a19" d="M 816.632812 867.773438 Z M 641.164062 903.351562 C 639.792969 903.351562 638.363281 903.492188 636.863281 903.769531 C 620.503906 906.804688 601.101562 926.261719 594.835938 936.296875 C 587.949219 947.328125 598.878906 965.582031 598.992188 965.765625 L 599.417969 966.46875 L 599.402344 967.285156 C 599.101562 983.664062 611.691406 989.9375 611.820312 989.996094 L 613.167969 990.648438 L 613.386719 992.128906 C 614.390625 998.859375 617.410156 1003.421875 622.371094 1005.679688 C 633 1010.519531 650.835938 1004.429688 662.90625 996.722656 C 672.546875 990.570312 674.222656 986.453125 674.363281 984.546875 C 674.480469 982.980469 673.585938 982.152344 673.480469 982.0625 L 670.769531 979.699219 L 673.636719 977.566406 C 693.21875 963.691406 690.023438 949.515625 689.988281 949.375 L 689.488281 947.320312 L 691.316406 946.257812 C 736.890625 919.765625 810.441406 875.402344 816.628906 867.519531 C 816.074219 858.457031 770.113281 797.789062 699.015625 712.3125 C 695.09375 707.597656 688.339844 706.335938 682.960938 709.316406 C 679.578125 711.191406 677.242188 714.449219 676.554688 718.257812 C 675.867188 722.0625 676.917969 725.933594 679.433594 728.871094 L 782.773438 849.546875 C 784.617188 851.699219 785.441406 854.542969 785.03125 857.347656 C 784.621094 860.152344 783.023438 862.644531 780.640625 864.179688 L 676.582031 931.347656 L 675.117188 928.699219 C 675.089844 928.648438 670.675781 921.234375 651.453125 906.742188 C 648.445312 904.472656 645.050781 903.351562 641.164062 903.351562 Z M 631.554688 1013.101562 C 627.445312 1013.101562 623.527344 1012.421875 620.027344 1010.820312 C 613.675781 1007.929688 609.546875 1002.25 608.027344 994.347656 C 604.238281 992.035156 593.78125 984.183594 593.738281 967.988281 C 591.550781 964.117188 582.128906 945.976562 590.035156 933.304688 C 596.378906 923.140625 616.96875 901.707031 635.832031 898.207031 C 643.125 896.859375 649.527344 898.207031 654.855469 902.226562 C 669.035156 912.914062 675.578125 920.019531 678.320312 923.492188 L 777.574219 859.425781 C 778.597656 858.765625 779.257812 857.738281 779.433594 856.53125 C 779.609375 855.324219 779.269531 854.152344 778.476562 853.226562 L 675.136719 732.550781 C 671.511719 728.3125 670 722.738281 670.988281 717.253906 C 671.976562 711.765625 675.34375 707.070312 680.222656 704.367188 C 687.972656 700.074219 697.707031 701.894531 703.363281 708.699219 C 718.996094 727.492188 749.136719 764.042969 775.335938 797.699219 C 826.1875 863.007812 823.441406 867.359375 821.625 870.238281 C 815.261719 880.324219 713.9375 939.628906 695.789062 950.199219 C 696.167969 955.210938 695.277344 968.039062 679.195312 980.484375 C 679.714844 981.578125 680.101562 982.984375 680.019531 984.695312 C 679.777344 990.035156 675.039062 995.6875 665.949219 1001.488281 C 656.503906 1007.519531 643.265625 1013.101562 631.554688 1013.101562"/></g><g id="change1_8"><path fill="#7dcb29" d="M 653.152344 904.484375 C 632.921875 889.230469 600.320312 922.167969 592.4375 934.800781 C 584.550781 947.4375 596.574219 967.234375 596.574219 967.234375 C 596.234375 985.613281 610.589844 992.542969 610.589844 992.542969 C 614.457031 1018.511719 644.882812 1011.589844 664.429688 999.109375 C 683.972656 986.628906 675.273438 979.871094 675.273438 979.871094 C 696.648438 964.726562 692.734375 948.703125 692.734375 948.703125 L 675.707031 924.746094 C 672.949219 921.359375 666.605469 914.625 653.152344 904.484375"/></g><g id="change2_18"><path fill="#1c1a19" d="M 641.164062 903.351562 C 639.792969 903.351562 638.363281 903.492188 636.863281 903.769531 C 620.503906 906.804688 601.101562 926.261719 594.835938 936.296875 C 587.972656 947.292969 598.882812 965.585938 598.992188 965.769531 L 599.414062 966.46875 L 599.402344 967.285156 C 599.101562 983.664062 611.691406 989.9375 611.820312 989.996094 L 613.167969 990.648438 L 613.386719 992.128906 C 614.390625 998.859375 617.410156 1003.421875 622.371094 1005.679688 C 633.003906 1010.519531 650.835938 1004.429688 662.90625 996.722656 C 672.546875 990.570312 674.222656 986.453125 674.363281 984.546875 C 674.480469 982.980469 673.585938 982.152344 673.480469 982.0625 L 670.769531 979.699219 L 673.636719 977.566406 C 691.238281 965.09375 690.4375 952.382812 690.070312 949.835938 L 673.402344 926.386719 C 671.03125 923.484375 664.867188 916.855469 651.453125 906.742188 C 648.445312 904.472656 645.050781 903.351562 641.164062 903.351562 Z M 631.554688 1013.101562 C 627.445312 1013.101562 623.527344 1012.421875 620.027344 1010.820312 C 613.675781 1007.929688 609.546875 1002.25 608.027344 994.347656 C 604.238281 992.035156 593.78125 984.183594 593.738281 967.988281 C 591.550781 964.117188 582.128906 945.976562 590.035156 933.304688 C 596.378906 923.140625 616.96875 901.707031 635.832031 898.207031 C 643.125 896.859375 649.527344 898.207031 654.855469 902.226562 C 668.054688 912.175781 674.671875 918.992188 677.898438 922.964844 L 695.355469 947.507812 L 695.484375 948.035156 C 695.65625 948.738281 699.320312 964.914062 679.195312 980.484375 C 679.714844 981.578125 680.101562 982.984375 680.019531 984.695312 C 679.777344 990.035156 675.039062 995.6875 665.949219 1001.488281 C 656.507812 1007.519531 643.265625 1013.101562 631.554688 1013.101562"/></g><g id="change2_19"><path fill="#1c1a19" d="M 647.195312 995.460938 C 647.074219 995.460938 646.960938 995.457031 646.84375 995.453125 L 647.039062 989.800781 C 652.578125 989.957031 666.316406 982.359375 673.722656 977.507812 L 676.820312 982.238281 C 674.734375 983.605469 656.386719 995.460938 647.195312 995.460938"/></g><g id="change2_20"><path fill="#1c1a19" d="M 612.488281 994.640625 L 608.691406 990.449219 C 620.535156 979.734375 641.503906 962.226562 648.894531 965.277344 L 646.730469 970.503906 C 643.476562 969.839844 627.738281 980.847656 612.488281 994.640625"/></g><g id="change2_21"><path fill="#1c1a19" d="M 598.976562 968.726562 L 594.171875 965.742188 C 594.742188 964.824219 608.363281 943.230469 628.851562 941.84375 L 629.234375 947.484375 C 611.664062 948.675781 599.101562 968.527344 598.976562 968.726562"/></g><g id="change1_9"><path fill="#7dcb29" d="M 737.300781 650.398438 C 751.320312 594.171875 809.933594 561.246094 865.929688 576.152344 C 932.320312 593.828125 1030.949219 615.375 1092.601562 607.148438 C 1092.601562 607.148438 1468.539062 557.574219 1490.039062 577.035156 C 1511.53125 596.492188 1366.300781 715.4375 1262.109375 746.414062 C 1171.671875 773.304688 694.390625 822.4375 737.300781 650.398438"/></g><g id="change2_22"><path fill="#1c1a19" d="M 838.773438 575.445312 C 820.386719 575.445312 802.074219 580.316406 786.101562 589.738281 C 762.84375 603.464844 746.484375 625.25 740.042969 651.082031 C 733.382812 677.785156 739.515625 700.421875 758.269531 718.359375 C 806.238281 764.238281 924.210938 772.398438 1014.730469 771.15625 C 1125.019531 769.648438 1227.070312 753.882812 1261.300781 743.703125 C 1353.769531 716.214844 1481.699219 616.925781 1489.058594 584.496094 C 1489.921875 580.742188 1488.578125 579.527344 1488.140625 579.132812 C 1484.378906 575.726562 1456.921875 569.746094 1283.550781 587.605469 C 1188.03125 597.449219 1093.898438 609.828125 1092.960938 609.953125 C 1031.820312 618.113281 935.351562 597.5625 865.203125 578.886719 C 856.546875 576.582031 847.648438 575.445312 838.773438 575.445312 Z M 999.464844 776.976562 C 897.925781 776.976562 797.550781 763.757812 754.359375 722.445312 C 734.03125 703.003906 727.367188 678.53125 734.554688 649.714844 L 737.300781 650.398438 L 734.554688 649.714844 C 741.367188 622.398438 758.652344 599.371094 783.226562 584.867188 C 808.207031 570.128906 838.613281 565.957031 866.65625 573.421875 C 936.3125 591.964844 1031.980469 612.375 1092.21875 604.347656 C 1093.171875 604.222656 1187.359375 591.832031 1282.960938 581.980469 C 1477.570312 561.929688 1488.378906 571.71875 1491.929688 574.9375 C 1493.859375 576.683594 1495.890625 579.980469 1494.578125 585.746094 C 1486.78125 620.109375 1358.929688 720.582031 1262.921875 749.125 C 1221.988281 761.292969 1110.039062 776.976562 999.464844 776.976562"/></g><g id="change1_10"><path fill="#7dcb29" d="M 724.210938 637.585938 C 748.023438 584.757812 811.558594 562.792969 864.007812 587.433594 C 926.191406 616.644531 1019.398438 655.40625 1081.53125 658.285156 C 1081.53125 658.285156 1460.300781 676.4375 1477.980469 699.414062 C 1495.671875 722.390625 1331.578125 813.578125 1223.539062 825.507812 C 1129.761719 835.867188 651.359375 799.238281 724.210938 637.585938"/></g><g id="change2_23"><path fill="#1c1a19" d="M 724.210938 637.585938 L 726.789062 638.746094 C 715.480469 663.839844 717.484375 687.207031 732.746094 708.195312 C 771.78125 761.882812 886.417969 790.910156 975.710938 805.8125 C 1084.511719 823.960938 1187.730469 826.621094 1223.230469 822.695312 C 1319.109375 812.109375 1462.679688 737.183594 1475.699219 706.585938 C 1477.210938 703.042969 1476.101562 701.609375 1475.738281 701.140625 C 1472.648438 697.121094 1446.699219 686.34375 1272.921875 673.054688 C 1177.171875 665.734375 1082.339844 661.15625 1081.398438 661.113281 C 1019.78125 658.253906 928.511719 620.859375 862.804688 589.992188 C 837.902344 578.296875 808.828125 577.054688 783.035156 586.589844 C 757.703125 595.953125 737.730469 614.476562 726.789062 638.746094 Z M 1182.828125 830.023438 C 1062.371094 830.023438 792.535156 800.039062 728.171875 711.523438 C 711.628906 688.769531 709.429688 663.503906 721.632812 636.425781 C 733.199219 610.761719 754.308594 591.175781 781.074219 581.28125 C 808.28125 571.226562 838.945312 572.535156 865.210938 584.871094 C 930.453125 615.519531 1020.96875 652.648438 1081.660156 655.464844 C 1082.609375 655.507812 1177.511719 660.085938 1273.339844 667.414062 C 1468.398438 682.332031 1477.300781 693.890625 1480.21875 697.6875 C 1481.808594 699.753906 1483.21875 703.355469 1480.898438 708.800781 C 1467.109375 741.21875 1323.410156 817.324219 1223.851562 828.320312 C 1213.808594 829.429688 1199.789062 830.023438 1182.828125 830.023438"/></g><g id="change1_11"><path fill="#7dcb29" d="M 1064.050781 1138.761719 C 1059.441406 1138.660156 1056.558594 1133.738281 1058.769531 1129.691406 C 1079.171875 1092.421875 1152.121094 947.902344 1086.71875 897.324219 C 1018.589844 844.644531 991.046875 1051.28125 995.71875 1149.601562 C 996.441406 1164.808594 1009.171875 1176.660156 1024.390625 1176.46875 L 1232.660156 1173.871094 C 1232.660156 1173.871094 1313.710938 1281.660156 1348.949219 1257.140625 C 1384.191406 1232.621094 1313.660156 1114.800781 1294.621094 1108.25 C 1275.578125 1101.699219 1239.210938 1114.160156 1230.019531 1142.140625 L 1064.050781 1138.761719"/></g><g id="change2_24"><path fill="#1c1a19" d="M 1234.058594 1171.019531 L 1234.921875 1172.171875 C 1257.011719 1201.539062 1320.28125 1273.660156 1347.328125 1254.820312 C 1354.621094 1249.75 1357.238281 1239.519531 1355.140625 1224.398438 C 1349.148438 1181.308594 1306.890625 1115.460938 1293.699219 1110.921875 C 1284.328125 1107.699219 1270.339844 1109.550781 1258.078125 1115.640625 C 1245.460938 1121.910156 1236.449219 1131.628906 1232.710938 1143.019531 L 1232.050781 1145.011719 L 1063.988281 1141.578125 C 1060.820312 1141.519531 1057.980469 1139.839844 1056.390625 1137.101562 C 1054.820312 1134.378906 1054.78125 1131.101562 1056.289062 1128.339844 C 1065.878906 1110.808594 1089.558594 1064.949219 1102.191406 1017.769531 C 1117.628906 960.097656 1111.839844 920.328125 1084.988281 899.5625 C 1074.238281 891.257812 1064.570312 889.535156 1055.421875 894.296875 C 1014.941406 915.371094 994.378906 1061.839844 998.546875 1149.46875 C 999.191406 1163.078125 1010.359375 1173.640625 1024.03125 1173.640625 C 1024.140625 1173.640625 1024.25 1173.640625 1024.359375 1173.640625 Z M 1337.089844 1263.519531 C 1299.011719 1263.53125 1239.589844 1187.601562 1231.269531 1176.71875 L 1024.429688 1179.300781 C 1024.289062 1179.300781 1024.160156 1179.300781 1024.019531 1179.300781 C 1007.320312 1179.300781 993.6875 1166.390625 992.894531 1149.738281 C 989.183594 1071.660156 1006.488281 913.394531 1052.800781 889.28125 C 1063.960938 883.472656 1075.949219 885.425781 1088.449219 895.089844 C 1154.910156 946.484375 1084.441406 1088.691406 1061.25 1131.050781 C 1060.691406 1132.078125 1060.699219 1133.261719 1061.289062 1134.269531 C 1061.878906 1135.300781 1062.910156 1135.898438 1064.109375 1135.929688 L 1228.039062 1139.269531 C 1232.601562 1127.289062 1242.300781 1117.160156 1255.558594 1110.570312 C 1269.109375 1103.839844 1284.800781 1101.871094 1295.539062 1105.578125 C 1311.621094 1111.109375 1354.75 1180.5 1360.738281 1223.621094 C 1363.160156 1241.019531 1359.738281 1253.078125 1350.558594 1259.460938 C 1346.53125 1262.269531 1341.980469 1263.519531 1337.089844 1263.519531"/></g><g id="change1_12"><path fill="#7dcb29" d="M 1348.949219 1257.140625 C 1384.191406 1232.621094 1313.660156 1114.800781 1294.621094 1108.25 C 1275.578125 1101.699219 1239.210938 1114.160156 1230.019531 1142.140625 C 1230.019531 1142.140625 1226.46875 1158.601562 1232.660156 1173.871094 C 1232.660156 1173.871094 1313.710938 1281.660156 1348.949219 1257.140625"/></g><g id="change2_25"><path fill="#1c1a19" d="M 1235.140625 1172.46875 C 1257.429688 1202.03125 1320.359375 1273.589844 1347.328125 1254.820312 C 1354.621094 1249.75 1357.238281 1239.519531 1355.140625 1224.398438 C 1349.148438 1181.308594 1306.890625 1115.460938 1293.699219 1110.921875 C 1284.328125 1107.699219 1270.339844 1109.550781 1258.078125 1115.640625 C 1245.519531 1121.878906 1236.53125 1131.539062 1232.761719 1142.859375 C 1232.460938 1144.410156 1229.828125 1159.019531 1235.140625 1172.46875 Z M 1337.089844 1263.519531 C 1297.050781 1263.519531 1233.410156 1179.570312 1230.398438 1175.570312 L 1230.171875 1175.269531 L 1230.039062 1174.929688 C 1223.589844 1159.039062 1227.101562 1142.25 1227.261719 1141.539062 L 1227.328125 1141.25 C 1231.550781 1128.421875 1241.570312 1117.519531 1255.558594 1110.570312 C 1269.109375 1103.839844 1284.800781 1101.871094 1295.539062 1105.578125 C 1311.621094 1111.109375 1354.75 1180.5 1360.738281 1223.621094 C 1363.160156 1241.019531 1359.738281 1253.078125 1350.558594 1259.460938 C 1346.53125 1262.269531 1341.980469 1263.519531 1337.089844 1263.519531"/></g><g id="change1_13"><path fill="#7dcb29" d="M 1028.789062 34.371094 C 998.097656 19.730469 968.984375 15.199219 958.882812 22.699219 C 918.449219 1.238281 876.929688 -2.898438 835.257812 10.550781 C 693.96875 56.148438 598.351562 285.140625 594.351562 294.859375 L 605.382812 299.398438 C 606.34375 297.070312 702.914062 65.789062 838.941406 21.898438 C 878.320312 9.191406 917.675781 13.53125 956.066406 34.710938 C 960.472656 47.199219 980.820312 64.371094 1008.25 77.449219 C 1042.800781 93.929688 1075.410156 97.640625 1081.078125 85.738281 C 1086.75 73.851562 1063.339844 50.851562 1028.789062 34.371094"/></g><g id="change2_26"><path fill="#1c1a19" d="M 598.058594 293.328125 L 603.878906 295.71875 C 615.042969 269.910156 709 60.851562 838.074219 19.210938 C 878.167969 6.269531 918.324219 10.660156 957.429688 32.238281 L 958.371094 32.761719 L 958.730469 33.769531 C 962.964844 45.761719 983.828125 62.671875 1009.46875 74.898438 C 1044.828125 91.761719 1074.25 93.511719 1078.53125 84.53125 C 1082.808594 75.539062 1062.941406 53.789062 1027.570312 36.921875 C 994.703125 21.25 968.519531 19.070312 960.566406 24.96875 L 959.132812 26.039062 L 957.554688 25.199219 C 917.792969 4.101562 876.941406 0.0703125 836.128906 13.238281 C 702.355469 56.421875 609.628906 266.058594 598.058594 293.328125 Z M 606.917969 303.089844 L 590.660156 296.398438 L 591.738281 293.789062 C 595.757812 284.011719 691.820312 53.871094 834.390625 7.859375 C 876.214844 -5.628906 918.039062 -1.738281 958.738281 19.429688 C 971.019531 12.480469 999.753906 17.390625 1030.011719 31.820312 C 1061.570312 46.871094 1091.101562 71.308594 1083.628906 86.960938 C 1076.171875 102.609375 1038.601562 95.058594 1007.03125 80 C 979.988281 67.109375 959.300781 50.238281 953.792969 36.691406 C 916.390625 16.320312 878.050781 12.25 839.808594 24.589844 C 705.34375 67.980469 608.957031 298.160156 607.996094 300.480469 L 606.917969 303.089844"/></g><g id="change1_14"><path fill="#7dcb29" d="M 214.914062 111.171875 C 171.128906 111.628906 133.0625 128.710938 101.519531 161.878906 C 89.554688 157.96875 63.382812 171.5 38.910156 195.109375 C 11.363281 221.691406 -3.546875 250.921875 5.601562 260.410156 C 14.753906 269.890625 44.503906 256.03125 72.050781 229.449219 C 93.925781 208.351562 107.820312 185.578125 108.035156 172.339844 C 137.722656 140.101562 173.660156 123.53125 215.019531 123.101562 C 357.941406 121.609375 522.84375 310.351562 524.496094 312.261719 L 533.519531 304.460938 C 526.644531 296.5 363.371094 109.628906 214.914062 111.171875"/></g><g id="change2_27"><path fill="#1c1a19" d="M 216.695312 120.269531 C 351.929688 120.269531 506.0625 287.441406 524.757812 308.289062 L 529.515625 304.179688 C 509.984375 282.070312 356.816406 113.988281 216.746094 113.988281 C 216.144531 113.988281 215.546875 113.988281 214.941406 114 C 172.058594 114.449219 134.589844 131.210938 103.566406 163.828125 L 102.335938 165.121094 L 100.640625 164.570312 C 91.226562 161.488281 67.082031 171.859375 40.875 197.140625 C 12.679688 224.351562 0.730469 251.28125 7.640625 258.441406 C 11.058594 261.988281 19.691406 261.03125 30.734375 255.890625 C 43.007812 250.171875 56.984375 240.058594 70.085938 227.421875 C 90.558594 207.671875 105 185 105.207031 172.300781 L 105.222656 171.21875 L 105.953125 170.421875 C 136.195312 137.589844 172.882812 120.710938 214.988281 120.269531 C 215.550781 120.269531 216.132812 120.269531 216.695312 120.269531 Z M 524.207031 316.25 L 522.359375 314.109375 C 520.714844 312.21875 356.367188 124.398438 215.050781 125.929688 C 174.886719 126.351562 139.824219 142.351562 110.816406 173.5 C 109.894531 188.078125 95.605469 210.660156 74.015625 231.488281 C 60.472656 244.558594 45.949219 255.039062 33.121094 261.019531 C 19.394531 267.421875 8.898438 267.898438 3.566406 262.371094 C -8.46875 249.890625 11.78125 217.351562 36.949219 193.070312 C 61.070312 169.800781 86.769531 156.050781 100.617188 158.730469 C 132.507812 125.75 170.941406 108.800781 214.882812 108.339844 C 215.496094 108.328125 216.117188 108.328125 216.730469 108.328125 C 366.035156 108.328125 528.777344 294.640625 535.65625 302.609375 L 537.507812 304.75 L 524.207031 316.25"/></g><g id="change1_15"><path fill="#7dcb29" d="M 758.730469 341.175781 C 752.320312 291.910156 704.855469 257.480469 652.71875 264.261719 C 633.097656 266.820312 615.613281 274.851562 601.773438 286.488281 C 588.039062 285.921875 574.023438 286.460938 559.84375 288.300781 C 548.878906 289.730469 538.210938 291.878906 527.863281 294.648438 C 512.09375 287.769531 494.082031 284.910156 475.464844 287.328125 C 423.324219 294.121094 386.257812 339.550781 392.667969 388.816406 C 392.839844 390.15625 393.058594 391.480469 393.292969 392.796875 C 371.113281 428.960938 360.71875 471.296875 366.394531 514.914062 C 380.632812 624.3125 490.324219 700.226562 611.398438 684.46875 C 732.476562 668.710938 819.085938 567.253906 804.847656 457.855469 C 799.917969 419.972656 783.527344 386.117188 759.195312 358.679688 C 759.628906 352.9375 759.5 347.085938 758.730469 341.175781"/></g><g id="change2_28"><path fill="#1c1a19" d="M 488.484375 289.308594 C 484.277344 289.308594 480.050781 289.589844 475.828125 290.128906 C 425.320312 296.710938 389.273438 340.8125 395.472656 388.449219 C 395.640625 389.746094 395.851562 391.027344 396.078125 392.300781 L 396.265625 393.359375 L 395.703125 394.273438 C 372.953125 431.375 363.785156 472.964844 369.199219 514.550781 C 381.972656 612.71875 473.285156 683.695312 579.738281 683.699219 C 590.050781 683.699219 600.496094 683.035156 611.035156 681.664062 C 730.367188 666.132812 816.054688 565.894531 802.042969 458.21875 C 797.355469 422.210938 781.808594 388.441406 757.078125 360.554688 L 756.28125 359.660156 L 756.371094 358.464844 C 756.800781 352.804688 756.652344 347.113281 755.925781 341.539062 C 752.925781 318.488281 740.597656 298.050781 721.210938 283.988281 C 701.777344 269.890625 677.585938 263.878906 653.082031 267.070312 C 634.640625 269.46875 617.527344 276.929688 603.59375 288.660156 L 602.753906 289.359375 L 601.65625 289.320312 C 587.753906 288.738281 573.8125 289.339844 560.207031 291.109375 C 549.644531 292.480469 539.011719 294.589844 528.597656 297.378906 L 527.640625 297.640625 L 526.734375 297.25 C 514.714844 292 501.691406 289.308594 488.484375 289.308594 Z M 579.742188 689.355469 C 470.476562 689.363281 376.738281 616.300781 363.589844 515.28125 C 358.054688 472.738281 367.300781 430.214844 390.324219 392.234375 C 390.152344 391.222656 389.996094 390.207031 389.863281 389.183594 C 383.261719 338.449219 421.496094 291.5 475.097656 284.53125 C 493.230469 282.160156 511.535156 284.628906 528.085938 291.671875 C 538.433594 288.941406 548.992188 286.859375 559.476562 285.5 C 573.046875 283.730469 586.941406 283.101562 600.800781 283.621094 C 615.40625 271.609375 633.203125 263.949219 652.351562 261.460938 C 678.285156 258.078125 703.925781 264.460938 724.53125 279.410156 C 745.191406 294.398438 758.332031 316.199219 761.535156 340.808594 C 762.257812 346.371094 762.445312 352.046875 762.097656 357.695312 C 787.125 386.257812 802.867188 420.738281 807.652344 457.488281 C 822.066406 568.261719 734.191406 671.339844 611.765625 687.273438 C 600.988281 688.675781 590.285156 689.355469 579.742188 689.355469"/></g><g id="change6_1"><path fill="#ffffff" d="M 670.058594 457.410156 C 654.957031 461.886719 641.320312 468.089844 630.058594 475.191406 C 620.238281 457.886719 612.855469 435.652344 609.644531 410.894531 C 601.832031 350.726562 621.59375 298.480469 653.78125 294.199219 C 685.96875 289.910156 718.394531 335.214844 726.203125 395.382812 C 728.800781 415.363281 728.347656 434.46875 725.414062 451.238281 C 709.640625 449.527344 690.25 451.417969 670.058594 457.410156"/></g><g id="change7_1"><path fill="#211d1d" d="M 658.074219 296.738281 C 656.765625 296.738281 655.457031 296.820312 654.152344 297 C 623.558594 301.070312 604.847656 352 612.445312 410.527344 C 615.371094 433.058594 621.804688 453.972656 631.097656 471.230469 C 642.367188 464.46875 655.492188 458.777344 669.253906 454.695312 C 687.945312 449.152344 706.929688 446.859375 723.058594 448.171875 C 725.621094 431.855469 725.742188 413.789062 723.402344 395.746094 C 718.265625 356.195312 702.089844 321.660156 681.183594 305.609375 C 673.5 299.710938 665.746094 296.738281 658.074219 296.738281 Z M 629.058594 479.160156 L 627.597656 476.585938 C 617.179688 458.226562 610.003906 435.636719 606.839844 411.257812 C 598.839844 349.644531 619.730469 295.871094 653.40625 291.390625 C 663.75 290.019531 674.542969 293.378906 684.628906 301.121094 C 706.683594 318.050781 723.6875 354.03125 729.011719 395.015625 C 731.550781 414.574219 731.269531 434.183594 728.203125 451.726562 L 727.746094 454.335938 L 725.113281 454.050781 C 709.15625 452.328125 689.894531 454.476562 670.863281 460.121094 L 670.859375 460.121094 C 656.539062 464.367188 642.949219 470.40625 631.566406 477.582031 L 629.058594 479.160156"/></g><g id="change2_29"><path fill="#1c1a19" d="M 662.792969 362.59375 C 644.03125 365.09375 632.667969 396.703125 637.40625 433.199219 C 639.003906 445.519531 642.238281 456.816406 646.539062 466.289062 C 653.835938 462.898438 661.710938 459.882812 670.058594 457.410156 C 682.550781 453.703125 694.730469 451.570312 705.941406 450.882812 C 706.703125 442.566406 706.554688 433.527344 705.335938 424.15625 C 700.597656 387.660156 681.550781 360.097656 662.792969 362.59375"/></g><g id="change6_2"><path fill="#ffffff" d="M 668.632812 354.582031 C 670.121094 366.035156 663.277344 376.390625 653.351562 377.714844 C 643.425781 379.035156 634.175781 370.820312 632.6875 359.367188 C 631.199219 347.914062 638.042969 337.558594 647.96875 336.234375 C 657.894531 334.914062 667.144531 343.128906 668.632812 354.582031"/></g><g id="change6_3"><path fill="#ffffff" d="M 689.605469 429.3125 C 690.347656 435.039062 686.929688 440.214844 681.964844 440.875 C 677.003906 441.535156 672.375 437.429688 671.632812 431.703125 C 670.890625 425.976562 674.308594 420.796875 679.273438 420.136719 C 684.234375 419.476562 688.863281 423.585938 689.605469 429.3125"/></g><g id="change6_4"><path fill="#ffffff" d="M 496.71875 481.273438 C 512.449219 481.648438 527.203125 484.074219 539.898438 487.984375 C 544.964844 468.699219 546.421875 445.289062 543.207031 420.53125 C 535.394531 360.363281 502.972656 315.058594 470.78125 319.351562 C 438.59375 323.628906 418.835938 375.878906 426.644531 436.046875 C 429.238281 456.027344 434.550781 474.367188 441.664062 489.796875 C 456.46875 484.015625 475.679688 480.769531 496.71875 481.273438"/></g><g id="change7_2"><path fill="#211d1d" d="M 475.074219 321.890625 C 473.765625 321.890625 472.460938 321.96875 471.15625 322.148438 C 440.558594 326.21875 421.851562 377.152344 429.449219 435.679688 C 431.789062 453.71875 436.519531 471.128906 443.152344 486.21875 C 458.394531 480.730469 477.320312 477.992188 496.785156 478.445312 C 511.128906 478.789062 525.261719 480.855469 537.871094 484.4375 C 542.449219 465.328125 543.328125 443.433594 540.402344 420.894531 C 535.269531 381.34375 519.09375 346.808594 498.1875 330.761719 C 490.503906 324.859375 482.746094 321.890625 475.074219 321.890625 Z M 440.210938 493.398438 L 439.097656 490.980469 C 431.65625 474.839844 426.378906 455.96875 423.839844 436.410156 C 415.839844 374.796875 436.730469 321.019531 470.410156 316.539062 C 480.746094 315.160156 491.546875 318.53125 501.632812 326.269531 C 523.6875 343.203125 540.691406 379.183594 546.011719 420.164062 C 549.175781 444.542969 548.007812 468.242188 542.632812 488.703125 L 541.882812 491.558594 L 539.0625 490.6875 C 526.242188 486.734375 511.574219 484.457031 496.648438 484.101562 C 476.8125 483.632812 457.660156 486.585938 442.691406 492.433594 L 440.210938 493.398438"/></g><g id="change2_30"><path fill="#1c1a19" d="M 479.535156 387.78125 C 498.296875 385.28125 517.34375 412.847656 522.082031 449.34375 C 523.679688 461.664062 523.4375 473.421875 521.703125 483.699219 C 513.789062 482.335938 505.410156 481.480469 496.71875 481.273438 C 483.703125 480.964844 471.390625 482.089844 460.386719 484.359375 C 457.527344 476.527344 455.363281 467.753906 454.148438 458.382812 C 449.410156 421.886719 460.777344 390.277344 479.535156 387.78125"/></g><g id="change6_5"><path fill="#ffffff" d="M 442.796875 385.433594 C 444.28125 396.886719 453.535156 405.101562 463.460938 403.78125 C 473.386719 402.460938 480.230469 392.101562 478.742188 380.648438 C 477.253906 369.195312 468.003906 360.984375 458.074219 362.304688 C 448.148438 363.625 441.308594 373.980469 442.796875 385.433594"/></g><g id="change6_6"><path fill="#ffffff" d="M 492.671875 462.007812 C 493.414062 467.734375 498.042969 471.84375 503.003906 471.183594 C 507.96875 470.519531 511.390625 465.34375 510.644531 459.617188 C 509.902344 453.890625 505.277344 449.78125 500.3125 450.441406 C 495.347656 451.105469 491.929688 456.28125 492.671875 462.007812"/></g><g id="change2_31"><path fill="#1c1a19" d="M 656.683594 512.722656 C 659.621094 510.800781 662.976562 509.605469 666.472656 508.953125 C 669.964844 508.335938 673.703125 508.347656 677.28125 509.464844 C 680.863281 510.539062 684.152344 512.9375 686.144531 516.066406 C 688.160156 519.191406 689.050781 522.773438 689.011719 526.253906 C 687.570312 523.089844 686.019531 520.117188 683.882812 517.796875 C 681.773438 515.449219 679.144531 513.835938 676.199219 512.914062 C 673.25 511.996094 670.03125 511.714844 666.753906 511.769531 C 663.46875 511.832031 660.128906 512.21875 656.683594 512.722656"/></g><g id="change2_32"><path fill="#1c1a19" d="M 526.589844 536.523438 C 523.1875 537.273438 519.9375 538.09375 516.839844 539.199219 C 513.75 540.308594 510.839844 541.710938 508.402344 543.617188 C 505.976562 545.519531 504.09375 547.960938 502.957031 550.898438 C 501.78125 553.828125 501.382812 557.15625 501.152344 560.621094 C 499.882812 557.386719 499.441406 553.71875 500.226562 550.085938 C 500.984375 546.449219 503.207031 543.042969 506.167969 540.769531 C 509.125 538.460938 512.621094 537.121094 516.109375 536.464844 C 519.601562 535.839844 523.167969 535.765625 526.589844 536.523438"/></g><g id="change2_33"><path fill="#1c1a19" d="M 592.691406 643.816406 C 596.328125 644.765625 599.914062 645.492188 603.488281 645.886719 C 607.050781 646.28125 610.601562 646.335938 614.050781 645.859375 C 617.5 645.367188 620.84375 644.351562 623.976562 642.734375 C 627.132812 641.148438 630.011719 638.9375 632.863281 636.464844 C 631.21875 639.871094 628.652344 642.878906 625.460938 645.164062 C 622.269531 647.449219 618.453125 648.902344 614.550781 649.433594 C 610.640625 649.972656 606.683594 649.640625 602.964844 648.671875 C 599.253906 647.671875 595.691406 646.132812 592.691406 643.816406"/></g><g id="change2_34"><path fill="#1c1a19" d="M 599.570312 567.972656 C 599.675781 567.949219 599.777344 567.9375 599.886719 567.917969 L 599.257812 568.035156 C 599.363281 568.015625 599.464844 567.988281 599.570312 567.972656 C 548.714844 577.175781 519.78125 558.652344 508.4375 548.742188 C 507.625 548.03125 506.421875 548.925781 506.867188 549.90625 C 516.253906 570.703125 553.804688 644.480469 610.878906 636.132812 L 610.886719 636.183594 C 611.269531 636.113281 611.632812 636.027344 612.007812 635.949219 C 612.382812 635.890625 612.757812 635.839844 613.140625 635.769531 L 613.132812 635.722656 C 666.300781 624.015625 677.304688 550.023438 679.558594 522.617188 C 679.730469 520.519531 676.972656 519.621094 675.871094 521.414062 C 667.171875 535.578125 646.054688 559.375 599.570312 567.972656"/></g><g id="change2_35"><path fill="#1c1a19" d="M 611.660156 634.179688 L 612.21875 634.085938 C 612.265625 634.082031 612.335938 634.066406 612.398438 634.058594 C 612.503906 634.015625 612.621094 633.972656 612.738281 633.949219 C 665.285156 622.390625 675.757812 548.164062 677.832031 521.671875 C 669.222656 535.96875 647.871094 560.738281 600.34375 569.671875 C 600.308594 569.679688 600.257812 569.6875 600.214844 569.695312 L 599.582031 569.8125 C 599.539062 569.820312 599.492188 569.828125 599.445312 569.835938 C 551.839844 578.308594 523.09375 562.703125 509.992188 552.378906 C 521.3125 576.425781 557.382812 642.132812 610.617188 634.339844 C 610.734375 634.316406 610.859375 634.316406 610.976562 634.316406 C 611.027344 634.308594 611.09375 634.296875 611.15625 634.277344 Z M 613.46875 637.554688 C 613.21875 637.601562 612.984375 637.636719 612.746094 637.671875 L 612.308594 637.738281 L 611.929688 637.820312 C 611.519531 637.910156 611.097656 638.03125 610.691406 637.984375 C 546.941406 646.871094 507.53125 556.453125 503.230469 546.09375 C 502.90625 545.289062 503.179688 544.359375 503.914062 543.890625 C 504.636719 543.410156 505.601562 543.511719 506.207031 544.140625 C 513.734375 551.902344 542.703125 576.417969 599.246094 566.1875 C 655.753906 555.734375 674.148438 522.554688 678.449219 512.625 C 678.796875 511.824219 679.65625 511.390625 680.507812 511.582031 C 681.355469 511.761719 681.945312 512.53125 681.925781 513.398438 C 681.570312 524.609375 676.722656 623.140625 613.945312 637.390625 C 613.800781 637.476562 613.636719 637.523438 613.46875 637.554688"/></g><g id="change6_7"><path fill="#ffffff" d="M 600.195312 569.660156 L 599.433594 569.800781 C 541.585938 577.554688 528.152344 562.386719 510.015625 552.492188 C 510.253906 553.046875 510.511719 553.628906 510.78125 554.234375 C 524.6875 569.675781 556.648438 598.414062 602.753906 590.746094 L 602.757812 590.777344 C 603.074219 590.722656 603.378906 590.648438 603.691406 590.585938 C 604.007812 590.53125 604.320312 590.492188 604.640625 590.433594 L 604.632812 590.402344 C 650.464844 581.25 670.453125 542.675781 678 523.316406 C 678.039062 522.597656 678.074219 521.914062 678.109375 521.289062 C 664.667969 536.984375 655.851562 557.449219 600.195312 569.660156"/></g><g id="change2_36"><path fill="#1c1a19" d="M 526.085938 565.09375 C 543.132812 579.367188 569.175781 593.46875 602.289062 587.957031 L 604.078125 587.628906 C 637.351562 580.988281 656.855469 558.125 667.757812 538.507812 C 656.746094 550.984375 640.417969 563.730469 600.800781 572.421875 L 599.945312 572.582031 C 559.503906 578.003906 540.117188 572.367188 526.085938 565.09375 Z M 587.625 594.839844 C 549.71875 594.84375 522.410156 571.371094 508.683594 556.128906 L 508.386719 555.800781 L 508.203125 555.394531 C 507.921875 554.773438 507.664062 554.179688 507.417969 553.609375 L 504.183594 546.089844 L 511.371094 550.011719 C 513.972656 551.429688 516.511719 552.972656 518.96875 554.46875 C 534.375 563.839844 550.300781 573.527344 599.058594 566.996094 L 599.628906 566.886719 C 646.707031 556.554688 659.371094 540.410156 670.539062 526.164062 C 672.367188 523.828125 674.097656 521.625 675.960938 519.449219 L 681.386719 513.117188 L 680.800781 523.917969 L 680.636719 524.34375 C 672.316406 545.6875 651.890625 582.515625 607.890625 592.597656 L 607.90625 592.675781 L 603.871094 593.4375 C 603.667969 593.480469 603.46875 593.523438 603.265625 593.558594 L 600.515625 594.0625 L 600.492188 593.949219 C 596.082031 594.558594 591.785156 594.839844 587.625 594.839844"/></g><g id="change8_1"><path fill="#f06586" d="M 612.652344 633.941406 C 627.703125 630.359375 641.460938 621.019531 651.324219 606.96875 C 638.925781 602.148438 621.21875 597.167969 606.714844 599.464844 L 606.707031 599.421875 C 606.335938 599.488281 605.980469 599.574219 605.613281 599.644531 C 605.25 599.710938 604.882812 599.757812 604.515625 599.824219 L 604.523438 599.867188 C 589.972656 602.886719 574.550781 613.476562 564.558594 622.605469 C 577.550781 633.578125 595.195312 636.3125 610.398438 634.351562 L 610.414062 634.429688 C 610.792969 634.359375 611.160156 634.257812 611.535156 634.183594 C 611.910156 634.121094 612.285156 634.085938 612.667969 634.015625 L 612.652344 633.941406"/></g><g id="change2_37"><path fill="#1c1a19" d="M 568.980469 622.476562 C 579.75 630.253906 594.507812 633.542969 610.039062 631.550781 L 610.792969 631.453125 C 610.859375 631.4375 610.925781 631.425781 610.988281 631.410156 L 612 631.191406 C 625.484375 627.984375 637.726562 619.910156 646.8125 608.304688 C 636.609375 604.636719 620.496094 600.148438 607.15625 602.261719 L 605.097656 602.636719 C 590.050781 605.761719 575.621094 616.796875 568.980469 622.476562 Z M 601.230469 637.777344 C 586.421875 637.777344 572.746094 633.222656 562.734375 624.769531 L 560.273438 622.691406 L 562.652344 620.519531 C 567.347656 616.230469 583.480469 602.421875 601.246094 597.734375 L 601.21875 597.589844 L 608.964844 596.132812 L 609.003906 596.324219 C 624.71875 594.78125 642.699219 600.582031 652.347656 604.335938 L 655.710938 605.644531 L 653.636719 608.597656 C 644.136719 622.128906 630.828125 631.78125 615.9375 636.007812 L 615.992188 636.285156 L 613.175781 636.800781 C 612.921875 636.84375 612.671875 636.878906 612.421875 636.914062 L 611.671875 637.050781 C 611.421875 637.109375 611.171875 637.167969 610.914062 637.214844 L 608.140625 637.710938 L 608.09375 637.453125 C 605.785156 637.667969 603.492188 637.777344 601.230469 637.777344"/></g></g></svg>