<?xml version="1.0" encoding="UTF-8" standalone="no"?><svg xmlns="http://www.w3.org/2000/svg" xmlns:xlink="http://www.w3.org/1999/xlink" contentScriptType="text/ecmascript" fill="#000000" width="2853.3" zoomAndPan="magnify" contentStyleType="text/css" viewBox="100.9 1103.4 2853.3 944.1" height="944.1" preserveAspectRatio="xMidYMid meet" version="1"><g><g><g id="change1_1"><path fill="#dfe894" clip-rule="evenodd" d="M170.37,1115.67h2597.37c31.45,0,57.26,25.81,57.26,57.38v689.7c0,31.46-25.81,57.26-57.26,57.26H170.37 c-31.45,0-57.26-25.81-57.26-57.26v-689.7C113.1,1141.47,138.91,1115.67,170.37,1115.67L170.37,1115.67z" fill-rule="evenodd"/></g><g id="change2_1"><path fill="#5c3624" d="M170.37,1103.45h230.32v24.43H170.37c-12.33,0-23.62,5.07-31.8,13.25c-8.18,8.18-13.25,19.47-13.25,31.91 v689.7c0,12.33,5.07,23.62,13.25,31.8s19.47,13.25,31.8,13.25h2597.37c12.33,0,23.62-5.07,31.8-13.25s13.25-19.47,13.25-31.8 v-689.7c0-12.44-5.07-23.73-13.25-31.91c-8.18-8.18-19.47-13.25-31.8-13.25H555.77v-24.43h2211.97c19.13,0,36.52,7.83,49.08,20.39 c12.56,12.67,20.39,30.07,20.39,49.2v689.7c0,19.13-7.83,36.41-20.39,49.08c-12.56,12.56-29.96,20.39-49.08,20.39H170.37 c-19.13,0-36.52-7.83-49.08-20.39c-12.56-12.67-20.39-29.96-20.39-49.08v-689.7c0-19.13,7.83-36.52,20.39-49.2 C133.84,1111.29,151.24,1103.45,170.37,1103.45L170.37,1103.45z M504.96,1127.88h-53.58v-24.43h53.58V1127.88z"/></g><g id="change3_1"><path fill="#fef7eb" clip-rule="evenodd" d="M226.48,1170.16h2597.37c31.45,0,57.26,25.81,57.26,57.26v689.7c0,31.57-25.81,57.38-57.26,57.38H226.48 c-31.45,0-57.26-25.81-57.26-57.38v-689.7C169.22,1195.97,195.03,1170.16,226.48,1170.16L226.48,1170.16z" fill-rule="evenodd"/></g><g id="change2_2"><path fill="#5c3624" d="M226.48,1157.95h1603.73v24.43H226.48c-12.33,0-23.62,5.07-31.8,13.25c-8.18,8.18-13.25,19.47-13.25,31.8 v689.7c0,12.44,5.07,23.73,13.25,31.91c8.18,8.18,19.47,13.25,31.8,13.25h2597.37c12.33,0,23.62-5.07,31.8-13.25 c8.18-8.18,13.25-19.47,13.25-31.91v-689.7c0-12.33-5.07-23.62-13.25-31.8c-8.18-8.18-19.47-13.25-31.8-13.25h-838.45v-24.43 h838.45c19.13,0,36.52,7.83,49.08,20.39c12.56,12.56,20.39,29.96,20.39,49.08v689.7c0,19.13-7.83,36.52-20.39,49.08 c-12.56,12.67-29.96,20.39-49.08,20.39H226.48c-19.13,0-36.52-7.72-49.08-20.39c-12.56-12.56-20.39-29.96-20.39-49.08v-689.7 c0-19.13,7.83-36.52,20.39-49.08C189.96,1165.78,207.35,1157.95,226.48,1157.95L226.48,1157.95z M1934.6,1182.38h-53.58v-24.43 h53.58V1182.38z"/></g><g id="change4_1"><path fill="#fee283" clip-rule="evenodd" d="M579.97 1974.5L632.74 1943.97 685.4 1913.55 685.4 1974.5 685.4 2035.34 632.74 2004.92z" fill-rule="evenodd"/></g><g id="change2_3"><path fill="#5c3624" d="M574.09,1963.79l52.54-30.3l0,0l52.65-30.42c5.88-3.34,13.25-1.38,16.59,4.38c1.15,1.96,1.73,4.03,1.73,6.11 l0,0v60.95v60.84c0,6.68-5.53,12.21-12.21,12.21c-2.53,0-4.84-0.81-6.8-2.07l-51.96-30.07c-0.23-0.12-0.46-0.23-0.69-0.35 l-52.08-30.07c-5.76-3.34-7.72-10.72-4.38-16.59C570.52,1966.44,572.25,1964.83,574.09,1963.79L574.09,1963.79z M638.73,1954.57 l-34.45,19.93l33.87,19.47c0.23,0.12,0.35,0.23,0.58,0.35l34.45,19.93v-39.75v-39.87L638.73,1954.57L638.73,1954.57 L638.73,1954.57z M678.6,2045.48c-3.23-2.19-5.42-5.99-5.42-10.14"/></g><g id="change4_2"><path fill="#fee283" clip-rule="evenodd" d="M715.35 1974.5L768.12 1943.97 820.78 1913.55 820.78 1974.5 820.78 2035.34 768.12 2004.92z" fill-rule="evenodd"/></g><g id="change2_4"><path fill="#5c3624" d="M709.48,1963.79l52.54-30.3l0,0l52.65-30.42c5.88-3.34,13.25-1.38,16.71,4.38c1.04,1.96,1.61,4.03,1.61,6.11 l0,0v60.95v60.84c0,6.68-5.42,12.21-12.21,12.21c-2.53,0-4.84-0.81-6.8-2.07l-51.96-30.07c-0.23-0.12-0.46-0.23-0.69-0.35 l-51.96-30.07c-5.88-3.34-7.83-10.72-4.49-16.59C706.02,1966.44,707.63,1964.83,709.48,1963.79L709.48,1963.79z M774.11,1954.57 l-34.45,19.93l33.87,19.47c0.23,0.12,0.46,0.23,0.69,0.35l34.34,19.93v-39.75v-39.87l-34.34,19.93H774.11L774.11,1954.57z M813.98,2045.48c-3.23-2.19-5.42-5.99-5.42-10.14"/></g><g id="change4_3"><path fill="#fee283" clip-rule="evenodd" d="M850.73 1974.5L903.5 1943.97 956.16 1913.55 956.16 1974.5 956.16 2035.34 903.5 2004.92z" fill-rule="evenodd"/></g><g id="change2_5"><path fill="#5c3624" d="M844.86,1963.79l52.54-30.3l0,0l52.65-30.42c5.88-3.34,13.25-1.38,16.71,4.38c1.04,1.96,1.61,4.03,1.61,6.11 l0,0v60.95v60.84c0,6.68-5.42,12.21-12.21,12.21c-2.53,0-4.84-0.81-6.8-2.07l-51.96-30.07c-0.23-0.12-0.46-0.23-0.69-0.35 l-51.96-30.07c-5.88-3.34-7.83-10.72-4.49-16.59C841.4,1966.44,843.01,1964.83,844.86,1963.79L844.86,1963.79z M909.5,1954.57 l-34.45,19.93l33.87,19.47c0.23,0.12,0.46,0.23,0.69,0.35l34.34,19.93v-39.75v-39.87l-34.34,19.93l0,0H909.5z M949.36,2045.48 c-3.23-2.19-5.42-5.99-5.42-10.14"/></g><g id="change4_4"><path fill="#fee283" clip-rule="evenodd" d="M2881.12 1721.14L2850.7 1668.37 2820.28 1615.71 2881.12 1615.71 2941.95 1615.71 2911.53 1668.37z" fill-rule="evenodd"/></g><g id="change2_6"><path fill="#5c3624" d="M2870.52,1727.02l-30.3-52.54l0,0l-30.53-52.66c-3.34-5.88-1.38-13.36,4.49-16.71 c1.96-1.04,4.03-1.61,6.11-1.61l0,0h60.84h60.84c6.8,0,12.21,5.41,12.21,12.21c0,2.53-0.69,4.84-2.07,6.8l-29.96,51.96 c-0.12,0.23-0.35,0.46-0.46,0.69l-29.96,51.96c-3.34,5.88-10.83,7.84-16.59,4.49C2873.05,1730.47,2871.55,1728.86,2870.52,1727.02 L2870.52,1727.02z M2861.18,1662.38l19.93,34.45l19.59-33.87c0.12-0.23,0.23-0.46,0.35-0.69l19.82-34.45h-39.75h-39.75 l19.82,34.45l0,0V1662.38z M2952.09,1622.51c-2.19,3.23-5.88,5.3-10.14,5.3"/></g><g id="change4_5"><path fill="#fee283" clip-rule="evenodd" d="M2881.12 1585.76L2850.7 1532.99 2820.28 1480.22 2881.12 1480.22 2941.95 1480.22 2911.53 1532.99z" fill-rule="evenodd"/></g><g id="change2_7"><path fill="#5c3624" d="M2870.52,1591.63l-30.3-52.54l0,0l-30.53-52.77c-3.34-5.76-1.38-13.25,4.49-16.59 c1.96-1.15,4.03-1.61,6.11-1.61l0,0h60.84h60.84c6.8,0,12.21,5.41,12.21,12.1c0,2.53-0.69,4.95-2.07,6.91l-29.96,51.96 c-0.12,0.23-0.35,0.46-0.46,0.58l-29.96,52.08c-3.34,5.88-10.83,7.84-16.59,4.49C2873.05,1595.09,2871.55,1593.48,2870.52,1591.63 L2870.52,1591.63z M2861.18,1527l19.93,34.45l19.59-33.87c0.12-0.23,0.23-0.46,0.35-0.69l19.82-34.45h-39.75h-39.75l19.82,34.45 l0,0V1527z M2952.09,1487.13c-2.19,3.23-5.88,5.3-10.14,5.3"/></g><g id="change4_6"><path fill="#fee283" clip-rule="evenodd" d="M2881.12 1450.26L2850.7 1397.61 2820.28 1344.83 2881.12 1344.83 2941.95 1344.83 2911.53 1397.61z" fill-rule="evenodd"/></g><g id="change2_8"><path fill="#5c3624" d="M2870.52,1456.25l-30.3-52.54l0,0l-30.53-52.77c-3.34-5.76-1.38-13.25,4.49-16.59 c1.96-1.15,4.03-1.61,6.11-1.61l0,0h60.84h60.84c6.8,0,12.21,5.42,12.21,12.1c0,2.53-0.69,4.95-2.07,6.91l-29.96,51.96 c-0.12,0.23-0.35,0.35-0.46,0.58l-29.96,52.08c-3.34,5.76-10.83,7.83-16.59,4.49C2873.05,1459.71,2871.55,1458.09,2870.52,1456.25 L2870.52,1456.25z M2861.18,1391.5l19.93,34.57l19.59-33.87c0.12-0.23,0.23-0.46,0.35-0.69l19.82-34.45h-39.75h-39.75 L2861.18,1391.5L2861.18,1391.5L2861.18,1391.5z M2952.09,1351.75c-2.19,3.23-5.88,5.3-10.14,5.3"/></g></g></g></svg>