<?xml version="1.0" encoding="UTF-8" standalone="no"?><svg xmlns="http://www.w3.org/2000/svg" xmlns:xlink="http://www.w3.org/1999/xlink" contentScriptType="text/ecmascript" fill="#000000" width="363.2" zoomAndPan="magnify" contentStyleType="text/css" viewBox="0.0 0.0 363.2 95.2" height="95.2" preserveAspectRatio="xMidYMid meet" version="1"><defs><clipPath id="a"><path d="M 2 17 L 357 17 L 357 95.160156 L 2 95.160156 Z M 2 17"/></clipPath><clipPath id="b"><path d="M 347 48 L 363.21875 48 L 363.21875 73 L 347 73 Z M 347 48"/></clipPath></defs><g><g id="change1_9" clip-path="url(#a)"><path fill="#73b22d" d="M 179.128906 17.074219 C 239.847656 17.074219 292.808594 22.886719 321.167969 31.359375 C 330.742188 34.265625 356.800781 46.976562 336.5625 56.175781 C 307.59375 68.648438 356.800781 57.75 356.800781 75.0625 C 356.800781 86.203125 285.902344 95.160156 222.152344 95.160156 C 201.671875 95.160156 182.398438 94.3125 165.675781 92.617188 C 143.375 90.4375 39.511719 85.839844 39.511719 72.519531 C 39.511719 65.984375 58.175781 66.105469 31.390625 59.324219 C 15.632812 55.328125 2.910156 50.730469 2.910156 45.886719 C 2.910156 29.90625 88.472656 17.074219 179.128906 17.074219" fill-rule="evenodd"/></g><g id="change2_1"><path fill="#63a030" d="M 302.503906 52.304688 C 289.777344 56.78125 291.234375 56.902344 302.140625 61.503906 C 313.898438 66.46875 330.136719 70.949219 300.445312 78.089844 C 272.691406 84.871094 209.425781 85.960938 195.367188 84.75 C 175.976562 83.175781 157.070312 79.785156 140.101562 79.785156 C 136.34375 79.785156 132.832031 79.664062 129.316406 79.542969 C 95.625 78.695312 67.75 73.367188 67.75 66.832031 C 67.871094 61.625 88.109375 58.597656 71.261719 55.449219 C 27.875 49.15625 18.90625 37.292969 69.082031 30.753906 C 116.710938 23.492188 267.238281 14.652344 302.382812 32.207031 C 319.230469 40.558594 314.019531 48.308594 302.503906 52.304688" fill-rule="evenodd"/></g><g id="change3_1"><path fill="#66b5e4" d="M 291.71875 51.457031 C 279.960938 55.449219 277.539062 55.207031 287.597656 59.445312 C 298.503906 63.925781 314.140625 67.921875 290.992188 73.851562 C 265.417969 80.269531 206.882812 80.875 194.035156 79.785156 C 176.097656 78.332031 158.644531 75.304688 143.011719 75.304688 C 139.617188 75.304688 136.222656 75.183594 133.074219 75.183594 C 101.925781 74.335938 78.171875 69.496094 78.171875 63.5625 C 78.171875 61.867188 80.351562 60.292969 84.109375 58.839844 C 89.441406 56.660156 85.683594 56.296875 80.714844 55.328125 C 48.234375 49.398438 39.753906 36.929688 77.445312 31.359375 C 121.4375 24.820312 260.328125 16.953125 292.808594 32.570312 C 308.320312 40.074219 302.382812 47.824219 291.71875 51.457031" fill-rule="evenodd"/></g><g id="change4_1"><path fill="#79c9f0" d="M 291.71875 51.457031 C 279.960938 55.449219 277.539062 55.207031 287.597656 59.445312 C 298.503906 63.925781 314.140625 67.921875 290.992188 73.851562 C 265.417969 80.269531 206.882812 80.875 194.035156 79.785156 C 176.097656 78.332031 158.644531 75.304688 143.011719 75.304688 C 139.617188 75.304688 136.222656 75.183594 133.074219 75.183594 C 101.925781 74.335938 78.171875 69.496094 78.171875 63.5625 C 78.171875 61.867188 80.351562 60.292969 84.109375 58.839844 C 89.441406 56.660156 85.683594 56.296875 80.714844 55.328125 C 65.929688 52.667969 55.992188 48.550781 53.328125 44.433594 C 58.902344 41.890625 67.023438 39.710938 77.445312 38.140625 C 121.4375 31.601562 260.328125 23.730469 292.808594 39.351562 C 297.050781 41.40625 299.71875 43.464844 301.171875 45.523438 C 299.355469 47.945312 295.960938 50.003906 291.71875 51.457031" fill-rule="evenodd"/></g><g id="change5_1"><path fill="#8dd6f5" d="M 104.226562 49.398438 C 103.015625 49.519531 101.683594 49.640625 100.230469 49.640625 C 93.441406 49.640625 87.867188 47.703125 87.867188 45.28125 C 87.867188 43.101562 92.59375 41.164062 98.652344 40.921875 C 93.925781 41.527344 90.410156 43.101562 90.410156 45.039062 C 90.410156 47.460938 95.988281 49.398438 102.773438 49.398438 C 103.257812 49.398438 103.742188 49.398438 104.226562 49.398438" fill-rule="evenodd"/></g><g id="change5_2"><path fill="#8dd6f5" d="M 111.257812 47.824219 C 112.46875 47.945312 113.925781 48.066406 115.257812 48.066406 C 122.042969 48.066406 127.617188 46.128906 127.617188 43.707031 C 127.617188 41.527344 122.894531 39.710938 116.832031 39.472656 C 121.558594 40.074219 125.074219 41.648438 125.074219 43.585938 C 125.074219 45.886719 119.5 47.824219 112.710938 47.824219 C 112.226562 47.824219 111.742188 47.824219 111.257812 47.824219" fill-rule="evenodd"/></g><g id="change5_3"><path fill="#8dd6f5" d="M 159.371094 65.257812 C 157.917969 65.378906 156.34375 65.5 154.644531 65.5 C 146.890625 65.5 140.585938 63.320312 140.585938 60.535156 C 140.585938 57.992188 145.921875 55.8125 152.949219 55.570312 C 147.496094 56.175781 143.496094 58.113281 143.496094 60.292969 C 143.496094 63.078125 149.796875 65.257812 157.675781 65.257812 C 158.28125 65.257812 158.886719 65.257812 159.371094 65.257812" fill-rule="evenodd"/></g><g id="change5_4"><path fill="#8dd6f5" d="M 167.371094 63.441406 C 168.824219 63.683594 170.402344 63.804688 172.097656 63.804688 C 179.976562 63.804688 186.277344 61.503906 186.277344 58.71875 C 186.277344 56.175781 180.824219 54.121094 173.796875 53.757812 C 179.371094 54.484375 183.246094 56.296875 183.246094 58.476562 C 183.246094 61.261719 176.945312 63.5625 169.1875 63.5625 C 168.582031 63.5625 167.976562 63.5625 167.371094 63.441406" fill-rule="evenodd"/></g><g id="change5_5"><path fill="#8dd6f5" d="M 221.546875 45.402344 C 220.574219 45.523438 219.605469 45.644531 218.636719 45.644531 C 213.789062 45.644531 209.910156 44.3125 209.910156 42.496094 C 209.910156 40.921875 213.183594 39.710938 217.546875 39.472656 C 214.152344 39.953125 211.730469 41.042969 211.730469 42.375 C 211.730469 44.070312 215.605469 45.523438 220.453125 45.523438 C 220.820312 45.523438 221.183594 45.523438 221.546875 45.402344" fill-rule="evenodd"/></g><g id="change5_6"><path fill="#8dd6f5" d="M 226.394531 44.433594 C 227.363281 44.554688 228.332031 44.554688 229.300781 44.554688 C 234.148438 44.554688 238.027344 43.222656 238.027344 41.527344 C 238.027344 39.953125 234.757812 38.625 230.394531 38.382812 C 233.785156 38.867188 236.210938 39.953125 236.210938 41.285156 C 236.210938 42.980469 232.332031 44.433594 227.484375 44.433594 C 227.121094 44.433594 226.757812 44.433594 226.394531 44.433594" fill-rule="evenodd"/></g><g id="change5_7"><path fill="#8dd6f5" d="M 247.238281 71.671875 C 246.027344 71.792969 244.816406 71.914062 243.480469 71.914062 C 237.421875 71.914062 232.453125 70.222656 232.453125 68.042969 C 232.453125 65.984375 236.695312 64.289062 242.148438 64.046875 C 237.785156 64.652344 234.757812 66.105469 234.757812 67.800781 C 234.757812 69.980469 239.726562 71.671875 245.90625 71.671875 C 246.269531 71.671875 246.753906 71.671875 247.238281 71.671875" fill-rule="evenodd"/></g><g id="change5_8"><path fill="#8dd6f5" d="M 253.542969 70.34375 C 254.632812 70.460938 255.84375 70.582031 257.179688 70.582031 C 263.359375 70.582031 268.328125 68.769531 268.328125 66.589844 C 268.328125 64.652344 264.085938 62.957031 258.511719 62.714844 C 262.875 63.320312 266.023438 64.773438 266.023438 66.46875 C 266.023438 68.648438 261.054688 70.34375 254.875 70.34375 C 254.390625 70.34375 253.90625 70.34375 253.542969 70.34375" fill-rule="evenodd"/></g><g id="change5_9"><path fill="#8dd6f5" d="M 272.328125 45.402344 C 271.84375 45.402344 271.234375 45.523438 270.628906 45.523438 C 267.84375 45.523438 265.539062 44.675781 265.539062 43.707031 C 265.539062 42.738281 267.480469 42.011719 270.023438 41.890625 C 268.085938 42.132812 266.632812 42.738281 266.632812 43.585938 C 266.632812 44.554688 268.933594 45.402344 271.722656 45.402344 C 271.964844 45.402344 272.207031 45.402344 272.328125 45.402344" fill-rule="evenodd"/></g><g id="change5_10"><path fill="#8dd6f5" d="M 275.234375 44.675781 C 275.84375 44.796875 276.328125 44.796875 276.933594 44.796875 C 279.839844 44.796875 282.023438 44.070312 282.023438 42.980469 C 282.023438 42.132812 280.085938 41.40625 277.660156 41.285156 C 279.597656 41.527344 281.054688 42.132812 281.054688 42.980469 C 281.054688 43.949219 278.75 44.796875 275.84375 44.796875 C 275.722656 44.796875 275.476562 44.796875 275.234375 44.675781" fill-rule="evenodd"/></g><g id="change5_11"><path fill="#8dd6f5" d="M 157.796875 42.859375 C 157.3125 42.859375 156.707031 42.980469 156.101562 42.980469 C 153.3125 42.980469 151.011719 42.132812 151.011719 41.164062 C 151.011719 40.195312 152.949219 39.472656 155.492188 39.351562 C 153.433594 39.589844 152.101562 40.195312 152.101562 41.042969 C 152.101562 42.011719 154.28125 42.859375 157.191406 42.859375 C 157.433594 42.859375 157.554688 42.859375 157.796875 42.859375" fill-rule="evenodd"/></g><g id="change5_12"><path fill="#8dd6f5" d="M 160.707031 42.132812 C 161.191406 42.253906 161.796875 42.253906 162.402344 42.253906 C 165.191406 42.253906 167.492188 41.527344 167.492188 40.4375 C 167.492188 39.589844 165.554688 38.746094 163.007812 38.746094 C 164.945312 38.988281 166.402344 39.589844 166.402344 40.4375 C 166.402344 41.40625 164.097656 42.253906 161.3125 42.253906 C 161.070312 42.253906 160.828125 42.253906 160.707031 42.132812" fill-rule="evenodd"/></g><g id="change5_13"><path fill="#8dd6f5" d="M 201.910156 71.550781 C 201.304688 71.671875 200.820312 71.671875 200.214844 71.671875 C 197.308594 71.671875 195.003906 70.824219 195.003906 69.859375 C 195.003906 69.011719 197.066406 68.164062 199.488281 68.042969 C 197.550781 68.285156 196.09375 69.011719 196.09375 69.738281 C 196.09375 70.824219 198.398438 71.550781 201.304688 71.550781 C 201.429688 71.550781 201.671875 71.550781 201.910156 71.550781" fill-rule="evenodd"/></g><g id="change5_14"><path fill="#8dd6f5" d="M 204.699219 70.949219 C 205.304688 71.066406 205.910156 71.066406 206.519531 71.066406 C 209.304688 71.066406 211.609375 70.222656 211.609375 69.253906 C 211.609375 68.285156 209.667969 67.558594 207.125 67.4375 C 209.0625 67.679688 210.515625 68.40625 210.515625 69.132812 C 210.515625 70.222656 208.214844 70.949219 205.425781 70.949219 C 205.183594 70.949219 204.941406 70.949219 204.699219 70.949219" fill-rule="evenodd"/></g><g id="change5_15"><path fill="#8dd6f5" d="M 103.5 68.164062 C 102.652344 68.285156 101.804688 68.285156 100.835938 68.285156 C 96.59375 68.285156 93.199219 67.074219 93.199219 65.621094 C 93.199219 64.167969 96.109375 63.078125 99.867188 62.957031 C 96.957031 63.320312 94.773438 64.289062 94.773438 65.5 C 94.773438 66.953125 98.167969 68.164062 102.53125 68.164062 C 102.773438 68.164062 103.136719 68.164062 103.5 68.164062" fill-rule="evenodd"/></g><g id="change5_16"><path fill="#8dd6f5" d="M 107.742188 67.195312 C 108.59375 67.316406 109.441406 67.4375 110.410156 67.4375 C 114.652344 67.4375 118.046875 66.226562 118.046875 64.652344 C 118.046875 63.320312 115.136719 62.109375 111.257812 61.988281 C 114.289062 62.351562 116.46875 63.320312 116.46875 64.53125 C 116.46875 65.984375 112.953125 67.316406 108.714844 67.316406 C 108.46875 67.316406 108.105469 67.195312 107.742188 67.195312" fill-rule="evenodd"/></g><g id="change1_2"><path fill="#73b22d" d="M 179.492188 19.011719 L 175.492188 7.269531 L 181.308594 15.257812 L 185.429688 5.453125 L 184.21875 15.015625 L 194.035156 6.542969 L 184.582031 19.859375 L 179.492188 19.011719" fill-rule="evenodd"/></g><g id="change1_3"><path fill="#73b22d" d="M 246.875 20.464844 L 240.574219 6.90625 L 247.601562 14.167969 L 250.996094 6.421875 L 249.542969 15.5 L 263.480469 7.753906 L 252.816406 21.917969 L 246.875 20.464844" fill-rule="evenodd"/></g><g id="change1_4"><path fill="#73b22d" d="M 326.378906 40.316406 L 318.261719 15.257812 L 328.441406 30.996094 L 333.773438 19.253906 L 332.199219 30.753906 L 345.042969 21.3125 L 330.136719 42.375 L 326.378906 40.316406" fill-rule="evenodd"/></g><g id="change1_5"><path fill="#73b22d" d="M 10.90625 42.496094 L 0 23.128906 L 8.96875 32.207031 L 9.9375 15.863281 L 14.785156 33.175781 L 22.664062 19.253906 L 19.027344 43.34375 L 10.90625 42.496094" fill-rule="evenodd"/></g><g id="change1_6"><path fill="#73b22d" d="M 83.988281 24.457031 L 73.324219 5.695312 L 83.140625 15.742188 L 84.835938 0.367188 L 88.835938 12.957031 L 99.136719 0.00390625 L 91.019531 26.515625 L 83.988281 24.457031" fill-rule="evenodd"/></g><g id="change1_1" clip-path="url(#b)"><path fill="#73b22d" d="M 353.285156 72.761719 L 363.222656 53.878906 L 356.316406 61.140625 L 354.496094 48.429688 L 351.832031 61.988281 L 347.105469 55.089844 L 348.316406 71.066406 L 353.285156 72.761719" fill-rule="evenodd"/></g><g id="change1_7"><path fill="#73b22d" d="M 139.011719 19.496094 L 134.40625 11.382812 L 138.648438 15.742188 L 139.375 9.203125 L 141.070312 14.53125 L 145.433594 8.960938 L 141.921875 20.34375 L 139.011719 19.496094" fill-rule="evenodd"/></g><g id="change1_8"><path fill="#73b22d" d="M 301.898438 27.96875 L 306.382812 19.980469 L 302.261719 24.21875 L 301.535156 17.679688 L 299.839844 23.007812 L 295.355469 17.4375 L 298.867188 28.816406 L 301.898438 27.96875" fill-rule="evenodd"/></g></g></svg>