<?xml version="1.0" encoding="UTF-8" standalone="no"?><svg xmlns="http://www.w3.org/2000/svg" xmlns:xlink="http://www.w3.org/1999/xlink" contentScriptType="text/ecmascript" fill="#000000" width="2560" zoomAndPan="magnify" contentStyleType="text/css" viewBox="30.1 18.0 2560.0 1527.0" height="1527" preserveAspectRatio="xMidYMid meet" version="1"><g id="change1_1"><path fill="inherit" d="M2558.073,17.983c1.35,0.87,2.739,1.726,4.18,2.57c2.207-2.35,4.063-1.064,5.725,1c2.246,0.896,4.284,2.285,6.114,3.92 c0.636,0.195,1.896,0.584,2.519,0.766c4.79,8.165,3.764,17.94,3.726,27.014c-2.882,7.516-5.271,15.266-5.984,23.314 c-0.61,6.374-4.076,12.007-4.569,18.394c-3.751,6.101-5.854,13.111-10.774,18.485c-3.479,4.881-6.438,10.229-11.125,14.097 c-3.829,2.96-0.636,7.996-0.195,11.813c4.206,3.739,8.996,7.308,10.917,12.864c2.402,1.765,4.829,3.518,7.334,5.192 c5.257,0.493,9.957,3.115,14.422,5.764c3.44,2.778,6.309,6.218,9.788,8.996c-0.987,0.247-2.972,0.753-3.972,1.013 c0.87,0.948,2.622,2.843,3.492,3.79c-20.602-9.644-16.544-13.355-39.32-25.3c-5.569-3.193-12.176-2.246-18.122-4.102 c-8.853-1.441-16.278-7.049-25.053-8.697c-7.425-1.48-15.279-4.154-22.665-1.155c-0.039-2.947,0.844-5.984,0.221-8.866 c-1.908-2.687-4.115-5.14-5.829-7.944c0.545-1.129,1.623-3.375,2.168-4.504c-6.27-5.699-14.643-7.737-21.873-11.761 c1.064-0.532,3.219-1.597,4.284-2.129c4.271,1.207,8.49,2.687,12.877,3.557c2.492-0.143,4.92-0.961,7.464-0.935 c5.387,0.948,10.021,4.998,15.603,4.881c3.752-1.013,8.918-0.299,10.943-4.414c6.322-10.034,12.306-20.354,16.473-31.505 c1.065-7.347,6.698-12.475,10.424-18.511C2542.652,42.297,2552.18,31.094,2558.073,17.983z"/><path fill="inherit" d="M356.819,118.639c4.141-5.906,8.49-11.813,14.396-16.097c2.025,0.74,4.063,1.441,6.14,2.077 c-0.026,0.714-0.065,2.155-0.091,2.882c0.792-0.013,2.363-0.039,3.154-0.052c-0.013,0.961-0.039,2.882-0.052,3.829 c1.48,0.208,2.973,0.428,4.478,0.649c-0.415,1.038-0.818,2.064-1.22,3.102c1.077,7.373,0.441,14.889,0.948,22.314 c-0.857,0.104-2.557,0.312-3.401,0.415c-0.221,5.608-0.857,11.216-0.831,16.836c1.545,17.888-1.051,35.776-4.232,53.352 c30.107,4.054,23.335,1.04,33.322-0.519c1.415,1.843,2.012,4.141,2.986,6.244c-7.854,1.649-15.954,1.025-23.807,2.596 c-1.506-0.402-3.012-0.792-4.517-1.155c2.116,5.621,8.632,6.088,13.76,6.698c4.738,0.363,9.217,2.103,13.371,4.336 c-4.274,3.552-15.256,0.145-23.6-1.597c-0.299,1.09-0.883,3.258-1.181,4.349c-4.478-1.752-8.58-4.284-12.54-6.984 c-11.813,2.22-24.327,2.531-35.867-1.246c-5.958-1.765-12.176-2.402-18.135-4.193c-0.792-2.466-1.558-4.933-2.259-7.412 c-4.998-1.701-10.255-2.311-15.383-3.401c2.583-1.817,5.725-2.025,8.775-2.116c4.53-0.117,8.451-2.765,12.825-3.635 c4.284-0.519,8.606-0.117,12.916,0.026c1.155-1.467,2.492-2.83,3.362-4.504c3.193-10.8,3.31-22.301,1.662-33.387 c-2.64-15.085,3.416-17.527,6.179-26.092C350.004,129.763,352.834,123.805,356.819,118.639z"/><path fill="inherit" d="M55.904,257.848c1.35-0.584,2.7-1.155,4.063-1.701c0.169,0.571,0.493,1.701,0.662,2.272 c4.011,1.025,7.555,3.388,11.644,4.141c4.504,0.792,8.97,2.142,12.786,4.751c4.206,2.804,8.983,4.738,12.929,7.918 c2.96,3.219,4.959,7.192,7.23,10.904c2.285,3.752,0.974,8.334,1.142,12.462c3.855,2.415,8.425,3.92,11.164,7.802 c-0.87,0.714-2.622,2.129-3.492,2.843c8.477,4.167,19.485,4.375,25.248,12.955c-11.021-1.558-21.704-5.296-31.129-11.229 c-3.038,4.349-2.83,9.541-2.882,14.591c-2.129,6.036-3.44,12.319-5.231,18.472c0.221,2.272,1.324,4.414,1.973,6.633 c11.787-1.752,22.003,5.283,31.869,10.567c5.504,3.466,13.864,6.581,12.864,14.565c2.155,0.701,4.478,1.09,6.413,2.337 c1.441,1.713,2.207,3.881,3.57,5.673c5.309,2.856,11.462,0.428,17.083,0.026c-0.13,0.701-0.389,2.129-0.519,2.83 c3.44,0.48,7.114,0.441,10.008,2.687c-4.258,2.661-9.281,1.285-13.942,1.194c-6.335-0.402-11.761-4.816-18.212-4.323 c-1.571,3.985-3.206,8.061-5.88,11.475c-4.465,4.556-9.191,9.087-12.462,14.617c-1.35,6.491-3.284,12.851-5.854,18.978 c-0.753,0.506-2.246,1.506-2.986,2.012c-0.286,1.428-0.545,2.882-0.779,4.349c-2.661,2.895-4.427,6.763-8.282,8.334 c-0.182,0.831-0.545,2.492-0.727,3.336c-0.883-0.584-1.765-1.142-2.648-1.701c-3.271,1.61-6.529,3.232-9.736,4.998 c-0.532-11.995,0.558-23.95,1.129-35.919c1.519-8.645,0.61-17.447,1.376-26.157c0.143-2.7,2.246-4.673,3.57-6.854 c-6.997-1.843-14.123-3.154-21.341-3.648c-2.635-3.829-2.739-10.32-8.23-11.177c-4.816-1.584-9.905-2.194-14.604-4.141 c7.204-1.662,15.227,0.363,21.873-3.557c1.337-1.506,0.935-3.79,1.389-5.621c0.428-4.959,3.102-9.866,1.454-14.85 c-2.973-11.475-5.283-23.119-8.308-34.595c-8.386-2.999-17.473-2.765-25.923-5.543c-2.427-1.168-4.167-3.323-6.179-5.037 c0.376-0.857,1.142-2.544,1.519-3.388c-5.893-3.609-12.786-4.569-19.368-6.205c5.283-3.362,11.8-0.597,17.421-2.752 c4.816-1.882,10.06-1.532,15.045-2.557c-1.856-6.439-3.933-12.994-2.921-19.796C58.474,259.782,57.176,258.821,55.904,257.848z"/><path fill="inherit" d="M2195.291,276.047c3.816-1.662,8.074-1.129,11.956,0.091c0.701-0.351,2.09-1.039,2.791-1.376 c0.675,0.35,1.999,1.064,2.674,1.415c10.151-1,18.732,5.556,28.416,6.971c6.426,3.258,12.254,7.568,18.667,10.891 c4.05,1.895,6.958,5.413,10.709,7.789c2.856,1.441,2.973,5.426,5.958,6.698c9.333,5.115,20.744,6.01,28.753,13.565 c-1.688,0.636-3.103,2.583-5.037,1.869c-6.646-1.026-13.098-3.077-19.238-5.751c-1.103,0.35-2.194,0.662-3.258,0.961 c0.454-0.935,0.948-1.856,1.467-2.765c-7.127-2.311-13.461-6.737-20.9-8.113c-1.052,2.155-2.077,4.31-3.115,6.465 c-2.259,6.776-6.984,12.28-10.385,18.472c-5.011,9.009-12.475,16.395-17.213,25.56c-2.804,5.582-7.127,10.229-11.644,14.474 c-0.221,0.571-0.662,1.726-0.883,2.298c-5.763,4.05-10.307,9.489-15.655,14.007c-1.233-0.571-2.427-1.116-3.596-1.675 c-1.181,1.09-2.35,2.194-3.505,3.284c-0.636-0.649-1.895-1.973-2.531-2.622c-1.012,0.312-3.024,0.948-4.037,1.259 c-0.454-1.623-0.896-3.245-1.311-4.855c-0.961,0.597-2.882,1.804-3.842,2.414c-0.177-4.929,4.8-29.859,10.579-44.24 c2.661-6.491,2.882-13.708,5.842-20.108c1.649-4.076,5.413-6.594,8.308-9.723c3.271-3.635,5.764-7.88,8.23-12.085 c-1.142-0.857-2.259-1.714-3.349-2.544c-6.14-0.337-12.903-1.869-15.707-8.022c0.532-0.844,1.571-2.531,2.09-3.375 c-5.14-2.765-10.515-5.387-16.421-5.816c-2.635-0.091-4.894-1.428-6.257-3.635C2180.986,277.28,2188.476,278.89,2195.291,276.047z"/><path fill="inherit" d="M640.014,437.428c3.726-1.856,7.763-2.843,11.839-3.583c9.672,5.505,1.203,0.31,10.411,6.971 c0.792,2.038,1.545,4.076,2.324,6.14c0.48,0.026,1.441,0.091,1.921,0.117c1.064,1.415,2.155,2.83,3.258,4.258 c-0.337,3.531,0.896,6.503,4.362,7.828c-0.104,0.571-0.312,1.701-0.402,2.272c1.285,2.466,2.505,4.998,3.635,7.568 c-0.662,4.115-0.26,8.49,3.18,11.294c2.324,10.58,6.88,20.627,7.633,31.531c1.845,7.608-5.646,6.813,1.272,27.689 c3.648,0.26,7.217,1.207,10.372,3.141c-0.818,1.051-2.453,3.167-3.271,4.232c8.71,3.258,18.044,5.076,26.235,9.658 c1.714,0.961,2.311,2.986,3.154,4.66c-3.92-0.636-7.659-1.921-11.514-2.752c-8.451-1.207-16.369-4.686-24.807-5.984 c-0.364,2.389-0.701,4.803-1,7.217c1.09,0.753,2.116,1.597,3.077,2.518c1.311,4.738,1.636,9.671,1.908,14.565 c-1.584,5.803-1.649,11.943-3.622,17.667c-1,2.973-1.181,6.127-1.363,9.256c-0.454,0.415-1.363,1.246-1.817,1.661 c-6.446,8.295-11.346,8.748-17.148,12.163c-0.519-0.26-1.558-0.805-2.077-1.064c-1.026,0.48-2.038,0.961-3.038,1.467 c-0.558-0.753-1.674-2.259-2.22-2.999c-1.077,0.558-2.142,1.116-3.193,1.701c-2.674-1.493-6.893-1.882-7.568-5.465 c-3.038-10.255,0.896-20.705,0.338-31.09c1.674-10.658,2.843-21.432,1.83-32.219c-5.867-1.493-12.202-1.804-17.447-5.076 c-1.999-0.909-2.012-3.349-2.739-5.089c-5.569-3.79-12.319-4.79-18.55-6.971c5.802-1.869,11.969,0.48,17.693-1.558 c5.257-1.921,10.865-0.519,16.161,0.48c1-1.025,1.999-2.051,3.012-3.064c0.979-24.435-9.517-28.326-9.788-43.759 c-0.156-6.257-3.349-11.878-3.816-18.07C637.742,455.602,638.054,446.385,640.014,437.428z"/><path fill="inherit" d="M1522.78,467.609c-1.35-4.284-6.439-7.023-5.426-11.969c3.777,1.09,7.373,2.713,11.008,4.232 c0.364,0.389,1.077,1.168,1.441,1.558c8.178,3.154,15.331,8.334,22.639,13.072c5.063,3.323,9.827,7.776,11.891,13.617 c0.298,4.18-0.402,8.373-0.026,12.579c-0.753,1.506-1.493,3.025-2.22,4.556c2.466,2.246,5.179,4.206,7.983,6.036 c-0.558,0.584-1.675,1.753-2.233,2.35c5.776,2.038,11.553,4.803,17.836,4.647c6.335,0.117,12.228,2.661,17.914,5.205 c1.48,0.883,2.337,2.427,3.544,3.674c-13.306-1.934-26.326-5.504-38.917-10.177c-5.854-1.714-11.462-4.595-17.68-4.673 c-1.194,0.818-2.362,1.649-3.531,2.479c0.091,0.792,0.272,2.389,0.363,3.193c-1.207,0.013-3.648,0.052-4.868,0.065 c-1.194,0.389-2.389,0.701-3.596,0.961c0.312-1.259,0.714-2.492,1.22-3.7c-12.163-1.804-23.768-7.023-36.217-6.724 c-5.205,0.104-11.553-1.026-13.864-6.361c0.35-1.298,1.064-3.894,1.415-5.192c-6.997-5.802-16.278-6.023-24.638-8.23 c5.335-3.401,11.722-1.74,17.641-2.168c4.349-0.117,8.269-3.362,12.722-2.233c6.218,1.389,12.955,1.973,18.797-1.103 c-2.817-3.18-5.491-6.491-8.386-9.593c0.662-0.597,1.973-1.778,2.635-2.376c4.128,1.298,7.957,3.323,11.891,5.115 C1524.896,474.359,1523.624,470.374,1522.78,467.609z"/><path fill="inherit" d="M774.55,663.234c0.143-5.66,1.986-11.06,3.077-16.564c1.22,2.596,3.985,1.752,6.27,1.752 c0.493,0.545,1.467,1.636,1.96,2.181c1.181-0.558,2.375-1.103,3.583-1.636c1.986,0.545,3.972,1.064,5.984,1.584 c0.974,2.142,2.025,4.284,3.154,6.387c1.012-0.117,3.064-0.35,4.089-0.454c2.246,2.207,3.894,4.92,4.556,8.035 c5.828,2.557,6.685,9.45,10.424,13.981c3.933,4.699,4.595,11.125,4.18,17.031c-0.714,1.986-2.311,3.492-3.388,5.296 c2.713,3.868,7.555,5.076,11.164,7.893c0.948,1.207,1.402,3.206,3.141,3.635c8.373,3.635,18.849,4.167,24.742,12.008 c-22.412-4.563-28.007-9.668-39.203-10.917c0.363,1.493,0.753,2.986,1.168,4.491c-0.26,0.428-0.766,1.285-1.013,1.727 c-1.869,17.54-15.744,37.34-26.326,43.344c-0.506,2.142-0.299,4.375-0.727,6.542c-16.845,15.454-4.359,4.18-16.291,14.123 c-0.493-0.35-1.493-1.051-1.999-1.402c-0.649,0.48-1.973,1.428-2.622,1.895c-1.103-1.077-2.194-2.142-3.271-3.206 c-1.194,0.935-2.363,1.882-3.531,2.843c-0.299-1.013-0.883-3.038-1.181-4.05c-0.883,0.052-2.674,0.13-3.557,0.169 c-0.104-6.945,1.298-13.76,2.674-20.523c1.454-6.737,5.063-12.773,6.335-19.55c1.052-5.556,3.622-10.644,6.763-15.305 c3.414-5.128,5.348-11.034,7.192-16.862c-4.985-1.636-10.177-2.531-15.006-4.595c-0.091-1.726-0.182-3.44-0.247-5.141 c-5.27-3.206-11.293-4.504-17.304-5.452c3.323-1.688,7.049-2.038,10.722-2.116c3.661,0.169,6.724-2.337,10.333-2.492 c4.491-0.221,8.996,0.389,13.487-0.195c-0.441-3.193-1.246-6.309-2.363-9.32c-1.415-1.233-2.778-2.492-4.128-3.752 C776.523,670.802,774.836,667.154,774.55,663.234z"/><path fill="inherit" d="M1540.837,774.119c0.441-0.961,1.35-2.856,1.791-3.803c0.87,1.688,1.752,3.388,2.648,5.102 c0.675-0.61,2.025-1.83,2.7-2.427c0.974,1.181,1.96,2.376,2.973,3.583c0.571-0.065,1.739-0.169,2.31-0.221 c2.441,5.971,3.427,12.371,4.634,18.68c0.935,4.998,3.544,9.658,3.453,14.85c0.039,5.192,0.13,10.437,1.181,15.564 c-0.987,0.922-1.895,1.895-2.752,2.908c0.415,1.389,0.961,2.752,1.623,4.089c0.597,14.552-3.557,28.818-8.827,42.228 c0.922,2.596,0.818,5.984,3.232,7.802c9.204,6.491,20.64,7.932,30.999,11.774c3.193,1.168,5.348,3.92,6.88,6.88 c-14.032-3.466-27.779-8.243-41.942-11.229c-0.792,1.194-1.571,2.388-2.337,3.609c-6.335,0.597-12.747,0.312-19.03,1.389 c-7.724,1.882-15.383-1.791-23.197-0.558c-0.779-3.907-0.467-7.905,0.039-11.813c-5.893-1.454-15.422-2.713-14.85-10.813 c-5.906-4.037-12.929-5.309-19.77-6.802c5.283-4.128,12.592,0,18.446-2.817c5.465-2.804,11.501-0.701,17.174,0.221 c1.869-0.87,3.765-1.701,5.686-2.505c8.029-23.883,2.121-31.08,5.79-41.825c2.142-6.257,2.622-12.942,4.92-19.134 c3.505-9.035,7.594-17.823,11.086-26.845C1537.371,772.704,1539.097,773.418,1540.837,774.119z"/><path fill="inherit" d="M802.343,867.946c1.908,0.13,3.816,0.273,5.738,0.415c0.805,0.987,1.623,1.973,2.44,2.986 c1.168-0.714,2.337-1.415,3.531-2.09c0.078,0.753,0.234,2.259,0.312,3.012c1.519-0.013,3.051-0.013,4.582,0 c4.089,2.402,8.594,4.44,11.54,8.334c3.661,1.337,6.659,3.907,8.827,7.14c2.57,4.115,7.503,5.426,11.125,8.321 c2.453,3.115,0.987,7.425,1.558,11.086c7.308,6.205,15.162,12.436,24.885,14.136c4.803,0.532,8.736,3.479,11.618,7.23 c-4.712-0.87-9.281-2.285-13.929-3.349c-8.048-1.791-15.136-6.971-23.509-7.412c-1.765,8.087-2.233,16.603-5.777,24.223 c-4.05,7.737-7.477,16.148-14.357,21.886c-3.596,2.726-3.518,9.255-8.464,10.073c-3.492,0.26-1.337,4.492-2.194,6.62 c-0.753-0.532-2.246-1.584-2.986-2.103c-4.578,9.204-2.554,3.477-7.023,12.215c-2.492,0.701-4.959,1.454-7.464,1.999 c0.156,0.402,0.493,1.207,0.649,1.61c-2.518-0.195-4.92,0.467-7.153,1.584c0.13-1.986,0.26-3.946,0.415-5.893 c-1.22,0.805-2.466,1.584-3.739,2.311c-1.882-1.804-3.687-3.661-5.543-5.465c2.414-10.073,4.453-20.289,8.217-29.986 c2.531-6.296,2.389-13.591,6.478-19.238c5.257-8.438,12.124-17.187,11.307-27.715c-4.946-3.128-10.995-3.57-16.135-6.192 c-3.154-1.402-3.453-5.011-4.167-7.918c-5.231-3.089-11.268-4.024-17.018-5.66c3.103-1.454,6.465-1.688,9.814-1.207 c4.427,0.61,8.606-1.765,13.02-1.168c4.232,0.467,8.412,1.441,12.579,2.337c1.649-0.454,3.258-0.948,4.933-1.363 c-0.532-1.064-1.051-2.103-1.571-3.128c-4.582-1.389-11.566-1.584-12.916-7.204C801.239,874.917,801.927,871.386,802.343,867.946z"/><path fill="inherit" d="M959.154,941.613c5.815-1.688,11.826,0.714,17.693-0.532c4.816-1.051,9.45,1.155,14.02,2.401 c-0.974,0.376-2.934,1.142-3.907,1.519c1.428,1.532,2.817,3.038,4.245,4.634c1.155-1.545,2.388-3.025,3.687-4.453 c3.713,2.389,8.022,3.453,12.124,4.946c1.623,3.479,5.491,4.193,8.71,5.491c1.934,4.517,6.841,6.088,10.709,8.503 c7.854,4.985,18.342,4.18,25.131,11.099c1.467,2.103-1.35,3.012-2.934,2.233c-7.49-2.622-15.357-4.154-22.6-7.438 c-3.193-1.181-6.309-3.089-9.801-2.973c-0.87,4.712-2.363,9.294-5.063,13.306c-0.532,6.4-5.05,11.384-8.814,16.226 c-0.779,6.88-3.881,13.085-6.828,19.238c-0.714,0.273-2.142,0.805-2.856,1.077c-0.208,1.856-0.415,3.713-0.597,5.608 c-0.727,0.143-2.207,0.441-2.947,0.597c-1.765,4.427-5.076,7.906-8.529,11.086c-1.739,0.506-3.466,1.064-5.179,1.662 c-2.414,0.065-4.816,0.182-7.204,0.35c-1.908-1.752-4.115-3.141-6.568-3.907c0.428-9.022,0.247-18.109,1.843-27.04 c0.805-5.4,2.765-10.593,2.96-16.084c0.674-15.154,6.326-13.713,11.982-25.209c-2.531-0.402-5.089-0.649-7.62-0.831 c-1.597-3.609-5.517-4.466-8.593-6.257c-1.714-1.752-1.869-4.375-2.544-6.568c-5.634-3.946-13.02-3.064-18.628-6.841 C947.043,942.302,953.261,943.483,959.154,941.613z"/><path fill="inherit" d="M1594.76,1029.625c2.713-2.622,4.634-6.945,9.035-6.646c0.87,1.778,1.765,3.557,2.687,5.348 c1.649-0.688,3.297-1.376,4.998-2.012c10.413,3.283,4.544,0.018,28.416,13.773c1.882,1.077,3.427,2.596,5.011,4.115 c-3.466-0.662-6.672-2.116-9.879-3.479c2.337,5.491,9.152,5.439,13.357,8.84c5.53,4.18,12.423,5.751,19.225,6.296 c3.128,2.518,6.984,4.284,9.126,7.906c-5.517,0.273-10.502-2.298-15.811-3.271c-7.918-1.649-15.188-6.27-23.483-5.906 c-5.274,19.8-22.381,29.131-31.972,37.814c-0.662,0.195-1.973,0.558-2.635,0.753c1.194,2.311,2.025,4.816,1.298,7.451 c-1.103-0.065-3.284-0.169-4.375-0.234c-0.39,1.181-0.779,2.389-1.129,3.596c-3.284,2.466-6.101,5.764-10.138,6.997 c-1.233,2.181-3.102,3.777-5.647,4.115c-0.545,0.558-1.623,1.688-2.168,2.246c-1.337-0.961-2.661-1.895-3.972-2.817 c-0.454,1.61-0.896,3.232-1.337,4.868c-0.389-0.922-1.181-2.765-1.571-3.7c-0.857,0.156-2.583,0.454-3.44,0.597 c-1.142-1.194-2.285-2.376-3.414-3.518c1.675-13.462,6.854-26.313,13.137-38.229c2.025-5.179,3.271-10.813,6.711-15.292 c5.478-3.258,11.865-5.348,15.603-10.917c-1.078-0.026-3.219-0.065-4.284-0.091c-0.376-0.675-1.129-2.038-1.506-2.726 c-4.751-0.221-10.034-0.312-12.54-5.102c-0.013-1.441-0.013-2.869,0.026-4.271c-6.101-2.908-12.592-4.79-18.952-6.984 c4.972-1.947,10.268-0.493,15.383-0.169c3.388-1.078,7.049-1.026,10.463-0.039c1.765,1.389,3.193,3.193,4.764,4.829 C1595.409,1032.364,1595.072,1030.988,1594.76,1029.625z"/><path fill="inherit" d="M1105.088,1092.61c5.504-6.932,13.02-11.696,19.588-17.486c4.206,2.986,9.321,5.024,12.124,9.606 c-1.311,4.076-2.375,8.373-5.335,11.631c0.091,0.727,0.273,2.155,0.363,2.869c-0.441,0.753-1.311,2.259-1.752,3.012 c-4.92,0.766-9.762,1.856-14.578,3.025c0.779,2.272,0.506,5.426,2.934,6.75c2.427,1.739,5.517,2.895,6.984,5.725 c0.052,12.15-5.608,23.249-8.516,34.789c-1.441,3.051,2.856,1.947,4.362,2.778c-1.766,0.195-3.57,0.273-5.283,0.701 c-0.857,1.558-1.623,3.154-2.324,4.803c0.74,0.584,2.207,1.74,2.947,2.311c-1.324,0.792-2.648,1.584-3.946,2.388 c4.92,2.311,10.203,4.284,13.942,8.438c7.516,4.881,16.979,5.05,25.248,8.204c0.545,1.142,1.103,2.324,1.674,3.505 c-6.802,0.182-12.838-3.154-19.134-5.167c-8.542-2.856-16.992-7.931-26.3-6.568c-14.318,1.142-26.832-6.906-40.579-9.165 c-1.116-1.493-2.259-2.973-3.362-4.427c0.61-0.701,1.843-2.103,2.453-2.804c-6.296-2.7-12.929-4.388-19.407-6.516 c4.556-1.324,9.282-0.818,13.89-0.052c4.868-2.142,9.891-0.428,14.266,2.012c2.415-2.57,5.621-4.18,8.191-6.543 c5.024-10.606,5.854-22.392,6.62-33.907C1094.677,1105.552,1100.064,1099.204,1105.088,1092.61z"/><path fill="inherit" d="M995.67,1199.184c1.947-0.714,3.842-1.675,5.906-2.064c3.687,2.259,8.061,2.025,12.111,3.115 c3.012,0.468,3.557,3.946,5.569,5.777c1.701,0.714,3.544,1.038,5.361,1.519c1.363,1.727,2.752,3.466,4.18,5.192 c0.065,1.233,0.156,2.492,0.26,3.765c1.623,1.96,3.103,4.024,4.595,6.127c-1.649,3.479-3.998,6.53-7.204,8.71 c8.386,3.635,14.889,11.164,24.327,12.319c5.764,0.727,11.151,3.076,15.694,6.711c-9.658,1.817-19.381-2.272-27.961-6.361 c-2.389-1.688-5.024,0.169-7.425,0.766c-3.012-1.688-6.01-3.375-8.983-5.089c-0.48,0.338-1.454,1.013-1.934,1.363 c-0.13,2.298,0.61,5.024-1.013,6.997c-1.584,1.493-3.505,2.557-5.128,3.985c-2.285,6.633-8.918,10.203-11.683,16.681 c-4.154,1.83-7.646,4.777-10.541,8.256c-0.636,0.169-1.895,0.506-2.518,0.675c-8.578,6.855-30.261,15.238-33.725,6.283 c2.518-5.803,5.686-11.294,8.892-16.733c3.219-5.335,5.841-11.099,9.918-15.863c4.816-5.997,9.801-12.306,11.527-19.978 c-3.323-1.168-6.945-1.792-9.866-3.856c-1.48-1.674-1.74-4.011-2.363-6.036c-4.777-3.557-10.852-3.998-16.148-6.348 c4.232-2.622,9.307-1.026,13.968-1.337c5.751-0.324,11.592-0.792,17.252,0.675c1.467-0.688,2.934-1.363,4.453-1.999 C994.047,1208.024,994.67,1203.572,995.67,1199.184z"/><path fill="inherit" d="M1196.526,1321.869c6.023-0.714,12.163-0.467,18.031-2.259c4.037-1.181,7.711,1.233,11.345,2.622 c4.323-1.519,9.191-0.156,11.242,4.18c3.817,0.415,7.958,0.234,11.359,2.337c9.255,5.725,17.304,13.202,26.689,18.706 c5.971,2.401,12.475,3.323,18.187,6.464c-0.078,0.896-0.26,2.674-0.35,3.57c-6.698-1.116-13.332-2.765-19.407-5.854 c-3.972-1.428-7.659-4.349-11.995-4.167c-2.466,7.672-5.4,15.305-10.346,21.769c-1.947,0.597-3.855,1.259-5.764,1.934 c1.129,0.26,3.401,0.766,4.53,1.026c-4.115,3.79-7.607,8.308-9.71,13.526c-1.052-0.389-2.064-0.753-3.064-1.09 c0.493,2.388,1.376,4.79,1.363,7.295c-1.765,1.077-3.648,1.908-5.478,2.83c-1.973,3.816-5.361,6.529-8.217,9.645 c-0.649-0.312-1.259-0.584-1.856-0.818c-4.063,3.167-9.009,1.415-13.422,0.156c-0.208-5.361,0.441-10.722,0.753-16.057 c0.454-7.97,3.518-15.435,4.985-23.21c0.922-4.401,2.843-8.503,4.336-12.708c-1.35,0.247-4.063,0.753-5.426,0.999 c0.506-5.257,1.869-10.398,4.284-15.11c-2.401-1.727-4.725-3.557-6.854-5.582c0.026-1.052,0.078-3.167,0.117-4.219 C1207.534,1324.127,1201.238,1324.841,1196.526,1321.869z"/><path fill="inherit" d="M1464.053,1382.568c4.492,1.259,9.178,1.506,13.786,2.116c4.18,0.402,7.399,3.362,10.787,5.569 c0.143,3.206,0.987,6.646-0.467,9.71c-2.622,1.856-5.621,3.077-8.321,4.777c5.75,4.232,12.475,7.114,19.575,8.087 c4.011,0.948,9.892,1.83,10.891,6.672c-6.594-2.583-13.734-2.778-20.458-4.829c-4.881-1.389-10.008-1.311-14.915-0.195 c-0.909,6.14-5.348,10.606-9.165,15.136c-3.869,7.516-11.891,11.203-18.862,15.253c-4.79,2.843-9.879,5.167-15.019,7.282 c-3.739-0.935-8.152-0.714-10.671-4.115c3.726-8.58,8.788-16.46,13.422-24.547c4.284-5.218,8.412-10.671,10.502-17.187 c-3.713-1.791-7.659-3.894-8.425-8.347c-4.258-3.401-9.684-4.323-14.513-6.491c4.336-2.038,8.996,0.338,13.487-0.753 c4.154-0.831,8.464-0.844,12.527,0.519c2.921-0.389,5.88-0.402,8.84-0.792C1460.419,1389.007,1462.535,1385.735,1464.053,1382.568z"/><path fill="inherit" d="M2209.285,1456.521c3.077-0.013,6.179,0.182,9.281,0.467c0.117,0.844,0.351,2.531,0.467,3.375 c5.634-0.234,10.709,2.492,15.629,4.92c3.466,1.765,7.308,2.934,10.424,5.387c1.337,3.076,1.7,6.529,2.804,9.736 c-1.052,1.506-2.09,3.038-3.103,4.582c14.783,6.203,26.633,0.532,29.441,9.1c-16.923-0.584-33.476-5.817-37.528-0.844 c-2.648,2.7-5.582,5.115-8.074,7.944c-2.934,3.206-2.531,7.879-3.635,11.839c1.025,2.337,2.103,4.686,3.102,7.075 c-0.701,0.545-2.116,1.649-2.817,2.194c0.169,0.779,0.493,2.349,0.662,3.141c-1.61,1.246-3.103,2.583-4.582,3.959 c-0.779,1.752-1.506,3.544-2.194,5.348c-0.558-0.454-1.662-1.363-2.22-1.817c-3.011,0.195-6.231-0.039-7.568-3.129 c-5.828-10.774-8.84-22.795-12.514-34.413c-1.272-3.946-0.779-8.347-2.934-11.969c-0.039-0.571-0.13-1.726-0.169-2.298 c-3.946-1.908-7.944-3.803-12.319-4.336c-0.662-0.675-1.973-2.025-2.622-2.7c3.674-0.961,7.542-1.052,11.255-0.026 c4.037-1.194,8.334-1.168,12.306,0.351c4.128-2.194,8.736-3.141,13.228-4.375c0.688-1.571,1.389-3.129,2.116-4.673 C2215.113,1462.194,2212.127,1459.416,2209.285,1456.521z"/><path fill="inherit" d="M1972.964,1463.103c1.454-0.195,2.947-0.376,4.465-0.532c1.804,0.701,3.635,1.363,5.53,2.025 c0.922,0.87,1.895,1.766,2.882,2.674c1.103,6.789,0.208,13.565-1.039,20.276c-1.324,7.166,0.649,15.396-3.842,21.665 c-1.714,7.023-6.945,12.618-7.451,20.069c3.7,1.402,7.983,2.414,10.242,6.049c4.816,1.947,9.995,2.96,14.617,5.439 c1.207,1.363,2.389,2.726,3.609,4.167c-7.892-1.194-15.305-4.167-22.756-6.828c-6.413-2.739-13.435,1.428-19.952-0.987 c-7.451-2.609-14.669-6.023-22.509-7.373c-3.401-0.467-4.245-4.219-5.621-6.737c-4.167-1.272-8.451-2.22-12.332-4.206 c5.53-1.778,11.54-1.246,16.992-3.427c2.349,0.519,4.725,1.064,7.088,1.74c5.076-0.649,7.204-5.128,8.853-9.372 c1.726-4.933,3.336-9.918,4.465-15.019C1959.542,1481.692,1967.33,1472.942,1972.964,1463.103z"/></g></svg>