<?xml version="1.0" encoding="UTF-8" standalone="no"?><svg xmlns="http://www.w3.org/2000/svg" xmlns:xlink="http://www.w3.org/1999/xlink" contentScriptType="text/ecmascript" fill="#000000" width="133.3" zoomAndPan="magnify" contentStyleType="text/css" viewBox="0.0 0.0 133.3 133.3" height="133.3" preserveAspectRatio="xMidYMid meet" version="1"><g id="change1_1"><path fill="#fcc22d" d="M133.277,66.638c0,36.803-29.835,66.638-66.638,66.638S0,103.442,0,66.638S29.835,0,66.638,0 S133.277,29.835,133.277,66.638z"/></g><g id="change2_1"><path fill="#39280e" d="M119.489,66.638c0,29.189-23.662,52.851-52.851,52.851S13.787,95.827,13.787,66.638 s23.662-52.851,52.851-52.851S119.489,37.449,119.489,66.638z"/></g><g id="change3_1"><path fill="#ffffff" d="M66.636,46.278l23.017,23.013v23.437H73.228v-19.67H60.045v19.67H43.62V69.291L66.636,46.278z M34.088,69.097h8.024v-0.285L66.636,44.29l24.525,24.522v0.285h8.027L66.636,36.549L34.088,69.097z M53.227,44.602h-7.532v11.112 l7.532-7.534V44.602z"/></g></svg>