<?xml version="1.0" encoding="UTF-8" standalone="no"?><svg xmlns="http://www.w3.org/2000/svg" xmlns:xlink="http://www.w3.org/1999/xlink" contentScriptType="text/ecmascript" fill="#000000" width="500" zoomAndPan="magnify" contentStyleType="text/css" viewBox="0.0 0.0 500.0 500.0" height="500" preserveAspectRatio="xMidYMid meet" version="1"><g id="change1_1"><path fill="#cfe2f0" d="M500,0v227.889v40.044V500h-30.924h-30.628h-3.665H325.938h-15.76H167.082H0v-54.091v-39.578v-8.201v-28.69V0 H500z"/></g><g id="change2_1"><path fill="#eaeeef" d="M500,227.889v40.044V500h-30.924h-30.628h-3.665H325.938h-15.76H167.082H0v-54.091v-39.578v-8.201v-28.69 c9.29,0.01,18.588,4.322,24.418,11.565c-7.254-12.591,7.384-32.751,21.872-27.534c-10.225-3.95-15.596-17.262-10.974-27.201 c4.622-9.939,18.262-14.412,27.871-9.139c-9.546-13.034-6.908-33.389,5.646-43.558c12.554-10.169,33.013-8.525,43.781,3.519 c-3.769-9.842,6.656-21.84,16.928-19.482c-3.406-22.253,13.198-45.678,35.323-49.833c22.125-4.156,46.097,11.648,50.997,33.621 c13.798-10.3,37.276,3.795,34.674,20.815c9.798-14.866,35.175-8.792,44.178,6.568c9.003,15.36,6.693,34.559,4.101,52.173 c7.553-6.953,20.306-3.376,26.981,4.558c8.641-9.766,24.58-12.775,35.872-5.945c-8.667-11.349-11.325-27.799-4.258-40.207 c7.068-12.408,24.731-18.344,36.786-10.689c-16.925-12.989-18.418-42.304-1.655-55.502c16.763-13.198,46.541-2.79,49.738,18.304 c4.872-6.79,14.156-10.062,22.209-7.828c8.053,2.234,14.323,9.822,15,18.152C484.195,234.693,491.751,229.912,500,227.889z"/></g><g><g id="change3_1"><path fill="#dae4ea" d="M434.784,500H325.938h-15.76c-0.035-5.622-2.25-11.56-8.277-17.269c-17.34-16.424-39.562-7.485-39.562-7.485 s-3.509-21.637-31.579-23.308c-28.362-1.688-35.338,25.564-35.338,25.564s-17.071-8.646-27.067,6.015 c-3.771,5.531-3.56,11.185-1.272,16.483H0v-54.091c8.655-0.075,17.769,2.808,26.984,10.251c0,0,10.165-13.553,29.365-12.424 s22.588,20.329,22.588,20.329s19.765-27.106,52.518,9.035c0,0,3.953-35.576-34.447-39.529c0,0,0-19.765-16.941-27.106 c-21.143-9.162-28.235,9.035-28.235,9.035s-10.261-11.332-27.416-16.09c1.885-5.07,5.279-9.588,9.763-12.622 c7.953-5.381,18.962-5.844,27.339-1.15c-7.726-3.359-10.656-14.53-5.574-21.249c5.082-6.719,16.628-6.94,21.964-0.421 c-9.017-10.807-9.78-28.631,0.407-38.343c10.187-9.712,30.431-6.118,34.498,7.357c-2.159-5.578-0.112-12.491,4.736-15.995 c4.848-3.504,12.053-3.28,16.673,0.519c-8.303-11.922-6.004-29.835,4.71-39.648c10.714-9.812,28.347-10.695,40.287-2.419 c11.94,8.276,17.335,24.683,13.139,38.592c5.95-6.414,16.731-7.598,23.931-2.628s9.916,15.471,6.028,23.308 c5.462-9.372,15.158-16.435,25.934-17.677c10.776-1.242,22.301,3.853,27.77,13.221c0.396,0.679,0.75,1.37,1.08,2.066 c-2.974,0.234-6.064,0.589-9.175,1.107c-18.071,3.012-20.706,18.447-20.706,18.447s-3.962-5.056-13.929-1.129 c-8.574,3.378-7.906,14.306-7.906,14.306s-19.953-2.259-27.106,18.823c0,0,18.071-23.718,48.713-4.092 c0,0,1.039-14.55,11.692-15.59c10.653-1.039,13.511,11.692,13.511,11.692s4.63-4.949,10.667-8.364 c4.176-1.515,8.758-1.919,13.101-0.974c3.97,0.864,7.652,2.836,10.677,5.544c3.254,2.913,5.745,6.679,6.984,10.87 c1,3.381,1.198,6.817,0.778,10.212c-0.688,5.569-3.053,11.024-6.345,15.939c4.856-2.708,11.055-3.459,16.59-1.984 c2.281,0.608,4.45,1.592,6.364,2.977c10.008,7.242,12.831,21.651,9.246,33.472c-2.581,8.511-7.861,15.841-14.179,22.201 c-2.458,2.474-5.068,4.806-7.746,6.997c2.637-1.447,5.217-2.794,7.746-4.052C393.285,435.304,422.983,467.479,434.784,500z M474.985,253.802c-17.006,2.044-27.742,24.365-18.722,38.926c-9.496-12.186-28.386-13.573-41.878-6.047 c-25.425,14.183-29.311,56.368-18.648,67.548c-2.108-1.054-4.157-1.989-6.154-2.827c-36.529-15.322-54.586,4.028-54.586,4.028 c22.523,1.101,39.217,28.556,29.831,49.06c9.559-5.945,23.033-4.646,31.279,3.017c0.533,0.496,1.04,1.017,1.523,1.558 c3.836,4.294,6.059,9.93,6.486,15.684c0.35,4.725-0.504,9.528-2.709,13.732c9.972-4.468,21.182-4.789,31.643-1.949 c17.278,4.691,32.509,18.014,36.72,35.567c2.256,9.403,1.704,18.763-0.691,27.9H500V267.933 C495.008,259.038,485.234,252.571,474.985,253.802z"/></g></g></svg>