<?xml version="1.0" encoding="UTF-8" standalone="no"?><svg xmlns="http://www.w3.org/2000/svg" xmlns:xlink="http://www.w3.org/1999/xlink" contentScriptType="text/ecmascript" fill="#000000" width="72" zoomAndPan="magnify" contentStyleType="text/css" viewBox="0.0 -0.2 72.0 46.9" height="46.9" preserveAspectRatio="xMidYMid meet" version="1">
 <g fill="#4d4c4d" id="change1_1">
  <path fill="inherit" d="m25.36 20.06c-2.09 1.29-3.69 0.66-5.86 0.05a5 5 0 0 0 -4.09 0.18 9.62 9.62 0 0 0 -2.49 3.15c-0.34 0.54-0.68 1.08-1 1.6a1.94 1.94 0 0 1 -0.69 0.65 0.54 0.54 0 0 0 -0.39 0.19 15.87 15.87 0 0 0 -2.33 0 4.14 4.14 0 0 0 -2.91 1.12 11.09 11.09 0 0 0 -2.16 3 7.54 7.54 0 0 1 -1.51 2.22 2.75 2.75 0 0 1 -0.78 0.25 0.13 0.13 0 0 0 -0.08 0.22 2.4 2.4 0 0 1 -0.93 0.11 0.13 0.13 0 0 0 0 0.27c2.46 0.39 3.51-1.09 4.82-3 0.8-1.17 1.95-2.52 3.49-2.45a10 10 0 0 0 2.73 0.14 6 6 0 0 0 -0.45 2.77c0 0.16 0.25 0.16 0.28 0a4.92 4.92 0 0 1 0.14 -0.53s0.05 0 0.07-0.06c0.84-1.52 3-1.56 4.35-2.44a0.5 0.5 0 0 0 0.17 -0.19 0.55 0.55 0 0 0 0.12 -1 4.21 4.21 0 0 0 -2.39 -0.31c0.73-1 1.28-2.2 1.93-3.21a2.92 2.92 0 0 1 2.1 -1.64 9.5 9.5 0 0 1 3.42 0.38c1.75 0.37 3.53 0.3 4.62-1.28a0.13 0.13 0 0 0 -0.18 -0.19zm-13.17 7.94 0.08-0.11 0.08-0.08v0.07z"/>
  <path fill="inherit" d="m40.78 27.33a9.2 9.2 0 0 0 -3.59 -1.57 4.35 4.35 0 0 0 -3.54 1.41c-0.51 0.46-1 1-1.49 1.44a13.38 13.38 0 0 1 -2 1.2c-1.86 0.3-3.86 0.08-5.47 1.12-2.42 1.56-2.27 5-4.62 6.62-0.18 0.13 0 0.39 0.2 0.27 2.23-1.39 2.9-3.91 4.79-5.59 1-0.88 2.27-0.75 3.48-0.65a5.24 5.24 0 0 0 0.88 0c-0.29 0.45-0.62 0.89-0.9 1.36s0.47 0.88 0.75 0.46 0.59-0.8 0.9-1.19a2.19 2.19 0 0 0 1.31 0.2c0.93 0 1.85-0.1 2.78-0.07 0.69 0 1.16-1 0.38-1.27s-1.38-0.54-2.07-0.75c1-0.77 1.83-2 2.68-2.65a3.29 3.29 0 0 1 3.4 -0.31c0.57 0.19 2.48 1.33 3.07 1.05a0.13 0.13 0 0 0 0.1 0.25h0.07a0.14 0.14 0 0 0 0.09 -0.11c0.02-0.48-0.9-1-1.2-1.22z"/>
  <path fill="inherit" d="m42.47 16.78c-0.79 0.32-1.76-0.41-2.57-0.42a3.41 3.41 0 0 0 -2.7 1.35 3 3 0 0 0 -2.36 0.19 15.65 15.65 0 0 0 -2.41 2.47c-0.14 0.14 0.09 0.38 0.24 0.25 1.26-1.11 2.38-2.38 4.14-1.95a1.18 1.18 0 0 0 -0.18 0.14 0.49 0.49 0 0 0 0.42 0.78c0.44-0.06 1.57-0.22 1.24-0.94a0.61 0.61 0 0 0 -0.19 -0.23c0.24-0.21 0.48-0.43 0.75-0.62a2.8 2.8 0 0 1 1.52 -0.38c0.42 0 0.83 0 1.24-0.06a3.55 3.55 0 0 0 0.91 -0.44c0.11-0.03 0.05-0.18-0.05-0.14zm-5 2.51a0.49 0.49 0 0 0 0.11 0.09z"/>
  <path fill="inherit" d="m10.43 40.48a7.7 7.7 0 0 0 -3.24 0.35 4.45 4.45 0 0 0 -2.12 2.17c-1.9 0-3.13 2-4.07 3.47a0.16 0.16 0 0 0 0.25 0.2c0.58-0.59 1.06-1.26 1.61-1.88a2.85 2.85 0 0 1 2.18 -0.88l-0.04 0.09a0.89 0.89 0 0 0 -0.05 0.56c-0.05 0.24 0.22 0.51 0.43 0.31a0.42 0.42 0 0 0 0.33 -0.16l0.29-0.36c0.47 0.2 1-0.5 0.5-0.86a0.74 0.74 0 0 0 -0.5 -0.18 3.63 3.63 0 0 1 1.7 -1.78 15.17 15.17 0 0 1 2.72 -0.7c0.18-0.04 0.23-0.35 0.01-0.35z"/>
  <path fill="inherit" d="m71.8 25.71a2.73 2.73 0 0 0 -0.63 0.32c-0.05 0-0.06 0.13 0 0.13 0.25 0 0.4-0.19 0.64-0.24s0.12-0.24-0.01-0.21z"/>
  <path fill="inherit" d="m69.18 26c-0.85-1.67-1.73-4.07-3.85-4.3s-3.12 2.23-5 2.6a6.48 6.48 0 0 0 -3.18 -1.21c-2.13 0-3.63 2.2-4.91 3.56-0.13 0.13 0.07 0.29 0.21 0.22 1.27-0.73 3.61-2.82 5.17-2.29a19.81 19.81 0 0 0 2.38 1.12h0.08a5.83 5.83 0 0 0 -2.49 1.57c-0.19 0.2 0.08 0.57 0.32 0.44 1.58-0.85 3.25-1.35 4.91-0.41a0.69 0.69 0 0 0 1 -0.7c-0.16-0.77-0.45-0.85-1.11-1.12a0.64 0.64 0 0 0 -0.7 0.1h-0.15a10.34 10.34 0 0 0 1.88 -1.58c2.11-2 3.76 0.82 5.21 2.25a0.15 0.15 0 0 0 0.23 -0.25zm-6.67 0.87s0 0-0.07 0.06z"/>
  <path fill="inherit" d="m60.82 16.14a3.28 3.28 0 0 0 -2.73 -1.79 6.37 6.37 0 0 0 -3.15 1.22 2.63 2.63 0 0 0 -1.86 -0.15 3.41 3.41 0 0 0 -1.87 1.5 0.14 0.14 0 0 0 0.21 0.17 3 3 0 0 1 2.58 -0.73 0.43 0.43 0 0 0 0.19 0.76l0.93 0.14c0.18 0 0.35 0.16 0.54 0.17a0.66 0.66 0 0 0 0.73 -0.53 0.62 0.62 0 0 0 -0.24 -0.58 10.53 10.53 0 0 1 1.21 -0.64c1.22-0.51 2.16 0 3.2 0.67a0.16 0.16 0 0 0 0.26 -0.21z"/>
  <path fill="inherit" d="m51.62 2.63c-2.14-1.07-4.42-2.31-6.83-2.63-1.68-0.2-4 0.66-4.33 2.48a10.07 10.07 0 0 0 -5 0c-2.45 0.72-3.88 3.79-6.58 3.32a0.17 0.17 0 0 0 -0.1 0.31c2.23 1.17 3.94-0.5 5.84-1.54a5.58 5.58 0 0 1 2.62 -0.79h1.5c-0.21 0.36-0.42 0.73-0.61 1.09a0.57 0.57 0 0 0 0.58 0.8c1-0.13 2-0.41 3-0.53a0.57 0.57 0 0 0 0.4 -0.14h0.38a0.6 0.6 0 0 0 0.51 -1 2.07 2.07 0 0 0 -1.17 -0.73c0.48-0.69 0.71-1.44 1.68-1.67a6.8 6.8 0 0 1 2.83 0.22c1.66 0.41 3.42 1.18 5.23 1.18 0.19 0 0.2-0.29 0.05-0.37z"/>
 </g>
</svg>