<?xml version="1.0" encoding="UTF-8" standalone="no"?><svg xmlns="http://www.w3.org/2000/svg" xmlns:xlink="http://www.w3.org/1999/xlink" contentScriptType="text/ecmascript" fill="#000000" width="522.8" zoomAndPan="magnify" contentStyleType="text/css" viewBox="-0.1 -0.4 522.8 131.2" height="131.2" preserveAspectRatio="xMidYMid meet" version="1"><defs><clipPath id="a"><path d="M 84 103 L 131 103 L 131 130.769531 L 84 130.769531 Z M 84 103"/></clipPath><clipPath id="b"><path d="M 476 19 L 522.710938 19 L 522.710938 48 L 476 48 Z M 476 19"/></clipPath></defs><g><g id="change1_1"><path d="M 200.285156 0.03125 C 193.460938 2.40625 188.519531 7.035156 186.46875 13.507812 C 180.535156 3.613281 169.511719 -0.382812 157.800781 0.902344 C 157.203125 0.964844 157.179688 1.816406 157.800781 1.847656 C 170.394531 2.402344 178.972656 9.773438 184.746094 20.320312 C 185.953125 22.523438 189.703125 21.027344 188.878906 18.617188 C 189.859375 15.394531 190.011719 11.953125 191.511719 8.863281 C 193.238281 5.300781 197.480469 3.050781 200.816406 1.300781 C 201.511719 0.9375 201.03125 -0.226562 200.285156 0.03125"/></g><g id="change1_9" clip-path="url(#a)"><path d="M 129.828125 114.839844 C 124 112.070312 117.261719 111.832031 111.152344 113.980469 C 107.742188 115.179688 105.339844 118.25 103.386719 121.507812 C 102.5625 117.148438 101.621094 112.917969 98.292969 109.496094 C 94.851562 105.960938 89.933594 102.914062 84.894531 103.089844 C 83.898438 103.125 83.945312 104.492188 84.894531 104.601562 C 90.609375 105.242188 96.128906 110.417969 98.003906 115.613281 C 99.496094 119.742188 99.003906 124.699219 100.011719 129.019531 C 100.507812 131.148438 103.40625 131.328125 104.472656 129.601562 C 107.015625 125.492188 108.886719 121.230469 113.042969 118.46875 C 118.34375 114.949219 123.664062 115.816406 129.578125 115.761719 C 130.042969 115.757812 130.289062 115.058594 129.828125 114.839844"/></g><g id="change1_10" clip-path="url(#b)"><path d="M 522.464844 31.632812 C 516.636719 28.863281 509.898438 28.621094 503.789062 30.769531 C 500.378906 31.972656 497.976562 35.042969 496.023438 38.296875 C 495.199219 33.941406 494.257812 29.710938 490.929688 26.285156 C 487.488281 22.753906 482.570312 19.707031 477.53125 19.878906 C 476.535156 19.914062 476.582031 21.285156 477.53125 21.390625 C 483.246094 22.03125 488.765625 27.210938 490.640625 32.402344 C 492.132812 36.535156 491.640625 41.492188 492.648438 45.808594 C 493.144531 47.9375 496.042969 48.121094 497.109375 46.394531 C 499.652344 42.28125 501.523438 38.023438 505.679688 35.261719 C 510.980469 31.742188 516.300781 32.605469 522.214844 32.550781 C 522.679688 32.546875 522.925781 31.851562 522.464844 31.632812"/></g><g id="change1_2"><path d="M 380.226562 53.105469 C 368.195312 49.171875 357.984375 60.320312 355.582031 71.40625 C 345.703125 67.75 336.785156 61.984375 325.988281 66.726562 C 325.25 67.054688 325.78125 68.238281 326.53125 68.015625 C 333.753906 65.871094 338.53125 67.289062 344.804688 70.992188 C 348.765625 73.328125 352.585938 75.566406 356.929688 77.128906 C 358.558594 77.714844 359.964844 76.222656 360.082031 74.726562 C 360.425781 70.300781 362.332031 66.449219 363.953125 62.386719 C 366.953125 54.871094 373.023438 54.25 380.101562 54.035156 C 380.640625 54.015625 380.734375 53.269531 380.226562 53.105469"/></g><g id="change1_3"><path d="M 186.488281 69.960938 C 181.597656 70.933594 178.183594 75.636719 176.058594 80.394531 C 174.082031 77.085938 171.882812 74.007812 168.28125 72.148438 C 163.128906 69.488281 155.898438 72.625 151.125 74.789062 C 150.613281 75.019531 150.855469 75.929688 151.417969 75.863281 C 157.355469 75.1875 163.085938 72.507812 168.054688 77.488281 C 170.847656 80.289062 172.394531 84.3125 174.421875 87.65625 C 175.503906 89.441406 178.589844 89.273438 179.0625 87.050781 C 180.472656 80.453125 189.113281 67.023438 196.871094 74.515625 C 197.441406 75.0625 198.464844 74.523438 198.226562 73.726562 C 196.683594 68.59375 190.84375 69.089844 186.488281 69.960938"/></g><g id="change1_4"><path d="M 278.300781 95.621094 C 271.449219 96.167969 268.46875 101.878906 267.507812 107.832031 C 262.804688 104.007812 258.414062 98.753906 257.683594 92.871094 C 257.613281 92.308594 256.742188 92.066406 256.609375 92.722656 C 254.863281 101.371094 261.492188 109.007812 267.847656 114.074219 C 269.453125 115.359375 271.953125 114.640625 272 112.355469 C 272.058594 109.339844 272.277344 106.417969 273.773438 103.734375 C 275.121094 101.308594 277.496094 99.902344 279.207031 97.808594 C 279.839844 97.03125 279.53125 95.523438 278.300781 95.621094"/></g><g id="change1_5"><path d="M 33.828125 107.050781 C 28.074219 107.265625 25.542969 113.621094 23.21875 118.273438 C 18.777344 115.492188 15.21875 112.148438 9.40625 112.964844 C 3.898438 113.742188 1.21875 120.402344 0.0078125 124.949219 C -0.0585938 125.195312 0.308594 125.363281 0.429688 125.128906 C 3.09375 119.902344 5.226562 113.855469 12.757812 115.484375 C 16.597656 116.316406 19.796875 120.960938 22.976562 123.210938 C 24.035156 123.957031 25.3125 123.308594 25.976562 122.421875 C 28.675781 118.832031 29.429688 113.832031 33.289062 111.140625 C 38.671875 107.386719 47.804688 114.792969 52.089844 117.65625 C 52.519531 117.941406 52.910156 117.332031 52.609375 116.980469 C 47.902344 111.421875 41.417969 106.765625 33.828125 107.050781"/></g><g id="change1_6"><path d="M 283.261719 54.792969 C 279.308594 53.472656 269.351562 56.464844 268.316406 52.652344 C 267.214844 48.589844 264.90625 43.851562 259.941406 44.058594 C 253.136719 44.339844 245.542969 46.296875 240.335938 50.871094 C 239.59375 51.519531 240.378906 52.707031 241.261719 52.464844 C 250.320312 50 263.980469 42.804688 267.210938 56.527344 C 267.351562 57.125 267.953125 57.355469 268.503906 57.261719 C 273.308594 56.429688 277.863281 55.785156 282.664062 56.949219 C 287.578125 58.144531 290.597656 62.402344 294.066406 65.683594 C 294.515625 66.113281 295.09375 65.574219 294.871094 65.058594 C 292.675781 59.929688 288.503906 56.542969 283.261719 54.792969"/></g><g id="change1_7"><path d="M 470.800781 66.386719 C 465.253906 64.171875 453.816406 64.746094 450.207031 70.742188 C 450.085938 70.589844 449.941406 70.425781 449.757812 70.238281 C 449.308594 69.289062 448.832031 68.355469 448.324219 67.4375 C 447.339844 65.59375 446.042969 64.070312 444.476562 62.710938 C 442.109375 60.660156 439.054688 60.640625 436.21875 61.414062 C 435.355469 61.648438 435.523438 63.003906 436.433594 62.980469 C 443.832031 62.800781 446.335938 68.066406 448.394531 74.238281 C 448.546875 74.703125 448.933594 75.230469 449.464844 75.308594 C 449.59375 75.335938 449.722656 75.367188 449.851562 75.394531 C 450.523438 75.761719 451.515625 75.738281 452.046875 75.109375 C 457.574219 68.5625 463.878906 71.390625 470.800781 68.734375 C 471.96875 68.285156 471.941406 66.839844 470.800781 66.386719"/></g><g id="change1_8"><path d="M 388.046875 31.230469 C 387.761719 30.289062 386.75 29.632812 385.769531 29.9375 C 382.480469 30.953125 378.957031 31.023438 375.839844 32.542969 C 374.859375 33.019531 375.300781 34.75 376.40625 34.636719 C 379.242188 34.351562 382.074219 34.089844 384.902344 33.742188 C 386.320312 37.835938 390.039062 42.105469 394.324219 42.511719 C 394.890625 42.566406 395.4375 41.867188 395.222656 41.328125 C 393.636719 37.308594 389.378906 35.640625 388.046875 31.230469"/></g></g></svg>