<?xml version="1.0" encoding="UTF-8" standalone="no"?><svg xmlns="http://www.w3.org/2000/svg" xmlns:xlink="http://www.w3.org/1999/xlink" contentScriptType="text/ecmascript" fill="#000000" width="446.2" zoomAndPan="magnify" contentStyleType="text/css" viewBox="26.9 132.6 446.2 215.2" height="215.2" preserveAspectRatio="xMidYMid meet" version="1"><g id="change1_1"><path fill="inherit" d="M80.3496017,253.1861572c0,0,48.8205185-74.8052673,120.8954086-53.6896362 c0,0,41.4705048-66.9445953,120.8922577-41.4841461c0,0-86.7345276-2.2245636-99.281601,45.6473694l14.7139435,10.2744904 c0,0-45.4334564,21.1479645-44.0008698,14.5823669c2.8670807-13.1399689,3.7614136-12.8019867,3.7614136-12.8019867 S157.2211456,190.3877411,80.3496017,253.1861572z"/><path fill="inherit" d="M280.4787598,309.3893433c0,0,43.3245239-53.3638,96.8056335-31.4610291c0,0,37.0729065-47.933075,95.8309326-22.1196899 c0,0-66.2059631-8.6121216-79.6226196,27.0276184l10.4429626,9.0358582c0,0-36.4576721,12.5664368-34.8381958,7.6555176 c3.2411194-9.8283997,3.8986816-9.4984741,3.8986816-9.4984741S344.315918,267.4497375,280.4787598,309.3893433z"/><path fill="inherit" d="M26.8846836,347.7646484c0,0,43.3245087-53.3638,96.8056335-31.4610291c0,0,37.0728989-47.9331055,95.8309097-22.1197205 c0,0-66.2059631-8.6120911-79.6226044,27.0276489l10.4429626,9.0358276c0,0-36.4576797,12.5664673-34.8382034,7.6555481 c3.2411194-9.8284302,3.8986816-9.4985046,3.8986816-9.4985046S90.7218246,305.8250122,26.8846836,347.7646484z"/></g></svg>