<?xml version="1.0" encoding="UTF-8" standalone="no"?><svg xmlns="http://www.w3.org/2000/svg" xmlns:xlink="http://www.w3.org/1999/xlink" contentScriptType="text/ecmascript" fill="#000000" width="1597.9" zoomAndPan="magnify" contentStyleType="text/css" viewBox="0.0 0.0 1597.9 466.4" height="466.4" preserveAspectRatio="xMidYMid meet" version="1"><g id="change1_1"><path fill="#c2d56f" d="M32.09,287.94v-0.33c0-90.29,73.19-163.48,163.48-163.48h1238.86c90.29,0,163.48,73.19,163.48,163.48v0.33 c0,90.29-73.19,163.48-163.48,163.48H195.56C105.28,451.42,32.09,378.23,32.09,287.94z"/></g><g id="change2_1"><path fill="#545252" d="M1408.59,429.41H170.06c-45.42,0-88.13-17.69-120.25-49.81C17.69,347.48,0,304.78,0,259.35 c0-45.42,17.69-88.13,49.81-120.25c32.12-32.12,74.82-49.81,120.25-49.81h1238.53c45.42,0,88.13,17.69,120.25,49.81 c32.12,32.12,49.81,74.82,49.81,120.25s-17.69,88.13-49.81,120.25C1496.72,411.72,1454.01,429.41,1408.59,429.41z M170.06,102.13 c-42,0-81.48,16.35-111.17,46.05s-46.05,69.18-46.05,111.17v0c0,42,16.35,81.48,46.05,111.17s69.18,46.05,111.17,46.05h1238.53 c42,0,81.48-16.35,111.17-46.05c29.7-29.7,46.05-69.18,46.05-111.17c0-42-16.35-81.48-46.05-111.17 c-29.7-29.7-69.18-46.05-111.17-46.05H170.06z"/></g><g id="change3_1"><path fill="#6f95d6" d="M123.13,28.44h-19.95V8.49c0-4.69-3.8-8.49-8.49-8.49l0,0C90,0,86.19,3.8,86.19,8.49v19.95H66.25 c-4.69,0-8.49,3.8-8.49,8.49l0,0c0,4.69,3.8,8.49,8.49,8.49h19.95v19.95c0,4.69,3.8,8.49,8.49,8.49l0,0c4.69,0,8.49-3.8,8.49-8.49 V45.42h19.95c4.69,0,8.49-3.8,8.49-8.49v0C131.62,32.24,127.82,28.44,123.13,28.44z"/></g><g id="change4_1"><path fill="#fcc573" d="M1397.52,466.35c-23.91,0-43.36-19.45-43.36-43.36c0-23.91,19.45-43.36,43.36-43.36s43.36,19.45,43.36,43.36 C1440.88,446.9,1421.43,466.35,1397.52,466.35z M1397.52,400.95c-12.15,0-22.04,9.89-22.04,22.04c0,12.15,9.89,22.04,22.04,22.04 s22.04-9.89,22.04-22.04C1419.56,410.84,1409.67,400.95,1397.52,400.95z"/></g></svg>